999
dxfrw 0.6.3
  0
SECTION
  2
HEADER
  9
$ACADVER
  1
AC1021
  9
$DWGCODEPAGE
  3
ANSI_1252
  9
$INSBASE
 10
0
 20
0
 30
0
  9
$EXTMIN
 10
0
 20
0
 30
0
  9
$EXTMAX
 10
35
 20
23
 30
0
  9
$LIMMIN
 10
0
 20
0
  9
$LIMMAX
 10
420
 20
297
  9
$ORTHOMODE
 70
    0
  9
$REGENMODE
 70
    1
  9
$FILLMODE
 70
    1
  9
$QTEXTMODE
 70
    0
  9
$MIRRTEXT
 70
    0
  9
$LTSCALE
 40
1
  9
$ATTMODE
 70
    0
  9
$TEXTSIZE
 40
2.5
  9
$TRACEWID
 40
15.68
  9
$TEXTSTYLE
  7
STANDARD
  9
$CLAYER
  8
material
  9
$CELTYPE
  6
BYLAYER
  9
$CECOLOR
 62
  256
  9
$CELTSCALE
 40
1
  9
$DISPSILH
 70
    0
  9
$DIMSCALE
 40
2.5
  9
$DIMASZ
 40
0.1
  9
$DIMEXO
 40
0.625
  9
$DIMDLI
 40
3.75
  9
$DIMRND
 40
0
  9
$DIMDLE
 40
0
  9
$DIMEXE
 40
0.05
  9
$DIMTP
 40
0
  9
$DIMTM
 40
0
  9
$DIMTXT
 40
0.1
  9
$DIMCEN
 40
2.5
  9
$DIMTSZ
 40
0
  9
$DIMTOL
 70
    0
  9
$DIMLIM
 70
    0
  9
$DIMTIH
 70
    0
  9
$DIMTOH
 70
    0
  9
$DIMSE1
 70
    0
  9
$DIMSE2
 70
    0
  9
$DIMTAD
 70
    1
  9
$DIMZIN
 70
    1
  9
$DIMBLK
  1

  9
$DIMASO
 70
    1
  9
$DIMSHO
 70
    1
  9
$DIMPOST
  1

  9
$DIMAPOST
  1

  9
$DIMALT
 70
    0
  9
$DIMALTD
 70
    3
  9
$DIMALTF
 40
0.03937
  9
$DIMLFAC
 40
1
  9
$DIMTOFL
 70
    1
  9
$DIMTVP
 40
0
  9
$DIMTIX
 70
    0
  9
$DIMSOXD
 70
    0
  9
$DIMSAH
 70
    0
  9
$DIMBLK1
  1

  9
$DIMBLK2
  1

  9
$DIMSTYLE
  2
STANDARD
  9
$DIMCLRD
 70
    0
  9
$DIMCLRE
 70
    0
  9
$DIMCLRT
 70
    0
  9
$DIMTFAC
 40
1
  9
$DIMGAP
 40
0.625
  9
$DIMJUST
 70
    0
  9
$DIMSD1
 70
    0
  9
$DIMSD2
 70
    0
  9
$DIMTOLJ
 70
    0
  9
$DIMTZIN
 70
    8
  9
$DIMALTZ
 70
    0
  9
$DIMALTTZ
 70
    0
  9
$DIMUPT
 70
    0
  9
$DIMDEC
 70
    4
  9
$DIMTDEC
 70
    2
  9
$DIMALTU
 70
    2
  9
$DIMALTTD
 70
    3
  9
$DIMTXSTY
  7
standard
  9
$DIMAUNIT
 70
    0
  9
$DIMADEC
 70
    2
  9
$DIMALTRND
 40
0
  9
$DIMAZIN
 70
    0
  9
$DIMDSEP
 70
    0
  9
$DIMATFIT
 70
    3
  9
$DIMFRAC
 70
    0
  9
$DIMLDRBLK
  1
STANDARD
  9
$DIMLUNIT
 70
    2
  9
$DIMLWD
 70
   -2
  9
$DIMLWE
 70
   -2
  9
$DIMTMOVE
 70
    0
  9
$DIMFXL
 40
0.04
  9
$DIMFXLON
 70
    0
  9
$DIMJOGANG
 40
0.7854
  9
$DIMTFILL
 70
    0
  9
$DIMTFILLCLR
 70
    0
  9
$DIMARCSYM
 70
    0
  9
$DIMLTYPE
  6

  9
$DIMLTEX1
  6

  9
$DIMLTEX2
  6

  9
$LUNITS
 70
    2
  9
$LUPREC
 70
    4
  9
$SKETCHINC
 40
1
  9
$FILLETRAD
 40
0
  9
$AUNITS
 70
    0
  9
$AUPREC
 70
    2
  9
$MENU
  1
.
  9
$ELEVATION
 40
0
  9
$PELEVATION
 40
0
  9
$THICKNESS
 40
0
  9
$LIMCHECK
 70
    0
  9
$CHAMFERA
 40
0
  9
$CHAMFERB
 40
0
  9
$CHAMFERC
 40
0
  9
$CHAMFERD
 40
0
  9
$SKPOLY
 70
    0
  9
$USRTIMER
 70
    1
  9
$ANGBASE
 50
0
  9
$ANGDIR
 70
    0
  9
$PDMODE
 70
   34
  9
$PDSIZE
 40
0
  9
$PLINEWID
 40
0
  9
$SPLFRAME
 70
    0
  9
$SPLINETYPE
 70
    2
  9
$SPLINESEGS
 70
    8
  9
$HANDSEED
  5
20000
  9
$SURFTAB1
 70
    6
  9
$SURFTAB2
 70
    6
  9
$SURFTYPE
 70
    6
  9
$SURFU
 70
    6
  9
$SURFV
 70
    6
  9
$UCSBASE
  2

  9
$UCSNAME
  2

  9
$UCSORG
 10
0
 20
0
 30
0
  9
$UCSXDIR
 10
1
 20
0
 30
0
  9
$UCSYDIR
 10
0
 20
1
 30
0
  9
$UCSORTHOREF
  2

  9
$UCSORTHOVIEW
 70
    0
  9
$UCSORGTOP
 10
0
 20
0
 30
0
  9
$UCSORGBOTTOM
 10
0
 20
0
 30
0
  9
$UCSORGLEFT
 10
0
 20
0
 30
0
  9
$UCSORGRIGHT
 10
0
 20
0
 30
0
  9
$UCSORGFRONT
 10
0
 20
0
 30
0
  9
$UCSORGBACK
 10
0
 20
0
 30
0
  9
$PUCSBASE
  2

  9
$PUCSNAME
  2

  9
$PUCSORG
 10
0
 20
0
 30
0
  9
$PUCSXDIR
 10
1
 20
0
 30
0
  9
$PUCSYDIR
 10
0
 20
1
 30
0
  9
$PUCSORTHOREF
  2

  9
$PUCSORTHOVIEW
 70
    0
  9
$PUCSORGTOP
 10
0
 20
0
 30
0
  9
$PUCSORGBOTTOM
 10
0
 20
0
 30
0
  9
$PUCSORGLEFT
 10
0
 20
0
 30
0
  9
$PUCSORGRIGHT
 10
0
 20
0
 30
0
  9
$PUCSORGFRONT
 10
0
 20
0
 30
0
  9
$PUCSORGBACK
 10
0
 20
0
 30
0
  9
$USERI1
 70
    0
  9
$USERI2
 70
    0
  9
$USERI3
 70
    0
  9
$USERI4
 70
    0
  9
$USERI5
 70
    0
  9
$USERR1
 40
0
  9
$USERR2
 40
0
  9
$USERR3
 40
0
  9
$USERR4
 40
0
  9
$USERR5
 40
0
  9
$WORLDVIEW
 70
    1
  9
$SHADEDGE
 70
    3
  9
$SHADEDIF
 70
   70
  9
$TILEMODE
 70
    1
  9
$MAXACTVP
 70
   64
  9
$PINSBASE
 10
0
 20
0
 30
0
  9
$PLIMCHECK
 70
    0
  9
$PEXTMIN
 10
0
 20
0
 30
0
  9
$PEXTMAX
 10
0
 20
0
 30
0
  9
$GRIDMODE
 70
    1
  9
$SNAPSTYLE
 70
    0
  9
$PLIMMIN
 10
0
 20
0
  9
$PLIMMAX
 10
4.772152e-11
 20
6.749288e-11
  9
$UNITMODE
 70
    0
  9
$VISRETAIN
 70
    1
  9
$PLINEGEN
 70
    0
  9
$PSLTSCALE
 70
    1
  9
$TREEDEPTH
 70
 3020
  9
$CMLSTYLE
  2
Standard
  9
$CMLJUST
 70
    0
  9
$CMLSCALE
 40
20
  9
$PROXYGRAPHICS
 70
    1
  9
$MEASUREMENT
 70
    1
  9
$CELWEIGHT
370
   -1
  9
$ENDCAPS
280
    0
  9
$JOINSTYLE
280
    0
  9
$LWDISPLAY
290
    0
  9
$INSUNITS
 70
    1
  9
$HYPERLINKBASE
  1

  9
$STYLESHEET
  1

  9
$XEDIT
290
    1
  9
$CEPSNTYPE
380
    0
  9
$PSTYLEMODE
290
    1
  9
$EXTNAMES
290
    1
  9
$PSVPSCALE
 40
1
  9
$OLESTARTUP
290
    0
  9
$SORTENTS
280
  127
  9
$INDEXCTL
280
    0
  9
$HIDETEXT
280
    1
  9
$XCLIPFRAME
290
    0
  9
$HALOGAP
280
    0
  9
$OBSCOLOR
 70
  257
  9
$OBSLTYPE
280
    0
  9
$INTERSECTIONDISPLAY
280
    0
  9
$INTERSECTIONCOLOR
 70
  257
  9
$DIMASSOC
280
    1
  9
$PROJECTNAME
  1

  9
$CAMERADISPLAY
290
    0
  9
$LENSLENGTH
 40
50
  9
$CAMERAHEIGHT
 40
0
  9
$STEPSPERSEC
 40
2
  9
$STEPSIZE
 40
50
  9
$3DDWFPREC
 40
2
  9
$PSOLWIDTH
 40
5
  9
$PSOLHEIGHT
 40
80
  9
$LOFTANG1
 40
1.570796326794897
  9
$LOFTANG2
 40
1.570796326794897
  9
$LOFTMAG1
 40
0
  9
$LOFTMAG2
 40
0
  9
$LOFTPARAM
 70
    7
  9
$LOFTNORMALS
280
    1
  9
$LATITUDE
 40
1
  9
$LONGITUDE
 40
1
  9
$NORTHDIRECTION
 40
0
  9
$TIMEZONE
 70
-8000
  9
$LIGHTGLYPHDISPLAY
280
    1
  9
$TILEMODELIGHTSYNCH
280
    1
  9
$SOLIDHIST
280
    1
  9
$SHOWHIST
280
    1
  9
$DWFFRAME
280
    2
  9
$DGNFRAME
280
    0
  9
$REALWORLDSCALE
290
    1
  9
$INTERFERECOLOR
 62
    1
  9
$CSHADOW
280
    0
  9
$SHADOWPLANELOCATION
 40
0
  0
ENDSEC
  0
SECTION
  2
CLASSES
  0
ENDSEC
  0
SECTION
  2
TABLES
  0
TABLE
  2
VPORT
  5
8
330
0
100
AcDbSymbolTable
 70
    1
  0
VPORT
  5
31
330
2
100
AcDbSymbolTableRecord
100
AcDbViewportTableRecord
  2
*ACTIVE
 70
    0
 10
0
 20
0
 11
1
 21
1
 12
25.03779317575637
 22
11.80926929466156
 13
0
 23
0
 14
10
 24
10
 15
10
 25
10
 16
0
 26
0
 36
1
 17
0
 27
0
 37
0
 40
35.82948371033372
 41
1.899850523168909
 42
50
 43
0
 44
0
 50
0
 51
0
 71
    0
 72
  100
 73
    1
 74
    3
 75
    0
 76
    1
 77
    0
 78
    0
281
    0
 65
    1
110
0
120
0
130
0
111
1
121
0
131
0
112
0
122
1
132
0
 79
    0
146
0
348
10020
 60
    7
 61
    5
292
1
282
    1
141
0
142
0
 63
  250
421
3358443
  0
ENDTAB
  0
TABLE
  2
LTYPE
  5
5
330
0
100
AcDbSymbolTable
 70
    4
  0
LTYPE
  5
14
330
5
100
AcDbSymbolTableRecord
100
AcDbLinetypeTableRecord
  2
ByBlock
 70
    0
  3

 72
   65
 73
    0
 40
0
  0
LTYPE
  5
15
330
5
100
AcDbSymbolTableRecord
100
AcDbLinetypeTableRecord
  2
ByLayer
 70
    0
  3

 72
   65
 73
    0
 40
0
  0
LTYPE
  5
16
330
5
100
AcDbSymbolTableRecord
100
AcDbLinetypeTableRecord
  2
Continuous
 70
    0
  3
Solid line
 72
   65
 73
    0
 40
0
  0
LTYPE
  5
32
330
5
100
AcDbSymbolTableRecord
100
AcDbLinetypeTableRecord
  2
DOT
 70
    0
  3
Dot . . . . . . . . . . . . . . . . . . . . . .
 72
   65
 73
    2
 40
6.35
 49
0
 74
    0
 49
-6.35
 74
    0
  0
LTYPE
  5
33
330
5
100
AcDbSymbolTableRecord
100
AcDbLinetypeTableRecord
  2
DOTTINY
 70
    0
  3
Dot (.15x) .....................................
 72
   65
 73
    2
 40
0.9525
 49
0
 74
    0
 49
-0.9525
 74
    0
  0
LTYPE
  5
34
330
5
100
AcDbSymbolTableRecord
100
AcDbLinetypeTableRecord
  2
DOT2
 70
    0
  3
Dot (.5x) .....................................
 72
   65
 73
    2
 40
3.175
 49
0
 74
    0
 49
-3.175
 74
    0
  0
LTYPE
  5
35
330
5
100
AcDbSymbolTableRecord
100
AcDbLinetypeTableRecord
  2
DOTX2
 70
    0
  3
Dot (2x) .  .  .  .  .  .  .  .  .  .  .  .  .
 72
   65
 73
    2
 40
12.7
 49
0
 74
    0
 49
-12.7
 74
    0
  0
LTYPE
  5
36
330
5
100
AcDbSymbolTableRecord
100
AcDbLinetypeTableRecord
  2
DASHED
 70
    0
  3
Dashed _ _ _ _ _ _ _ _ _ _ _ _ _ _ _ _ _
 72
   65
 73
    2
 40
19.05
 49
12.7
 74
    0
 49
-6.35
 74
    0
  0
LTYPE
  5
37
330
5
100
AcDbSymbolTableRecord
100
AcDbLinetypeTableRecord
  2
DASHEDTINY
 70
    0
  3
Dashed (.15x) _ _ _ _ _ _ _ _ _ _ _ _ _ _ _ _ _
 72
   65
 73
    2
 40
2.8575
 49
1.905
 74
    0
 49
-0.9525
 74
    0
  0
LTYPE
  5
38
330
5
100
AcDbSymbolTableRecord
100
AcDbLinetypeTableRecord
  2
DASHED2
 70
    0
  3
Dashed (.5x) _ _ _ _ _ _ _ _ _ _ _ _ _ _ _ _ _
 72
   65
 73
    2
 40
9.524999999999999
 49
6.35
 74
    0
 49
-3.175
 74
    0
  0
LTYPE
  5
39
330
5
100
AcDbSymbolTableRecord
100
AcDbLinetypeTableRecord
  2
DASHEDX2
 70
    0
  3
Dashed (2x) ____  ____  ____  ____  ____  ___
 72
   65
 73
    2
 40
38.09999999999999
 49
25.4
 74
    0
 49
-12.7
 74
    0
  0
LTYPE
  5
3A
330
5
100
AcDbSymbolTableRecord
100
AcDbLinetypeTableRecord
  2
DASHDOT
 70
    0
  3
Dash dot __ . __ . __ . __ . __ . __ . __ . __
 72
   65
 73
    4
 40
25.4
 49
12.7
 74
    0
 49
-6.35
 74
    0
 49
0
 74
    0
 49
-6.35
 74
    0
  0
LTYPE
  5
3B
330
5
100
AcDbSymbolTableRecord
100
AcDbLinetypeTableRecord
  2
DASHDOTTINY
 70
    0
  3
Dash dot (.15x) _._._._._._._._._._._._._._._.
 72
   65
 73
    4
 40
3.81
 49
1.905
 74
    0
 49
-0.9525
 74
    0
 49
0
 74
    0
 49
-0.9525
 74
    0
  0
LTYPE
  5
3C
330
5
100
AcDbSymbolTableRecord
100
AcDbLinetypeTableRecord
  2
DASHDOT2
 70
    0
  3
Dash dot (.5x) _._._._._._._._._._._._._._._.
 72
   65
 73
    4
 40
12.7
 49
6.35
 74
    0
 49
-3.175
 74
    0
 49
0
 74
    0
 49
-3.175
 74
    0
  0
LTYPE
  5
3D
330
5
100
AcDbSymbolTableRecord
100
AcDbLinetypeTableRecord
  2
DASHDOTX2
 70
    0
  3
Dash dot (2x) ____  .  ____  .  ____  .  ___
 72
   65
 73
    4
 40
50.8
 49
25.4
 74
    0
 49
-12.7
 74
    0
 49
0
 74
    0
 49
-12.7
 74
    0
  0
LTYPE
  5
3E
330
5
100
AcDbSymbolTableRecord
100
AcDbLinetypeTableRecord
  2
DIVIDE
 70
    0
  3
Divide ____ . . ____ . . ____ . . ____ . . ____
 72
   65
 73
    6
 40
31.75
 49
12.7
 74
    0
 49
-6.35
 74
    0
 49
0
 74
    0
 49
-6.35
 74
    0
 49
0
 74
    0
 49
-6.35
 74
    0
  0
LTYPE
  5
3F
330
5
100
AcDbSymbolTableRecord
100
AcDbLinetypeTableRecord
  2
DIVIDETINY
 70
    0
  3
Divide (.15x) __..__..__..__..__..__..__..__.._
 72
   65
 73
    6
 40
4.7625
 49
1.905
 74
    0
 49
-0.9525
 74
    0
 49
0
 74
    0
 49
-0.9525
 74
    0
 49
0
 74
    0
 49
-0.9525
 74
    0
  0
LTYPE
  5
40
330
5
100
AcDbSymbolTableRecord
100
AcDbLinetypeTableRecord
  2
DIVIDE2
 70
    0
  3
Divide (.5x) __..__..__..__..__..__..__..__.._
 72
   65
 73
    6
 40
15.875
 49
6.35
 74
    0
 49
-3.175
 74
    0
 49
0
 74
    0
 49
-3.175
 74
    0
 49
0
 74
    0
 49
-3.175
 74
    0
  0
LTYPE
  5
41
330
5
100
AcDbSymbolTableRecord
100
AcDbLinetypeTableRecord
  2
DIVIDEX2
 70
    0
  3
Divide (2x) ________  .  .  ________  .  .  _
 72
   65
 73
    6
 40
63.5
 49
25.4
 74
    0
 49
-12.7
 74
    0
 49
0
 74
    0
 49
-12.7
 74
    0
 49
0
 74
    0
 49
-12.7
 74
    0
  0
LTYPE
  5
42
330
5
100
AcDbSymbolTableRecord
100
AcDbLinetypeTableRecord
  2
BORDER
 70
    0
  3
Border __ __ . __ __ . __ __ . __ __ . __ __ .
 72
   65
 73
    6
 40
44.45
 49
12.7
 74
    0
 49
-6.35
 74
    0
 49
12.7
 74
    0
 49
-6.35
 74
    0
 49
0
 74
    0
 49
-6.35
 74
    0
  0
LTYPE
  5
43
330
5
100
AcDbSymbolTableRecord
100
AcDbLinetypeTableRecord
  2
BORDERTINY
 70
    0
  3
Border (.15x) __.__.__.__.__.__.__.__.__.__.__.
 72
   65
 73
    6
 40
6.6675
 49
1.905
 74
    0
 49
-0.9525
 74
    0
 49
1.905
 74
    0
 49
-0.9525
 74
    0
 49
0
 74
    0
 49
-0.9525
 74
    0
  0
LTYPE
  5
44
330
5
100
AcDbSymbolTableRecord
100
AcDbLinetypeTableRecord
  2
BORDER2
 70
    0
  3
Border (.5x) __.__.__.__.__.__.__.__.__.__.__.
 72
   65
 73
    6
 40
22.225
 49
6.35
 74
    0
 49
-3.175
 74
    0
 49
6.35
 74
    0
 49
-3.175
 74
    0
 49
0
 74
    0
 49
-3.175
 74
    0
  0
LTYPE
  5
45
330
5
100
AcDbSymbolTableRecord
100
AcDbLinetypeTableRecord
  2
BORDERX2
 70
    0
  3
Border (2x) ____  ____  .  ____  ____  .  ___
 72
   65
 73
    6
 40
88.89999999999999
 49
25.4
 74
    0
 49
-12.7
 74
    0
 49
25.4
 74
    0
 49
-12.7
 74
    0
 49
0
 74
    0
 49
-12.7
 74
    0
  0
LTYPE
  5
46
330
5
100
AcDbSymbolTableRecord
100
AcDbLinetypeTableRecord
  2
CENTER
 70
    0
  3
Center ____ _ ____ _ ____ _ ____ _ ____ _ ____
 72
   65
 73
    4
 40
50.8
 49
31.75
 74
    0
 49
-6.35
 74
    0
 49
6.35
 74
    0
 49
-6.35
 74
    0
  0
LTYPE
  5
47
330
5
100
AcDbSymbolTableRecord
100
AcDbLinetypeTableRecord
  2
CENTERTINY
 70
    0
  3
Center (.15x) ___ _ ___ _ ___ _ ___ _ ___ _ ___
 72
   65
 73
    4
 40
7.619999999999999
 49
4.7625
 74
    0
 49
-0.9525
 74
    0
 49
0.9525
 74
    0
 49
-0.9525
 74
    0
  0
LTYPE
  5
48
330
5
100
AcDbSymbolTableRecord
100
AcDbLinetypeTableRecord
  2
CENTER2
 70
    0
  3
Center (.5x) ___ _ ___ _ ___ _ ___ _ ___ _ ___
 72
   65
 73
    4
 40
28.575
 49
19.05
 74
    0
 49
-3.175
 74
    0
 49
3.175
 74
    0
 49
-3.175
 74
    0
  0
LTYPE
  5
49
330
5
100
AcDbSymbolTableRecord
100
AcDbLinetypeTableRecord
  2
CENTERX2
 70
    0
  3
Center (2x) ________  __  ________  __  _____
 72
   65
 73
    4
 40
101.6
 49
63.5
 74
    0
 49
-12.7
 74
    0
 49
12.7
 74
    0
 49
-12.7
 74
    0
  0
ENDTAB
  0
TABLE
  2
LAYER
  5
2
330
0
100
AcDbSymbolTable
 70
    1
  0
LAYER
  5
10
330
2
100
AcDbSymbolTableRecord
100
AcDbLayerTableRecord
  2
0
 70
    0
 62
    7
  6
CONTINUOUS
370
    0
390
F
  0
LAYER
  5
4A
330
2
100
AcDbSymbolTableRecord
100
AcDbLayerTableRecord
  2
lasercutter
 70
    0
 62
    5
  6
CONTINUOUS
370
    0
390
F
  0
LAYER
  5
4B
330
2
100
AcDbSymbolTableRecord
100
AcDbLayerTableRecord
  2
material
 70
    0
 62
    4
  6
CONTINUOUS
370
    0
390
F
  0
LAYER
  5
4C
330
2
100
AcDbSymbolTableRecord
100
AcDbLayerTableRecord
  2
vector
 70
    0
 62
    3
  6
CONTINUOUS
370
    0
390
F
  0
ENDTAB
  0
TABLE
  2
STYLE
  5
3
330
0
100
AcDbSymbolTable
 70
    3
  0
STYLE
  5
4D
330
2
100
AcDbSymbolTableRecord
100
AcDbTextStyleTableRecord
  2
Standard
 70
    0
 40
0
 41
1
 50
0
 71
    0
 42
1
  3
txt
  4

  0
ENDTAB
  0
TABLE
  2
VIEW
  5
6
330
0
100
AcDbSymbolTable
 70
    0
  0
ENDTAB
  0
TABLE
  2
UCS
  5
7
330
0
100
AcDbSymbolTable
 70
    0
  0
ENDTAB
  0
TABLE
  2
APPID
  5
9
330
0
100
AcDbSymbolTable
 70
    1
  0
APPID
  5
12
330
9
100
AcDbSymbolTableRecord
100
AcDbRegAppTableRecord
  2
ACAD
 70
    0
  0
APPID
  5
4E
330
9
100
AcDbSymbolTableRecord
100
AcDbRegAppTableRecord
  2
LibreCad
 70
    0
  0
ENDTAB
  0
TABLE
  2
DIMSTYLE
  5
A
330
0
100
AcDbSymbolTable
 70
    1
100
AcDbDimStyleTable
 71
    1
  0
DIMSTYLE
105
4F
330
A
100
AcDbSymbolTableRecord
100
AcDbDimStyleTableRecord
  2
Standard
 70
    0
 40
2.5
 41
0.1
 42
0.625
 43
0.38
 44
0.05
 45
0
 46
0
 47
0
 48
0
 49
0.04
140
0.1
141
0.09
142
0
143
25.4
144
1
145
0
146
1
147
0.625
148
0
 71
    0
 72
    0
 73
    0
 74
    1
 75
    0
 76
    0
 77
    0
 78
    1
 79
    0
170
    0
171
    2
172
    0
173
    0
174
    0
175
    0
176
    0
177
    0
178
    0
179
    2
271
    4
272
    4
273
    2
274
    2
275
    0
276
    0
277
    2
278
    0
279
    0
280
    0
281
    0
282
    0
283
    1
284
    0
285
    0
286
    0
288
    0
289
    3
340
standard
341

371
   -2
372
   -2
  0
ENDTAB
  0
TABLE
  2
BLOCK_RECORD
  5
1
330
0
100
AcDbSymbolTable
 70
    2
  0
BLOCK_RECORD
  5
1F
330
1
100
AcDbSymbolTableRecord
100
AcDbBlockTableRecord
  2
*Model_Space
 70
    0
280
    1
281
    0
  0
BLOCK_RECORD
  5
1E
330
1
100
AcDbSymbolTableRecord
100
AcDbBlockTableRecord
  2
*Paper_Space
 70
    0
280
    1
281
    0
  0
ENDTAB
  0
ENDSEC
  0
SECTION
  2
BLOCKS
  0
BLOCK
  5
20
330
1F
100
AcDbEntity
  8
0
100
AcDbBlockBegin
  2
*Model_Space
 70
    0
 10
0
 20
0
 30
0
  3
*Model_Space
  1

  0
ENDBLK
  5
21
330
1F
100
AcDbEntity
  8
0
100
AcDbBlockEnd
  0
BLOCK
  5
1C
330
1B
100
AcDbEntity
  8
0
100
AcDbBlockBegin
  2
*Paper_Space
 70
    0
 10
0
 20
0
 30
0
  3
*Paper_Space
  1

  0
ENDBLK
  5
1D
330
1F
100
AcDbEntity
  8
0
100
AcDbBlockEnd
  0
ENDSEC
  0
SECTION
  2
ENTITIES
  0
LWPOLYLINE
  5
50
100
AcDbEntity
  8
lasercutter
  6
ByLayer
 62
  256
370
   -1
100
AcDbPolyline
 90
    4
 70
    1
 43
0
 10
0
 20
0
 10
35
 20
0
 10
35
 20
23
 10
0
 20
23
  0
LWPOLYLINE
  5
51
100
AcDbEntity
  8
material
  6
ByLayer
 62
  256
370
   -1
100
AcDbPolyline
 90
    4
 70
    1
 43
0
 10
0
 20
0
 10
24
 20
0
 10
24
 20
16
 10
0
 20
16
  0
CIRCLE
  5
52
100
AcDbEntity
  8
vector
  6
ByLayer
 62
  256
370
   -1
100
AcDbCircle
 10
2.600000000000003
 20
1.299999999999998
 40
0.1285
  0
CIRCLE
  5
53
100
AcDbEntity
  8
vector
  6
ByLayer
 62
  256
370
   -1
100
AcDbCircle
 10
11.6
 20
1.299999999999998
 40
0.1285
  0
CIRCLE
  5
54
100
AcDbEntity
  8
vector
  6
ByLayer
 62
  256
370
   -1
100
AcDbCircle
 10
11.6
 20
10.3
 40
0.1285
  0
CIRCLE
  5
55
100
AcDbEntity
  8
vector
  6
ByLayer
 62
  256
370
   -1
100
AcDbCircle
 10
2.600000000000003
 20
10.3
 40
0.1285
  0
CIRCLE
  5
56
100
AcDbEntity
  8
vector
  6
ByLayer
 62
  256
370
   -1
100
AcDbCircle
 10
3.600000000000003
 20
10.3
 40
0.058
  0
CIRCLE
  5
57
100
AcDbEntity
  8
vector
  6
ByLayer
 62
  256
370
   -1
100
AcDbCircle
 10
2.600000000000003
 20
9.299999999999999
 40
0.058
  0
CIRCLE
  5
58
100
AcDbEntity
  8
vector
  6
ByLayer
 62
  256
370
   -1
100
AcDbCircle
 10
10.6
 20
10.3
 40
0.058
  0
CIRCLE
  5
59
100
AcDbEntity
  8
vector
  6
ByLayer
 62
  256
370
   -1
100
AcDbCircle
 10
11.6
 20
9.299999999999999
 40
0.058
  0
CIRCLE
  5
5A
100
AcDbEntity
  8
vector
  6
ByLayer
 62
  256
370
   -1
100
AcDbCircle
 10
2.600000000000003
 20
2.299999999999998
 40
0.058
  0
CIRCLE
  5
5B
100
AcDbEntity
  8
vector
  6
ByLayer
 62
  256
370
   -1
100
AcDbCircle
 10
3.600000000000003
 20
1.299999999999998
 40
0.058
  0
CIRCLE
  5
5C
100
AcDbEntity
  8
vector
  6
ByLayer
 62
  256
370
   -1
100
AcDbCircle
 10
10.6
 20
1.299999999999998
 40
0.058
  0
CIRCLE
  5
5D
100
AcDbEntity
  8
vector
  6
ByLayer
 62
  256
370
   -1
100
AcDbCircle
 10
11.6
 20
2.299999999999998
 40
0.058
  0
CIRCLE
  5
5E
100
AcDbEntity
  8
vector
  6
ByLayer
 62
  256
370
   -1
100
AcDbCircle
 10
10.13000000000001
 20
9.83
 40
0.058
  0
CIRCLE
  5
5F
100
AcDbEntity
  8
vector
  6
ByLayer
 62
  256
370
   -1
100
AcDbCircle
 10
11.13000000000001
 20
8.83
 40
0.058
  0
CIRCLE
  5
60
100
AcDbEntity
  8
vector
  6
ByLayer
 62
  256
370
   -1
100
AcDbCircle
 10
4.070000000000003
 20
9.83
 40
0.058
  0
CIRCLE
  5
61
100
AcDbEntity
  8
vector
  6
ByLayer
 62
  256
370
   -1
100
AcDbCircle
 10
3.070000000000002
 20
8.83
 40
0.058
  0
CIRCLE
  5
62
100
AcDbEntity
  8
vector
  6
ByLayer
 62
  256
370
   -1
100
AcDbCircle
 10
11.13000000000001
 20
2.769999999999998
 40
0.058
  0
CIRCLE
  5
63
100
AcDbEntity
  8
vector
  6
ByLayer
 62
  256
370
   -1
100
AcDbCircle
 10
10.13000000000001
 20
1.769999999999997
 40
0.058
  0
CIRCLE
  5
64
100
AcDbEntity
  8
vector
  6
ByLayer
 62
  256
370
   -1
100
AcDbCircle
 10
4.070000000000003
 20
1.769999999999997
 40
0.058
  0
CIRCLE
  5
65
100
AcDbEntity
  8
vector
  6
ByLayer
 62
  256
370
   -1
100
AcDbCircle
 10
3.070000000000002
 20
2.769999999999998
 40
0.058
  0
CIRCLE
  5
66
100
AcDbEntity
  8
vector
  6
ByLayer
 62
  256
370
   -1
100
AcDbCircle
 10
12.4
 20
1.299999999999998
 40
0.1285
  0
CIRCLE
  5
67
100
AcDbEntity
  8
vector
  6
ByLayer
 62
  256
370
   -1
100
AcDbCircle
 10
21.40000000000001
 20
1.299999999999998
 40
0.1285
  0
CIRCLE
  5
68
100
AcDbEntity
  8
vector
  6
ByLayer
 62
  256
370
   -1
100
AcDbCircle
 10
21.40000000000001
 20
10.3
 40
0.1285
  0
CIRCLE
  5
69
100
AcDbEntity
  8
vector
  6
ByLayer
 62
  256
370
   -1
100
AcDbCircle
 10
12.4
 20
10.3
 40
0.1285
  0
CIRCLE
  5
6A
100
AcDbEntity
  8
vector
  6
ByLayer
 62
  256
370
   -1
100
AcDbCircle
 10
20.40000000000001
 20
1.299999999999998
 40
0.058
  0
CIRCLE
  5
6B
100
AcDbEntity
  8
vector
  6
ByLayer
 62
  256
370
   -2
100
AcDbCircle
 10
14.4
 20
10.3
 40
0.058
  0
CIRCLE
  5
6C
100
AcDbEntity
  8
vector
  6
ByLayer
 62
  256
370
   -2
100
AcDbCircle
 10
19.40000000000001
 20
10.3
 40
0.058
  0
CIRCLE
  5
6D
100
AcDbEntity
  8
vector
  6
ByLayer
 62
  256
370
   -2
100
AcDbCircle
 10
14.4
 20
1.299999999999998
 40
0.058
  0
CIRCLE
  5
6E
100
AcDbEntity
  8
vector
  6
ByLayer
 62
  256
370
   -1
100
AcDbCircle
 10
12.4
 20
8.299999999999997
 40
0.044
  0
CIRCLE
  5
6F
100
AcDbEntity
  8
vector
  6
ByLayer
 62
  256
370
   -1
100
AcDbCircle
 10
21.40000000000001
 20
8.299999999999997
 40
0.044
  0
CIRCLE
  5
70
100
AcDbEntity
  8
vector
  6
ByLayer
 62
  256
370
   -1
100
AcDbCircle
 10
12.4
 20
3.299999999999998
 40
0.044
  0
CIRCLE
  5
71
100
AcDbEntity
  8
vector
  6
ByLayer
 62
  256
370
   -1
100
AcDbCircle
 10
21.40000000000001
 20
3.299999999999998
 40
0.044
  0
CIRCLE
  5
72
100
AcDbEntity
  8
vector
  6
ByLayer
 62
  256
370
   -1
100
AcDbCircle
 10
3.700000000000006
 20
9.200000000000001
 40
0.1285
  0
CIRCLE
  5
73
100
AcDbEntity
  8
vector
  6
ByLayer
 62
  256
370
   -1
100
AcDbCircle
 10
4.700000000000006
 20
9.200000000000001
 40
0.058
  0
CIRCLE
  5
74
100
AcDbEntity
  8
vector
  6
ByLayer
 62
  256
370
   -1
100
AcDbCircle
 10
3.700000000000006
 20
8.200000000000001
 40
0.058
  0
ARC
  5
75
100
AcDbEntity
  8
vector
  6
ByLayer
 62
  256
370
   -1
100
AcDbCircle
 10
3.700000000000006
 20
9.200000000000001
 40
0.3
100
AcDbArc
 50
90
 51
180
  0
ARC
  5
76
100
AcDbEntity
  8
vector
  6
ByLayer
 62
  256
370
   -1
100
AcDbCircle
 10
4.200000000000006
 20
8.700000000000001
 40
0.3
100
AcDbArc
 50
90
 51
179.9999999999997
  0
LINE
  5
77
100
AcDbEntity
  8
vector
  6
ByLayer
 62
  256
370
   -1
100
AcDbLine
 10
3.400000000000008
 20
4.700000000000001
 11
3.400000000000008
 21
9.200000000000001
  0
LINE
  5
78
100
AcDbEntity
  8
vector
  6
ByLayer
 62
  256
370
   -1
100
AcDbLine
 10
3.900000000000008
 20
4.700000000000001
 11
3.900000000000008
 21
8.700000000000001
  0
LINE
  5
79
100
AcDbEntity
  8
vector
  6
ByLayer
 62
  256
370
   -2
100
AcDbLine
 10
3.400000000000008
 20
4.700000000000001
 11
3.549999999996063
 21
4.700000000000001
  0
LINE
  5
7A
100
AcDbEntity
  8
vector
  6
ByLayer
 62
  256
370
   -2
100
AcDbLine
 10
3.750000000003967
 20
4.699999999999994
 11
3.900000000000008
 21
4.700000000000001
  0
ARC
  5
7B
100
AcDbEntity
  8
vector
  6
ByLayer
 62
  256
370
   -2
100
AcDbCircle
 10
3.650000000000008
 20
4.700000000000001
 40
0.1
100
AcDbArc
 50
0
 51
180
  0
LINE
  5
7C
100
AcDbEntity
  8
vector
  6
ByLayer
 62
  256
370
   -1
100
AcDbLine
 10
3.700000000000006
 20
9.500000000000002
 11
8.200000000000006
 21
9.500000000000002
  0
LINE
  5
7D
100
AcDbEntity
  8
vector
  6
ByLayer
 62
  256
370
   -1
100
AcDbLine
 10
4.200000000000006
 20
9.000000000000002
 11
8.200000000000006
 21
9.000000000000002
  0
LINE
  5
7E
100
AcDbEntity
  8
vector
  6
ByLayer
 62
  256
370
   -2
100
AcDbLine
 10
8.200000000000006
 20
9.500000000000002
 11
8.200000000000006
 21
9.350000000001168
  0
LINE
  5
7F
100
AcDbEntity
  8
vector
  6
ByLayer
 62
  256
370
   -2
100
AcDbLine
 10
8.200000000000006
 20
9.000000000000002
 11
8.200000000000006
 21
9.149999999998846
  0
ARC
  5
80
100
AcDbEntity
  8
vector
  6
ByLayer
 62
  256
370
   -2
100
AcDbCircle
 10
8.200000000000006
 20
9.250000000000002
 40
0.1
100
AcDbArc
 50
270
 51
90
  0
CIRCLE
  5
81
100
AcDbEntity
  8
vector
  6
ByLayer
 62
  256
370
   -1
100
AcDbCircle
 10
4.340000000000003
 20
8.560000000000008
 40
0.1285
  0
CIRCLE
  5
82
100
AcDbEntity
  8
vector
  6
ByLayer
 62
  256
370
   -1
100
AcDbCircle
 10
5.340000000000003
 20
8.560000000000008
 40
0.058
  0
CIRCLE
  5
83
100
AcDbEntity
  8
vector
  6
ByLayer
 62
  256
370
   -1
100
AcDbCircle
 10
4.340000000000003
 20
7.560000000000008
 40
0.058
  0
ARC
  5
84
100
AcDbEntity
  8
vector
  6
ByLayer
 62
  256
370
   -1
100
AcDbCircle
 10
4.340000000000003
 20
8.560000000000008
 40
0.3
100
AcDbArc
 50
90
 51
180
  0
ARC
  5
85
100
AcDbEntity
  8
vector
  6
ByLayer
 62
  256
370
   -1
100
AcDbCircle
 10
4.840000000000003
 20
8.060000000000008
 40
0.3
100
AcDbArc
 50
90
 51
179.9999999999997
  0
LINE
  5
86
100
AcDbEntity
  8
vector
  6
ByLayer
 62
  256
370
   -1
100
AcDbLine
 10
4.040000000000005
 20
4.060000000000008
 11
4.040000000000005
 21
8.560000000000008
  0
LINE
  5
87
100
AcDbEntity
  8
vector
  6
ByLayer
 62
  256
370
   -1
100
AcDbLine
 10
4.540000000000005
 20
4.060000000000008
 11
4.540000000000005
 21
8.060000000000011
  0
LINE
  5
88
100
AcDbEntity
  8
vector
  6
ByLayer
 62
  256
370
   -2
100
AcDbLine
 10
4.040000000000005
 20
4.060000000000008
 11
4.18999999999606
 21
4.060000000000008
  0
LINE
  5
89
100
AcDbEntity
  8
vector
  6
ByLayer
 62
  256
370
   -2
100
AcDbLine
 10
4.390000000003965
 20
4.06
 11
4.540000000000005
 21
4.060000000000008
  0
ARC
  5
8A
100
AcDbEntity
  8
vector
  6
ByLayer
 62
  256
370
   -2
100
AcDbCircle
 10
4.290000000000005
 20
4.060000000000008
 40
0.1
100
AcDbArc
 50
0
 51
180
  0
LINE
  5
8B
100
AcDbEntity
  8
vector
  6
ByLayer
 62
  256
370
   -1
100
AcDbLine
 10
4.340000000000003
 20
8.860000000000008
 11
8.840000000000003
 21
8.860000000000008
  0
LINE
  5
8C
100
AcDbEntity
  8
vector
  6
ByLayer
 62
  256
370
   -1
100
AcDbLine
 10
4.840000000000003
 20
8.360000000000008
 11
8.840000000000003
 21
8.360000000000008
  0
LINE
  5
8D
100
AcDbEntity
  8
vector
  6
ByLayer
 62
  256
370
   -2
100
AcDbLine
 10
8.840000000000003
 20
8.860000000000008
 11
8.840000000000003
 21
8.710000000001175
  0
LINE
  5
8E
100
AcDbEntity
  8
vector
  6
ByLayer
 62
  256
370
   -2
100
AcDbLine
 10
8.840000000000003
 20
8.360000000000008
 11
8.840000000000003
 21
8.509999999998852
  0
ARC
  5
8F
100
AcDbEntity
  8
vector
  6
ByLayer
 62
  256
370
   -2
100
AcDbCircle
 10
8.840000000000003
 20
8.610000000000008
 40
0.1
100
AcDbArc
 50
270
 51
90
  0
CIRCLE
  5
90
100
AcDbEntity
  8
vector
  6
ByLayer
 62
  256
370
   -1
100
AcDbCircle
 10
4.999999999999999
 20
7.900000000000011
 40
0.1285
  0
ARC
  5
91
100
AcDbEntity
  8
vector
  6
ByLayer
 62
  256
370
   -1
100
AcDbCircle
 10
4.999999999999999
 20
7.900000000000011
 40
0.3
100
AcDbArc
 50
90
 51
180
  0
ARC
  5
92
100
AcDbEntity
  8
vector
  6
ByLayer
 62
  256
370
   -1
100
AcDbCircle
 10
5.499999999999999
 20
7.400000000000011
 40
0.3
100
AcDbArc
 50
90
 51
179.9999999999997
  0
LINE
  5
93
100
AcDbEntity
  8
vector
  6
ByLayer
 62
  256
370
   -1
100
AcDbLine
 10
4.700000000000002
 20
3.400000000000011
 11
4.700000000000002
 21
7.900000000000011
  0
LINE
  5
94
100
AcDbEntity
  8
vector
  6
ByLayer
 62
  256
370
   -1
100
AcDbLine
 10
5.200000000000002
 20
3.400000000000011
 11
5.200000000000002
 21
7.400000000000011
  0
LINE
  5
95
100
AcDbEntity
  8
vector
  6
ByLayer
 62
  256
370
   -2
100
AcDbLine
 10
4.700000000000002
 20
3.400000000000011
 11
4.849999999996057
 21
3.400000000000011
  0
LINE
  5
96
100
AcDbEntity
  8
vector
  6
ByLayer
 62
  256
370
   -2
100
AcDbLine
 10
5.050000000003961
 20
3.400000000000004
 11
5.200000000000002
 21
3.400000000000011
  0
ARC
  5
97
100
AcDbEntity
  8
vector
  6
ByLayer
 62
  256
370
   -2
100
AcDbCircle
 10
4.950000000000002
 20
3.400000000000011
 40
0.1
100
AcDbArc
 50
0
 51
180
  0
LINE
  5
98
100
AcDbEntity
  8
vector
  6
ByLayer
 62
  256
370
   -1
100
AcDbLine
 10
4.999999999999999
 20
8.200000000000008
 11
9.5
 21
8.200000000000008
  0
LINE
  5
99
100
AcDbEntity
  8
vector
  6
ByLayer
 62
  256
370
   -1
100
AcDbLine
 10
5.499999999999999
 20
7.700000000000008
 11
9.5
 21
7.700000000000008
  0
LINE
  5
9A
100
AcDbEntity
  8
vector
  6
ByLayer
 62
  256
370
   -2
100
AcDbLine
 10
9.5
 20
8.200000000000008
 11
9.5
 21
8.050000000001175
  0
LINE
  5
9B
100
AcDbEntity
  8
vector
  6
ByLayer
 62
  256
370
   -2
100
AcDbLine
 10
9.5
 20
7.700000000000008
 11
9.5
 21
7.849999999998854
  0
ARC
  5
9C
100
AcDbEntity
  8
vector
  6
ByLayer
 62
  256
370
   -2
100
AcDbCircle
 10
9.5
 20
7.950000000000008
 40
0.1
100
AcDbArc
 50
270
 51
90
  0
CIRCLE
  5
9D
100
AcDbEntity
  8
vector
  6
ByLayer
 62
  256
370
   -1
100
AcDbCircle
 10
4.999999999999999
 20
6.900000000000007
 40
0.044
  0
CIRCLE
  5
9E
100
AcDbEntity
  8
vector
  6
ByLayer
 62
  256
370
   -1
100
AcDbCircle
 10
5.999999999999999
 20
7.900000000000007
 40
0.044
  0
CIRCLE
  5
9F
100
AcDbEntity
  8
vector
  6
ByLayer
 62
  256
370
   -2
100
AcDbCircle
 10
6.999999999999999
 20
7.900000000000007
 40
0.044
  0
CIRCLE
  5
A0
100
AcDbEntity
  8
vector
  6
ByLayer
 62
  256
370
   -1
100
AcDbCircle
 10
6.600000000000001
 20
7.300000000000002
 40
0.058
  0
CIRCLE
  5
A1
100
AcDbEntity
  8
vector
  6
ByLayer
 62
  256
370
   -1
100
AcDbCircle
 10
5.600000000000001
 20
6.300000000000002
 40
0.058
  0
ARC
  5
A2
100
AcDbEntity
  8
vector
  6
ByLayer
 62
  256
370
   -1
100
AcDbCircle
 10
5.699999999999995
 20
7.200000000000001
 40
0.3
100
AcDbArc
 50
90
 51
180
  0
ARC
  5
A3
100
AcDbEntity
  8
vector
  6
ByLayer
 62
  256
370
   -1
100
AcDbCircle
 10
6.100000000000001
 20
6.800000000000002
 40
0.3
100
AcDbArc
 50
90
 51
180
  0
LINE
  5
A4
100
AcDbEntity
  8
vector
  6
ByLayer
 62
  256
370
   -1
100
AcDbLine
 10
5.399999999999998
 20
3.270000000000002
 11
5.399999999999998
 21
7.200000000000001
  0
LINE
  5
A5
100
AcDbEntity
  8
vector
  6
ByLayer
 62
  256
370
   -1
100
AcDbLine
 10
5.800000000000003
 20
3.270000000000002
 11
5.800000000000003
 21
6.800000000000002
  0
LINE
  5
A6
100
AcDbEntity
  8
vector
  6
ByLayer
 62
  256
370
   -1
100
AcDbLine
 10
6.100000000000001
 20
7.1
 11
9.630000000000003
 21
7.1
  0
LINE
  5
A7
100
AcDbEntity
  8
vector
  6
ByLayer
 62
  256
370
   -1
100
AcDbLine
 10
5.699999999999995
 20
7.500000000000004
 11
9.630000000000003
 21
7.500000000000004
  0
LINE
  5
A8
100
AcDbEntity
  8
vector
  6
ByLayer
 62
  256
370
   -2
100
AcDbLine
 10
5.399999999999998
 20
3.270000000000002
 11
5.510000000000864
 21
3.270000000000002
  0
LINE
  5
A9
100
AcDbEntity
  8
vector
  6
ByLayer
 62
  256
370
   -2
100
AcDbLine
 10
5.689999999999123
 20
3.270000000000002
 11
5.800000000000003
 21
3.270000000000002
  0
ARC
  5
AA
100
AcDbEntity
  8
vector
  6
ByLayer
 62
  256
370
   -2
100
AcDbCircle
 10
5.600000000000001
 20
3.270000000000002
 40
0.09
100
AcDbArc
 50
0
 51
180
  0
LINE
  5
AB
100
AcDbEntity
  8
vector
  6
ByLayer
 62
  256
370
   -2
100
AcDbLine
 10
9.630000000000003
 20
7.1
 11
9.630000000000003
 21
7.210000000008511
  0
LINE
  5
AC
100
AcDbEntity
  8
vector
  6
ByLayer
 62
  256
370
   -2
100
AcDbLine
 10
9.630000000000003
 20
7.500000000000004
 11
9.630000000000003
 21
7.389999999991479
  0
ARC
  5
AD
100
AcDbEntity
  8
vector
  6
ByLayer
 62
  256
370
   -2
100
AcDbCircle
 10
9.630000000000003
 20
7.300000000000002
 40
0.09
100
AcDbArc
 50
270
 51
90
  0
ARC
  5
AE
100
AcDbEntity
  8
vector
  6
ByLayer
 62
  256
370
   -1
100
AcDbCircle
 10
6.300000000000018
 20
6.6
 40
0.3
100
AcDbArc
 50
90
 51
180
  0
ARC
  5
AF
100
AcDbEntity
  8
vector
  6
ByLayer
 62
  256
370
   -1
100
AcDbCircle
 10
6.700000000000023
 20
6.200000000000001
 40
0.3
100
AcDbArc
 50
90
 51
180
  0
LINE
  5
B0
100
AcDbEntity
  8
vector
  6
ByLayer
 62
  256
370
   -1
100
AcDbLine
 10
6.00000000000002
 20
2.67
 11
6.00000000000002
 21
6.6
  0
LINE
  5
B1
100
AcDbEntity
  8
vector
  6
ByLayer
 62
  256
370
   -1
100
AcDbLine
 10
6.400000000000026
 20
2.67
 11
6.400000000000026
 21
6.200000000000001
  0
LINE
  5
B2
100
AcDbEntity
  8
vector
  6
ByLayer
 62
  256
370
   -1
100
AcDbLine
 10
6.700000000000023
 20
6.499999999999998
 11
10.23000000000003
 21
6.499999999999998
  0
LINE
  5
B3
100
AcDbEntity
  8
vector
  6
ByLayer
 62
  256
370
   -1
100
AcDbLine
 10
6.300000000000018
 20
6.9
 11
10.23000000000003
 21
6.9
  0
LINE
  5
B4
100
AcDbEntity
  8
vector
  6
ByLayer
 62
  256
370
   -2
100
AcDbLine
 10
6.00000000000002
 20
2.67
 11
6.110000000000887
 21
2.67
  0
LINE
  5
B5
100
AcDbEntity
  8
vector
  6
ByLayer
 62
  256
370
   -2
100
AcDbLine
 10
6.289999999999146
 20
2.67
 11
6.400000000000026
 21
2.67
  0
ARC
  5
B6
100
AcDbEntity
  8
vector
  6
ByLayer
 62
  256
370
   -2
100
AcDbCircle
 10
6.200000000000023
 20
2.67
 40
0.09
100
AcDbArc
 50
0
 51
180
  0
LINE
  5
B7
100
AcDbEntity
  8
vector
  6
ByLayer
 62
  256
370
   -2
100
AcDbLine
 10
10.23000000000003
 20
6.499999999999998
 11
10.23000000000003
 21
6.61000000000851
  0
LINE
  5
B8
100
AcDbEntity
  8
vector
  6
ByLayer
 62
  256
370
   -2
100
AcDbLine
 10
10.23000000000003
 20
6.9
 11
10.23000000000003
 21
6.789999999991478
  0
ARC
  5
B9
100
AcDbEntity
  8
vector
  6
ByLayer
 62
  256
370
   -2
100
AcDbCircle
 10
10.23000000000003
 20
6.700000000000001
 40
0.09
100
AcDbArc
 50
270
 51
90
  0
CIRCLE
  5
BA
100
AcDbEntity
  8
vector
  6
ByLayer
 62
  256
370
   -1
100
AcDbCircle
 10
6.200000000000009
 20
5.700000000000001
 40
0.044
  0
CIRCLE
  5
BB
100
AcDbEntity
  8
vector
  6
ByLayer
 62
  256
370
   -1
100
AcDbCircle
 10
7.200000000000009
 20
6.700000000000001
 40
0.044
  0
CIRCLE
  5
BC
100
AcDbEntity
  8
vector
  6
ByLayer
 62
  256
370
   -1
100
AcDbCircle
 10
6.700000000000004
 20
5.199999999999999
 40
0.058
  0
CIRCLE
  5
BD
100
AcDbEntity
  8
vector
  6
ByLayer
 62
  256
370
   -1
100
AcDbCircle
 10
7.700000000000005
 20
6.199999999999999
 40
0.058
  0
LINE
  5
BE
100
AcDbEntity
  8
vector
  6
ByLayer
 62
  256
370
   -2
100
AcDbLine
 10
6.900000000000007
 20
2.169999999999999
 11
6.789999999991494
 21
2.169999999999999
  0
LINE
  5
BF
100
AcDbEntity
  8
vector
  6
ByLayer
 62
  256
370
   -2
100
AcDbLine
 10
6.500000000000002
 20
2.169999999999999
 11
6.610000000008526
 21
2.169999999999999
  0
ARC
  5
C0
100
AcDbEntity
  8
vector
  6
ByLayer
 62
  256
370
   -2
100
AcDbCircle
 10
6.700000000000004
 20
2.169999999999999
 40
0.09
100
AcDbArc
 50
360
 51
180
  0
ARC
  5
C1
100
AcDbEntity
  8
vector
  6
ByLayer
 62
  256
370
   -1
100
AcDbCircle
 10
6.800000000000005
 20
6.100000000000005
 40
0.3
100
AcDbArc
 50
90
 51
180
  0
ARC
  5
C2
100
AcDbEntity
  8
vector
  6
ByLayer
 62
  256
370
   -1
100
AcDbCircle
 10
7.200000000000004
 20
5.699999999999999
 40
0.3
100
AcDbArc
 50
90
 51
180
  0
LINE
  5
C3
100
AcDbEntity
  8
vector
  6
ByLayer
 62
  256
370
   -1
100
AcDbLine
 10
7.200000000000004
 20
5.999999999999996
 11
10.73000000000001
 21
5.999999999999996
  0
LINE
  5
C4
100
AcDbEntity
  8
vector
  6
ByLayer
 62
  256
370
   -1
100
AcDbLine
 10
6.800000000000005
 20
6.400000000000002
 11
10.73000000000001
 21
6.400000000000002
  0
LINE
  5
C5
100
AcDbEntity
  8
vector
  6
ByLayer
 62
  256
370
   -1
100
AcDbLine
 10
6.900000000000007
 20
2.169999999999999
 11
6.900000000000007
 21
5.699999999999999
  0
LINE
  5
C6
100
AcDbEntity
  8
vector
  6
ByLayer
 62
  256
370
   -1
100
AcDbLine
 10
6.500000000000002
 20
2.169999999999999
 11
6.500000000000002
 21
6.100000000000005
  0
LINE
  5
C7
100
AcDbEntity
  8
vector
  6
ByLayer
 62
  256
370
   -2
100
AcDbLine
 10
10.73000000000001
 20
5.999999999999996
 11
10.73000000000001
 21
6.110000000008394
  0
LINE
  5
C8
100
AcDbEntity
  8
vector
  6
ByLayer
 62
  256
370
   -2
100
AcDbLine
 10
10.73000000000001
 20
6.28999999999159
 11
10.73000000000001
 21
6.400000000000002
  0
ARC
  5
C9
100
AcDbEntity
  8
vector
  6
ByLayer
 62
  256
370
   -2
100
AcDbCircle
 10
10.73000000000001
 20
6.199999999999999
 40
0.09
100
AcDbArc
 50
270
 51
90.00000000000453
  0
CIRCLE
  5
CA
100
AcDbEntity
  8
vector
  6
ByLayer
 62
  256
370
   -1
100
AcDbCircle
 10
13.4
 20
8.290000000000004
 40
0.058
  0
CIRCLE
  5
CB
100
AcDbEntity
  8
vector
  6
ByLayer
 62
  256
370
   -1
100
AcDbCircle
 10
14.4
 20
9.290000000000004
 40
0.058
  0
LINE
  5
CC
100
AcDbEntity
  8
vector
  6
ByLayer
 62
  256
370
   -2
100
AcDbLine
 10
17.43
 20
9.490000000000007
 11
17.43
 21
9.379999999999141
  0
LINE
  5
CD
100
AcDbEntity
  8
vector
  6
ByLayer
 62
  256
370
   -2
100
AcDbLine
 10
17.43
 20
9.200000000000882
 11
17.43
 21
9.090000000000002
  0
ARC
  5
CE
100
AcDbEntity
  8
vector
  6
ByLayer
 62
  256
370
   -2
100
AcDbCircle
 10
17.43
 20
9.290000000000004
 40
0.09
100
AcDbArc
 50
270
 51
90
  0
ARC
  5
CF
100
AcDbEntity
  8
vector
  6
ByLayer
 62
  256
370
   -1
100
AcDbCircle
 10
13.5
 20
9.19000000000001
 40
0.3
100
AcDbArc
 50
90
 51
180.0000000000001
  0
ARC
  5
D0
100
AcDbEntity
  8
vector
  6
ByLayer
 62
  256
370
   -1
100
AcDbCircle
 10
13.9
 20
8.790000000000004
 40
0.3
100
AcDbArc
 50
90
 51
179.9999999999999
  0
LINE
  5
D1
100
AcDbEntity
  8
vector
  6
ByLayer
 62
  256
370
   -1
100
AcDbLine
 10
13.5
 20
9.490000000000007
 11
17.43
 21
9.490000000000007
  0
LINE
  5
D2
100
AcDbEntity
  8
vector
  6
ByLayer
 62
  256
370
   -1
100
AcDbLine
 10
13.9
 20
9.090000000000002
 11
17.43
 21
9.090000000000002
  0
LINE
  5
D3
100
AcDbEntity
  8
vector
  6
ByLayer
 62
  256
370
   -1
100
AcDbLine
 10
13.6
 20
5.260000000000003
 11
13.6
 21
8.790000000000004
  0
LINE
  5
D4
100
AcDbEntity
  8
vector
  6
ByLayer
 62
  256
370
   -1
100
AcDbLine
 10
13.2
 20
5.259999999999989
 11
13.2
 21
9.19000000000001
  0
LINE
  5
D5
100
AcDbEntity
  8
vector
  6
ByLayer
 62
  256
370
   -2
100
AcDbLine
 10
13.6
 20
5.260000000000003
 11
13.49000000001262
 21
5.259999999999989
  0
LINE
  5
D6
100
AcDbEntity
  8
vector
  6
ByLayer
 62
  256
370
   -2
100
AcDbLine
 10
13.3099999999874
 20
5.259999999999989
 11
13.2
 21
5.259999999999989
  0
ARC
  5
D7
100
AcDbEntity
  8
vector
  6
ByLayer
 62
  256
370
   -2
100
AcDbCircle
 10
13.4
 20
5.260000000000003
 40
0.09
100
AcDbArc
 50
9.032775295356387e-12
 51
180.000000000009
  0
LINE
  5
D8
100
AcDbEntity
  8
vector
  6
ByLayer
 62
  256
370
   -2
100
AcDbLine
 10
14.14
 20
4.730000000000016
 11
14.02999999999149
 21
4.730000000000016
  0
LINE
  5
D9
100
AcDbEntity
  8
vector
  6
ByLayer
 62
  256
370
   -2
100
AcDbLine
 10
13.74
 20
4.730000000000016
 11
13.85000000000852
 21
4.730000000000016
  0
ARC
  5
DA
100
AcDbEntity
  8
vector
  6
ByLayer
 62
  256
370
   -2
100
AcDbCircle
 10
13.94
 20
4.730000000000016
 40
0.09
100
AcDbArc
 50
360
 51
180
  0
ARC
  5
DB
100
AcDbEntity
  8
vector
  6
ByLayer
 62
  256
370
   -1
100
AcDbCircle
 10
14.03999999999999
 20
8.660000000000023
 40
0.3
100
AcDbArc
 50
90
 51
180
  0
ARC
  5
DC
100
AcDbEntity
  8
vector
  6
ByLayer
 62
  256
370
   -1
100
AcDbCircle
 10
14.44
 20
8.260000000000018
 40
0.3
100
AcDbArc
 50
90
 51
180
  0
LINE
  5
DD
100
AcDbEntity
  8
vector
  6
ByLayer
 62
  256
370
   -1
100
AcDbLine
 10
14.44
 20
8.560000000000015
 11
17.97000000000001
 21
8.560000000000015
  0
LINE
  5
DE
100
AcDbEntity
  8
vector
  6
ByLayer
 62
  256
370
   -1
100
AcDbLine
 10
14.04000000000002
 20
8.96000000000002
 11
17.97000000000001
 21
8.96000000000002
  0
LINE
  5
DF
100
AcDbEntity
  8
vector
  6
ByLayer
 62
  256
370
   -1
100
AcDbLine
 10
14.14
 20
4.730000000000016
 11
14.14
 21
8.260000000000018
  0
LINE
  5
E0
100
AcDbEntity
  8
vector
  6
ByLayer
 62
  256
370
   -1
100
AcDbLine
 10
13.74
 20
4.730000000000016
 11
13.74
 21
8.660000000000023
  0
LINE
  5
E1
100
AcDbEntity
  8
vector
  6
ByLayer
 62
  256
370
   -2
100
AcDbLine
 10
17.97000000000001
 20
8.560000000000015
 11
17.97000000000001
 21
8.670000000008413
  0
LINE
  5
E2
100
AcDbEntity
  8
vector
  6
ByLayer
 62
  256
370
   -2
100
AcDbLine
 10
17.97000000000001
 20
8.849999999991608
 11
17.97000000000001
 21
8.96000000000002
  0
ARC
  5
E3
100
AcDbEntity
  8
vector
  6
ByLayer
 62
  256
370
   -2
100
AcDbCircle
 10
17.97000000000001
 20
8.760000000000018
 40
0.09
100
AcDbArc
 50
270
 51
90.00000000000453
  0
CIRCLE
  5
E4
100
AcDbEntity
  8
vector
  6
ByLayer
 62
  256
370
   -1
100
AcDbCircle
 10
13.94
 20
7.760000000000003
 40
0.044
  0
CIRCLE
  5
E5
100
AcDbEntity
  8
vector
  6
ByLayer
 62
  256
370
   -1
100
AcDbCircle
 10
14.94
 20
8.760000000000003
 40
0.044
  0
LINE
  5
E6
100
AcDbEntity
  8
vector
  6
ByLayer
 62
  256
370
   -2
100
AcDbLine
 10
18.52999999999999
 20
8.399999999999988
 11
18.52999999999999
 21
8.289999999999123
  0
LINE
  5
E7
100
AcDbEntity
  8
vector
  6
ByLayer
 62
  256
370
   -2
100
AcDbLine
 10
18.52999999999999
 20
8.110000000000865
 11
18.52999999999999
 21
7.999999999999984
  0
ARC
  5
E8
100
AcDbEntity
  8
vector
  6
ByLayer
 62
  256
370
   -2
100
AcDbCircle
 10
18.52999999999999
 20
8.199999999999987
 40
0.09
100
AcDbArc
 50
270
 51
90
  0
ARC
  5
E9
100
AcDbEntity
  8
vector
  6
ByLayer
 62
  256
370
   -1
100
AcDbCircle
 10
14.6
 20
8.099999999999993
 40
0.3
100
AcDbArc
 50
90
 51
180.0000000000001
  0
ARC
  5
EA
100
AcDbEntity
  8
vector
  6
ByLayer
 62
  256
370
   -1
100
AcDbCircle
 10
15
 20
7.699999999999987
 40
0.3
100
AcDbArc
 50
90
 51
179.9999999999999
  0
LINE
  5
EB
100
AcDbEntity
  8
vector
  6
ByLayer
 62
  256
370
   -1
100
AcDbLine
 10
14.6
 20
8.399999999999988
 11
18.52999999999999
 21
8.399999999999988
  0
LINE
  5
EC
100
AcDbEntity
  8
vector
  6
ByLayer
 62
  256
370
   -1
100
AcDbLine
 10
15
 20
7.999999999999984
 11
18.52999999999999
 21
7.999999999999984
  0
LINE
  5
ED
100
AcDbEntity
  8
vector
  6
ByLayer
 62
  256
370
   -1
100
AcDbLine
 10
14.69999999999999
 20
4.169999999999986
 11
14.69999999999999
 21
7.699999999999987
  0
LINE
  5
EE
100
AcDbEntity
  8
vector
  6
ByLayer
 62
  256
370
   -1
100
AcDbLine
 10
14.29999999999999
 20
4.169999999999972
 11
14.29999999999999
 21
8.099999999999993
  0
CIRCLE
  5
EF
100
AcDbEntity
  8
vector
  6
ByLayer
 62
  256
370
   -1
100
AcDbCircle
 10
14.5
 20
7.200000000000001
 40
0.044
  0
CIRCLE
  5
F0
100
AcDbEntity
  8
vector
  6
ByLayer
 62
  256
370
   -1
100
AcDbCircle
 10
15.49999999999999
 20
8.200000000000001
 40
0.044
  0
LINE
  5
F1
100
AcDbEntity
  8
vector
  6
ByLayer
 62
  256
370
   -2
100
AcDbLine
 10
14.69999999999999
 20
4.169999999999986
 11
14.59000000001261
 21
4.169999999999972
  0
LINE
  5
F2
100
AcDbEntity
  8
vector
  6
ByLayer
 62
  256
370
   -2
100
AcDbLine
 10
14.4099999999874
 20
4.169999999999972
 11
14.29999999999999
 21
4.169999999999972
  0
ARC
  5
F3
100
AcDbEntity
  8
vector
  6
ByLayer
 62
  256
370
   -2
100
AcDbCircle
 10
14.5
 20
4.169999999999986
 40
0.09
100
AcDbArc
 50
9.032775295356387e-12
 51
180.000000000009
  0
CIRCLE
  5
F4
100
AcDbEntity
  8
vector
  6
ByLayer
 62
  256
370
   -1
100
AcDbCircle
 10
15.1
 20
6.6
 40
0.058
  0
CIRCLE
  5
F5
100
AcDbEntity
  8
vector
  6
ByLayer
 62
  256
370
   -1
100
AcDbCircle
 10
16.1
 20
7.6
 40
0.058
  0
LINE
  5
F6
100
AcDbEntity
  8
vector
  6
ByLayer
 62
  256
370
   -2
100
AcDbLine
 10
15.30000000000001
 20
3.570000000000006
 11
15.18999999999162
 21
3.570000000000006
  0
LINE
  5
F7
100
AcDbEntity
  8
vector
  6
ByLayer
 62
  256
370
   -2
100
AcDbLine
 10
15.01000000000841
 20
3.569999999999999
 11
14.9
 21
3.570000000000006
  0
LINE
  5
F8
100
AcDbEntity
  8
vector
  6
ByLayer
 62
  256
370
   -2
100
AcDbLine
 10
19.13000000000001
 20
7.400000000000004
 11
19.13
 21
7.509999999987384
  0
LINE
  5
F9
100
AcDbEntity
  8
vector
  6
ByLayer
 62
  256
370
   -2
100
AcDbLine
 10
19.13
 20
7.690000000012601
 11
19.13
 21
7.800000000000002
  0
ARC
  5
FA
100
AcDbEntity
  8
vector
  6
ByLayer
 62
  256
370
   -2
100
AcDbCircle
 10
15.1
 20
3.570000000000006
 40
0.09
100
AcDbArc
 50
360
 51
180.0000000000045
  0
ARC
  5
FB
100
AcDbEntity
  8
vector
  6
ByLayer
 62
  256
370
   -2
100
AcDbCircle
 10
19.13000000000001
 20
7.6
 40
0.09
100
AcDbArc
 50
270.000000000009
 51
90.00000000000901
  0
ARC
  5
FC
100
AcDbEntity
  8
vector
  6
ByLayer
 62
  256
370
   -1
100
AcDbCircle
 10
15.6
 20
7.1
 40
0.3
100
AcDbArc
 50
90
 51
180.0000000000003
  0
LINE
  5
FD
100
AcDbEntity
  8
vector
  6
ByLayer
 62
  256
370
   -1
100
AcDbLine
 10
15.30000000000001
 20
3.570000000000006
 11
15.30000000000001
 21
7.1
  0
LINE
  5
FE
100
AcDbEntity
  8
vector
  6
ByLayer
 62
  256
370
   -1
100
AcDbLine
 10
14.9
 20
3.570000000000006
 11
14.9
 21
7.800000000000002
  0
LINE
  5
FF
100
AcDbEntity
  8
vector
  6
ByLayer
 62
  256
370
   -1
100
AcDbLine
 10
15.6
 20
7.400000000000004
 11
19.13000000000001
 21
7.400000000000004
  0
LINE
  5
100
100
AcDbEntity
  8
vector
  6
ByLayer
 62
  256
370
   -1
100
AcDbLine
 10
14.9
 20
7.800000000000002
 11
19.13
 21
7.800000000000002
  0
LINE
  5
101
100
AcDbEntity
  8
vector
  6
ByLayer
 62
  256
370
   -2
100
AcDbLine
 10
15.90000000000001
 20
2.970000000000005
 11
15.78999999999161
 21
2.970000000000005
  0
LINE
  5
102
100
AcDbEntity
  8
vector
  6
ByLayer
 62
  256
370
   -2
100
AcDbLine
 10
15.61000000000843
 20
2.969999999999998
 11
15.5
 21
2.970000000000005
  0
LINE
  5
103
100
AcDbEntity
  8
vector
  6
ByLayer
 62
  256
370
   -2
100
AcDbLine
 10
19.73000000000001
 20
6.800000000000002
 11
19.72999999999999
 21
6.909999999987381
  0
LINE
  5
104
100
AcDbEntity
  8
vector
  6
ByLayer
 62
  256
370
   -2
100
AcDbLine
 10
19.72999999999999
 20
7.0900000000126
 11
19.72999999999999
 21
7.200000000000001
  0
ARC
  5
105
100
AcDbEntity
  8
vector
  6
ByLayer
 62
  256
370
   -2
100
AcDbCircle
 10
15.70000000000001
 20
2.970000000000005
 40
0.09
100
AcDbArc
 50
360
 51
180.0000000000045
  0
ARC
  5
106
100
AcDbEntity
  8
vector
  6
ByLayer
 62
  256
370
   -2
100
AcDbCircle
 10
19.73000000000001
 20
6.999999999999998
 40
0.09
100
AcDbArc
 50
270.000000000009
 51
90.00000000000901
  0
ARC
  5
107
100
AcDbEntity
  8
vector
  6
ByLayer
 62
  256
370
   -1
100
AcDbCircle
 10
16.20000000000001
 20
6.499999999999998
 40
0.3
100
AcDbArc
 50
90
 51
180.0000000000003
  0
LINE
  5
108
100
AcDbEntity
  8
vector
  6
ByLayer
 62
  256
370
   -1
100
AcDbLine
 10
15.90000000000001
 20
2.970000000000005
 11
15.90000000000001
 21
6.499999999999998
  0
LINE
  5
109
100
AcDbEntity
  8
vector
  6
ByLayer
 62
  256
370
   -1
100
AcDbLine
 10
15.5
 20
2.970000000000005
 11
15.5
 21
7.200000000000001
  0
LINE
  5
10A
100
AcDbEntity
  8
vector
  6
ByLayer
 62
  256
370
   -1
100
AcDbLine
 10
16.20000000000001
 20
6.800000000000002
 11
19.73000000000001
 21
6.800000000000002
  0
LINE
  5
10B
100
AcDbEntity
  8
vector
  6
ByLayer
 62
  256
370
   -1
100
AcDbLine
 10
15.5
 20
7.200000000000001
 11
19.72999999999999
 21
7.200000000000001
  0
CIRCLE
  5
10C
100
AcDbEntity
  8
vector
  6
ByLayer
 62
  256
370
   -1
100
AcDbCircle
 10
15.70000000000002
 20
5.999999999999998
 40
0.044
  0
CIRCLE
  5
10D
100
AcDbEntity
  8
vector
  6
ByLayer
 62
  256
370
   -1
100
AcDbCircle
 10
16.70000000000002
 20
6.999999999999998
 40
0.044
  0
CIRCLE
  5
10E
100
AcDbEntity
  8
vector
  6
ByLayer
 62
  256
370
   -1
100
AcDbCircle
 10
23.29999999999999
 20
3.200000000000016
 40
0.1285
  0
CIRCLE
  5
10F
100
AcDbEntity
  8
vector
  6
ByLayer
 62
  256
370
   -1
100
AcDbCircle
 10
23.29999999999999
 20
12.20000000000002
 40
0.1285
  0
LINE
  5
110
100
AcDbEntity
  8
vector
  6
ByLayer
 62
  256
370
   -1
100
AcDbLine
 10
23.1
 20
3.400000000000019
 11
23.1
 21
2.900000000000019
  0
ARC
  5
111
100
AcDbEntity
  8
vector
  6
ByLayer
 62
  256
370
   -1
100
AcDbCircle
 10
23.29999999999999
 20
12.20000000000002
 40
0.3
100
AcDbArc
 50
360
 51
90
  0
LINE
  5
112
100
AcDbEntity
  8
vector
  6
ByLayer
 62
  256
370
   -1
100
AcDbLine
 10
23.6
 20
12.20000000000002
 11
23.6
 21
3.200000000000016
  0
ARC
  5
113
100
AcDbEntity
  8
vector
  6
ByLayer
 62
  256
370
   -1
100
AcDbCircle
 10
23.29999999999999
 20
3.200000000000016
 40
0.3
100
AcDbArc
 50
270
 51
360
  0
ARC
  5
114
100
AcDbEntity
  8
vector
  6
ByLayer
 62
  256
370
   -1
100
AcDbCircle
 10
22.79999999999999
 20
11.70000000000002
 40
0.3
100
AcDbArc
 50
360
 51
90
  0
LINE
  5
115
100
AcDbEntity
  8
vector
  6
ByLayer
 62
  256
370
   -1
100
AcDbLine
 10
23.1
 20
11.70000000000002
 11
23.1
 21
3.400000000000019
  0
LINE
  5
116
100
AcDbEntity
  8
vector
  6
ByLayer
 62
  256
370
   -1
100
AcDbLine
 10
23.29999999999999
 20
2.900000000000019
 11
23.1
 21
2.900000000000019
  0
LINE
  5
117
100
AcDbEntity
  8
vector
  6
ByLayer
 62
  256
370
   -2
100
AcDbLine
 10
18.79999999999999
 20
12.50000000000001
 11
18.79999999999999
 21
12.35000000000119
  0
LINE
  5
118
100
AcDbEntity
  8
vector
  6
ByLayer
 62
  256
370
   -2
100
AcDbLine
 10
18.79999999999999
 20
12.00000000000001
 11
18.79999999999999
 21
12.14999999999887
  0
ARC
  5
119
100
AcDbEntity
  8
vector
  6
ByLayer
 62
  256
370
   -2
100
AcDbCircle
 10
18.79999999999999
 20
12.25000000000001
 40
0.1
100
AcDbArc
 50
270
 51
90
  0
LINE
  5
11A
100
AcDbEntity
  8
vector
  6
ByLayer
 62
  256
370
   -1
100
AcDbLine
 10
18.79999999999999
 20
12.50000000000001
 11
23.29999999999999
 21
12.50000000000001
  0
LINE
  5
11B
100
AcDbEntity
  8
vector
  6
ByLayer
 62
  256
370
   -1
100
AcDbLine
 10
18.79999999999999
 20
12.00000000000001
 11
22.79999999999999
 21
12.00000000000001
  0
CIRCLE
  5
11C
100
AcDbEntity
  8
vector
  6
ByLayer
 62
  256
370
   -2
100
AcDbCircle
 10
21.3
 20
12.20000000000002
 40
0.044
  0
CIRCLE
  5
11D
100
AcDbEntity
  8
vector
  6
ByLayer
 62
  256
370
   -1
100
AcDbCircle
 10
22.3
 20
12.20000000000002
 40
0.044
  0
CIRCLE
  5
11E
100
AcDbEntity
  8
vector
  6
ByLayer
 62
  256
370
   -1
100
AcDbCircle
 10
23.3
 20
11.20000000000002
 40
0.044
  0
CIRCLE
  5
11F
100
AcDbEntity
  8
vector
  6
ByLayer
 62
  256
370
   -1
100
AcDbCircle
 10
23.3
 20
4.200000000000015
 40
0.044
  0
CIRCLE
  5
120
100
AcDbEntity
  8
vector
  6
ByLayer
 62
  256
370
   -1
100
AcDbCircle
 10
22.69999999999999
 20
2.600000000000007
 40
0.1285
  0
CIRCLE
  5
121
100
AcDbEntity
  8
vector
  6
ByLayer
 62
  256
370
   -1
100
AcDbCircle
 10
22.69999999999999
 20
11.60000000000001
 40
0.1285
  0
CIRCLE
  5
122
100
AcDbEntity
  8
vector
  6
ByLayer
 62
  256
370
   -1
100
AcDbCircle
 10
21.7
 20
11.60000000000001
 40
0.058
  0
CIRCLE
  5
123
100
AcDbEntity
  8
vector
  6
ByLayer
 62
  256
370
   -1
100
AcDbCircle
 10
22.69999999999999
 20
10.60000000000001
 40
0.058
  0
CIRCLE
  5
124
100
AcDbEntity
  8
vector
  6
ByLayer
 62
  256
370
   -1
100
AcDbCircle
 10
22.69999999999999
 20
3.600000000000007
 40
0.058
  0
LINE
  5
125
100
AcDbEntity
  8
vector
  6
ByLayer
 62
  256
370
   -1
100
AcDbLine
 10
22.49999999999999
 20
2.80000000000001
 11
22.49999999999999
 21
2.30000000000001
  0
ARC
  5
126
100
AcDbEntity
  8
vector
  6
ByLayer
 62
  256
370
   -1
100
AcDbCircle
 10
22.69999999999999
 20
11.60000000000001
 40
0.3
100
AcDbArc
 50
360
 51
90
  0
LINE
  5
127
100
AcDbEntity
  8
vector
  6
ByLayer
 62
  256
370
   -1
100
AcDbLine
 10
22.99999999999999
 20
11.60000000000001
 11
22.99999999999999
 21
2.600000000000007
  0
ARC
  5
128
100
AcDbEntity
  8
vector
  6
ByLayer
 62
  256
370
   -1
100
AcDbCircle
 10
22.69999999999999
 20
2.600000000000007
 40
0.3
100
AcDbArc
 50
270
 51
360
  0
ARC
  5
129
100
AcDbEntity
  8
vector
  6
ByLayer
 62
  256
370
   -1
100
AcDbCircle
 10
22.2
 20
11.10000000000001
 40
0.3
100
AcDbArc
 50
360
 51
90
  0
LINE
  5
12A
100
AcDbEntity
  8
vector
  6
ByLayer
 62
  256
370
   -1
100
AcDbLine
 10
22.49999999999999
 20
11.10000000000001
 11
22.49999999999999
 21
2.80000000000001
  0
LINE
  5
12B
100
AcDbEntity
  8
vector
  6
ByLayer
 62
  256
370
   -1
100
AcDbLine
 10
22.69999999999999
 20
2.30000000000001
 11
22.49999999999999
 21
2.30000000000001
  0
LINE
  5
12C
100
AcDbEntity
  8
vector
  6
ByLayer
 62
  256
370
   -2
100
AcDbLine
 10
18.2
 20
11.90000000000001
 11
18.2
 21
11.75000000000118
  0
LINE
  5
12D
100
AcDbEntity
  8
vector
  6
ByLayer
 62
  256
370
   -2
100
AcDbLine
 10
18.2
 20
11.40000000000001
 11
18.2
 21
11.54999999999886
  0
ARC
  5
12E
100
AcDbEntity
  8
vector
  6
ByLayer
 62
  256
370
   -2
100
AcDbCircle
 10
18.2
 20
11.65000000000001
 40
0.1
100
AcDbArc
 50
270
 51
90
  0
LINE
  5
12F
100
AcDbEntity
  8
vector
  6
ByLayer
 62
  256
370
   -1
100
AcDbLine
 10
18.2
 20
11.90000000000001
 11
22.69999999999999
 21
11.90000000000001
  0
LINE
  5
130
100
AcDbEntity
  8
vector
  6
ByLayer
 62
  256
370
   -1
100
AcDbLine
 10
18.2
 20
11.40000000000001
 11
22.2
 21
11.40000000000001
  0
CIRCLE
  5
131
100
AcDbEntity
  8
vector
  6
ByLayer
 62
  256
370
   -1
100
AcDbCircle
 10
22.1
 20
2.000000000000013
 40
0.1285
  0
CIRCLE
  5
132
100
AcDbEntity
  8
vector
  6
ByLayer
 62
  256
370
   -1
100
AcDbCircle
 10
22.1
 20
11.00000000000001
 40
0.1285
  0
CIRCLE
  5
133
100
AcDbEntity
  8
vector
  6
ByLayer
 62
  256
370
   -1
100
AcDbCircle
 10
21.1
 20
11.00000000000001
 40
0.058
  0
CIRCLE
  5
134
100
AcDbEntity
  8
vector
  6
ByLayer
 62
  256
370
   -1
100
AcDbCircle
 10
22.1
 20
10.00000000000001
 40
0.058
  0
CIRCLE
  5
135
100
AcDbEntity
  8
vector
  6
ByLayer
 62
  256
370
   -1
100
AcDbCircle
 10
22.1
 20
3.000000000000013
 40
0.058
  0
LINE
  5
136
100
AcDbEntity
  8
vector
  6
ByLayer
 62
  256
370
   -1
100
AcDbLine
 10
21.9
 20
2.200000000000016
 11
21.9
 21
1.700000000000016
  0
ARC
  5
137
100
AcDbEntity
  8
vector
  6
ByLayer
 62
  256
370
   -1
100
AcDbCircle
 10
22.1
 20
11.00000000000001
 40
0.3
100
AcDbArc
 50
360
 51
90
  0
LINE
  5
138
100
AcDbEntity
  8
vector
  6
ByLayer
 62
  256
370
   -1
100
AcDbLine
 10
22.4
 20
11.00000000000001
 11
22.4
 21
2.000000000000013
  0
ARC
  5
139
100
AcDbEntity
  8
vector
  6
ByLayer
 62
  256
370
   -1
100
AcDbCircle
 10
22.1
 20
2.000000000000013
 40
0.3
100
AcDbArc
 50
270
 51
360
  0
ARC
  5
13A
100
AcDbEntity
  8
vector
  6
ByLayer
 62
  256
370
   -1
100
AcDbCircle
 10
21.6
 20
10.50000000000001
 40
0.3
100
AcDbArc
 50
360
 51
90
  0
LINE
  5
13B
100
AcDbEntity
  8
vector
  6
ByLayer
 62
  256
370
   -1
100
AcDbLine
 10
21.9
 20
10.50000000000001
 11
21.9
 21
2.200000000000016
  0
LINE
  5
13C
100
AcDbEntity
  8
vector
  6
ByLayer
 62
  256
370
   -1
100
AcDbLine
 10
22.1
 20
1.700000000000016
 11
21.9
 21
1.700000000000016
  0
LINE
  5
13D
100
AcDbEntity
  8
vector
  6
ByLayer
 62
  256
370
   -2
100
AcDbLine
 10
17.6
 20
11.30000000000001
 11
17.6
 21
11.15000000000119
  0
LINE
  5
13E
100
AcDbEntity
  8
vector
  6
ByLayer
 62
  256
370
   -2
100
AcDbLine
 10
17.6
 20
10.80000000000001
 11
17.6
 21
10.94999999999887
  0
ARC
  5
13F
100
AcDbEntity
  8
vector
  6
ByLayer
 62
  256
370
   -2
100
AcDbCircle
 10
17.6
 20
11.05000000000001
 40
0.1
100
AcDbArc
 50
270
 51
90
  0
LINE
  5
140
100
AcDbEntity
  8
vector
  6
ByLayer
 62
  256
370
   -1
100
AcDbLine
 10
17.6
 20
11.30000000000001
 11
22.1
 21
11.30000000000001
  0
LINE
  5
141
100
AcDbEntity
  8
vector
  6
ByLayer
 62
  256
370
   -1
100
AcDbLine
 10
17.6
 20
10.80000000000001
 11
21.6
 21
10.80000000000001
  0
CIRCLE
  5
142
100
AcDbEntity
  8
vector
  6
ByLayer
 62
  256
370
   -1
100
AcDbCircle
 10
0.800000000000014
 20
12.1
 40
0.1285
  0
CIRCLE
  5
143
100
AcDbEntity
  8
vector
  6
ByLayer
 62
  256
370
   -1
100
AcDbCircle
 10
1.800000000000014
 20
12.1
 40
0.058
  0
CIRCLE
  5
144
100
AcDbEntity
  8
vector
  6
ByLayer
 62
  256
370
   -1
100
AcDbCircle
 10
0.800000000000014
 20
11.1
 40
0.058
  0
CIRCLE
  5
145
100
AcDbEntity
  8
vector
  6
ByLayer
 62
  256
370
   -1
100
AcDbCircle
 10
0.800000000000014
 20
4.100000000000001
 40
0.058
  0
LINE
  5
146
100
AcDbEntity
  8
vector
  6
ByLayer
 62
  256
370
   -1
100
AcDbLine
 10
1.000000000000013
 20
3.370000000000004
 11
0.5000000000000133
 21
3.370000000000004
  0
ARC
  5
147
100
AcDbEntity
  8
vector
  6
ByLayer
 62
  256
370
   -1
100
AcDbCircle
 10
0.800000000000014
 20
12.1
 40
0.3
100
AcDbArc
 50
90
 51
180
  0
ARC
  5
148
100
AcDbEntity
  8
vector
  6
ByLayer
 62
  256
370
   -1
100
AcDbCircle
 10
1.300000000000014
 20
11.6
 40
0.3
100
AcDbArc
 50
90
 51
179.9999999999997
  0
LINE
  5
149
100
AcDbEntity
  8
vector
  6
ByLayer
 62
  256
370
   -1
100
AcDbLine
 10
0.5000000000000133
 20
3.370000000000004
 11
0.5000000000000133
 21
12.1
  0
LINE
  5
14A
100
AcDbEntity
  8
vector
  6
ByLayer
 62
  256
370
   -1
100
AcDbLine
 10
1.000000000000013
 20
3.370000000000004
 11
1.000000000000013
 21
11.6
  0
LINE
  5
14B
100
AcDbEntity
  8
vector
  6
ByLayer
 62
  256
370
   -2
100
AcDbLine
 10
5.300000000000014
 20
12.4
 11
5.300000000000014
 21
12.25000000000394
  0
LINE
  5
14C
100
AcDbEntity
  8
vector
  6
ByLayer
 62
  256
370
   -2
100
AcDbLine
 10
5.300000000000003
 20
12.04999999999604
 11
5.300000000000014
 21
11.9
  0
ARC
  5
14D
100
AcDbEntity
  8
vector
  6
ByLayer
 62
  256
370
   -2
100
AcDbCircle
 10
5.300000000000014
 20
12.15
 40
0.1
100
AcDbArc
 50
270
 51
90
  0
LINE
  5
14E
100
AcDbEntity
  8
vector
  6
ByLayer
 62
  256
370
   -1
100
AcDbLine
 10
0.800000000000014
 20
12.4
 11
5.300000000000014
 21
12.4
  0
LINE
  5
14F
100
AcDbEntity
  8
vector
  6
ByLayer
 62
  256
370
   -1
100
AcDbLine
 10
1.300000000000014
 20
11.9
 11
5.300000000000014
 21
11.9
  0
CIRCLE
  5
150
100
AcDbEntity
  8
vector
  6
ByLayer
 62
  256
370
   -1
100
AcDbCircle
 10
1.400000000000005
 20
11.49999999999999
 40
0.1285
  0
CIRCLE
  5
151
100
AcDbEntity
  8
vector
  6
ByLayer
 62
  256
370
   -1
100
AcDbCircle
 10
2.400000000000005
 20
11.49999999999999
 40
0.058
  0
CIRCLE
  5
152
100
AcDbEntity
  8
vector
  6
ByLayer
 62
  256
370
   -1
100
AcDbCircle
 10
1.400000000000005
 20
10.49999999999999
 40
0.058
  0
CIRCLE
  5
153
100
AcDbEntity
  8
vector
  6
ByLayer
 62
  256
370
   -1
100
AcDbCircle
 10
1.400000000000005
 20
3.499999999999992
 40
0.058
  0
LINE
  5
154
100
AcDbEntity
  8
vector
  6
ByLayer
 62
  256
370
   -1
100
AcDbLine
 10
1.600000000000015
 20
2.769999999999997
 11
1.100000000000015
 21
2.769999999999997
  0
ARC
  5
155
100
AcDbEntity
  8
vector
  6
ByLayer
 62
  256
370
   -1
100
AcDbCircle
 10
1.400000000000005
 20
11.49999999999999
 40
0.3
100
AcDbArc
 50
90
 51
180
  0
ARC
  5
156
100
AcDbEntity
  8
vector
  6
ByLayer
 62
  256
370
   -1
100
AcDbCircle
 10
1.900000000000005
 20
10.99999999999999
 40
0.3
100
AcDbArc
 50
90
 51
179.9999999999997
  0
LINE
  5
157
100
AcDbEntity
  8
vector
  6
ByLayer
 62
  256
370
   -1
100
AcDbLine
 10
1.100000000000015
 20
2.769999999999997
 11
1.100000000000015
 21
11.49999999999999
  0
LINE
  5
158
100
AcDbEntity
  8
vector
  6
ByLayer
 62
  256
370
   -1
100
AcDbLine
 10
1.600000000000015
 20
2.769999999999997
 11
1.600000000000015
 21
10.99999999999999
  0
LINE
  5
159
100
AcDbEntity
  8
vector
  6
ByLayer
 62
  256
370
   -2
100
AcDbLine
 10
5.900000000000001
 20
11.79999999999999
 11
5.900000000000001
 21
11.65000000000393
  0
LINE
  5
15A
100
AcDbEntity
  8
vector
  6
ByLayer
 62
  256
370
   -2
100
AcDbLine
 10
5.900000000000001
 20
11.44999999999603
 11
5.900000000000001
 21
11.29999999999999
  0
ARC
  5
15B
100
AcDbEntity
  8
vector
  6
ByLayer
 62
  256
370
   -2
100
AcDbCircle
 10
5.900000000000001
 20
11.54999999999999
 40
0.1
100
AcDbArc
 50
270
 51
90
  0
LINE
  5
15C
100
AcDbEntity
  8
vector
  6
ByLayer
 62
  256
370
   -1
100
AcDbLine
 10
1.400000000000005
 20
11.79999999999999
 11
5.900000000000001
 21
11.79999999999999
  0
LINE
  5
15D
100
AcDbEntity
  8
vector
  6
ByLayer
 62
  256
370
   -1
100
AcDbLine
 10
1.900000000000005
 20
11.29999999999999
 11
5.900000000000001
 21
11.29999999999999
  0
CIRCLE
  5
15E
100
AcDbEntity
  8
vector
  6
ByLayer
 62
  256
370
   -1
100
AcDbCircle
 10
2.000000000000006
 20
10.89999999999998
 40
0.1285
  0
LINE
  5
15F
100
AcDbEntity
  8
vector
  6
ByLayer
 62
  256
370
   -1
100
AcDbLine
 10
2.200000000000016
 20
2.169999999999978
 11
1.700000000000016
 21
2.169999999999978
  0
ARC
  5
160
100
AcDbEntity
  8
vector
  6
ByLayer
 62
  256
370
   -1
100
AcDbCircle
 10
2.000000000000006
 20
10.89999999999998
 40
0.3
100
AcDbArc
 50
90
 51
180
  0
ARC
  5
161
100
AcDbEntity
  8
vector
  6
ByLayer
 62
  256
370
   -1
100
AcDbCircle
 10
2.500000000000006
 20
10.39999999999998
 40
0.3
100
AcDbArc
 50
90
 51
179.9999999999997
  0
LINE
  5
162
100
AcDbEntity
  8
vector
  6
ByLayer
 62
  256
370
   -1
100
AcDbLine
 10
1.700000000000016
 20
2.169999999999978
 11
1.700000000000016
 21
10.89999999999998
  0
LINE
  5
163
100
AcDbEntity
  8
vector
  6
ByLayer
 62
  256
370
   -1
100
AcDbLine
 10
2.200000000000016
 20
2.169999999999978
 11
2.200000000000016
 21
10.39999999999998
  0
LINE
  5
164
100
AcDbEntity
  8
vector
  6
ByLayer
 62
  256
370
   -2
100
AcDbLine
 10
6.500000000000003
 20
11.19999999999998
 11
6.500000000000003
 21
11.05000000000393
  0
LINE
  5
165
100
AcDbEntity
  8
vector
  6
ByLayer
 62
  256
370
   -2
100
AcDbLine
 10
6.500000000000003
 20
10.84999999999602
 11
6.500000000000003
 21
10.69999999999998
  0
ARC
  5
166
100
AcDbEntity
  8
vector
  6
ByLayer
 62
  256
370
   -2
100
AcDbCircle
 10
6.500000000000003
 20
10.94999999999998
 40
0.1
100
AcDbArc
 50
270
 51
90
  0
LINE
  5
167
100
AcDbEntity
  8
vector
  6
ByLayer
 62
  256
370
   -1
100
AcDbLine
 10
2.000000000000006
 20
11.19999999999998
 11
6.500000000000003
 21
11.19999999999998
  0
LINE
  5
168
100
AcDbEntity
  8
vector
  6
ByLayer
 62
  256
370
   -1
100
AcDbLine
 10
2.500000000000006
 20
10.69999999999998
 11
6.500000000000003
 21
10.69999999999998
  0
CIRCLE
  5
169
100
AcDbEntity
  8
vector
  6
ByLayer
 62
  256
370
   -1
100
AcDbCircle
 10
2.000000000000006
 20
2.899999999999987
 40
0.044
  0
CIRCLE
  5
16A
100
AcDbEntity
  8
vector
  6
ByLayer
 62
  256
370
   -2
100
AcDbCircle
 10
2.000000000000006
 20
3.899999999999984
 40
0.044
  0
CIRCLE
  5
16B
100
AcDbEntity
  8
vector
  6
ByLayer
 62
  256
370
   -2
100
AcDbCircle
 10
2.000000000000006
 20
8.899999999999984
 40
0.044
  0
CIRCLE
  5
16C
100
AcDbEntity
  8
vector
  6
ByLayer
 62
  256
370
   -1
100
AcDbCircle
 10
2.000000000000006
 20
9.899999999999984
 40
0.044
  0
CIRCLE
  5
16D
100
AcDbEntity
  8
vector
  6
ByLayer
 62
  256
370
   -1
100
AcDbCircle
 10
3.000000000000006
 20
10.89999999999998
 40
0.044
  0
LINE
  5
16E
100
AcDbEntity
  8
vector
  6
ByLayer
 62
  256
370
   -1
100
AcDbLine
 10
2.600000000000003
 20
10.6
 11
11.6
 21
10.6
  0
ARC
  5
16F
100
AcDbEntity
  8
vector
  6
ByLayer
 62
  256
370
   -1
100
AcDbCircle
 10
11.6
 20
10.3
 40
0.3000000000000034
100
AcDbArc
 50
1.017777498068325e-12
 51
89.99999999999933
  0
LINE
  5
170
100
AcDbEntity
  8
vector
  6
ByLayer
 62
  256
370
   -1
100
AcDbLine
 10
11.9
 20
10.3
 11
11.9
 21
1.299999999999998
  0
ARC
  5
171
100
AcDbEntity
  8
vector
  6
ByLayer
 62
  256
370
   -1
100
AcDbCircle
 10
11.6
 20
1.3
 40
0.2999999999999994
100
AcDbArc
 50
269.9999999999997
 51
359.9999999999996
  0
LINE
  5
172
100
AcDbEntity
  8
vector
  6
ByLayer
 62
  256
370
   -1
100
AcDbLine
 10
11.6
 20
1.000000000000001
 11
2.600000000000003
 21
0.9999999999999986
  0
ARC
  5
173
100
AcDbEntity
  8
vector
  6
ByLayer
 62
  256
370
   -1
100
AcDbCircle
 10
2.600000000000003
 20
1.299999999999999
 40
0.3000000000000004
100
AcDbArc
 50
180.0000000000001
 51
270.0000000000001
  0
LINE
  5
174
100
AcDbEntity
  8
vector
  6
ByLayer
 62
  256
370
   -1
100
AcDbLine
 10
2.300000000000002
 20
1.299999999999998
 11
2.300000000000002
 21
10.3
  0
ARC
  5
175
100
AcDbEntity
  8
vector
  6
ByLayer
 62
  256
370
   -1
100
AcDbCircle
 10
2.600000000000003
 20
10.3
 40
0.3000000000000006
100
AcDbArc
 50
89.99999999999993
 51
179.9999999999997
  0
LINE
  5
176
100
AcDbEntity
  8
vector
  6
ByLayer
 62
  256
370
   -1
100
AcDbLine
 10
3.570000000000002
 20
9.629999999999997
 11
10.63000000000001
 21
9.629999999999997
  0
ARC
  5
177
100
AcDbEntity
  8
vector
  6
ByLayer
 62
  256
370
   -1
100
AcDbCircle
 10
10.63
 20
9.330000000000002
 40
0.2999999999999954
100
AcDbArc
 50
359.9999999999997
 51
89.99999999999898
  0
LINE
  5
178
100
AcDbEntity
  8
vector
  6
ByLayer
 62
  256
370
   -1
100
AcDbLine
 10
10.93
 20
9.33
 11
10.93
 21
2.269999999999998
  0
ARC
  5
179
100
AcDbEntity
  8
vector
  6
ByLayer
 62
  256
370
   -1
100
AcDbCircle
 10
10.63000000000001
 20
2.269999999999994
 40
0.2999999999999934
100
AcDbArc
 50
270.0000000000007
 51
6.869998111961196e-13
  0
LINE
  5
17A
100
AcDbEntity
  8
vector
  6
ByLayer
 62
  256
370
   -1
100
AcDbLine
 10
10.63000000000001
 20
1.970000000000001
 11
3.570000000000003
 21
1.969999999999999
  0
ARC
  5
17B
100
AcDbEntity
  8
vector
  6
ByLayer
 62
  256
370
   -1
100
AcDbCircle
 10
3.570000000000003
 20
2.269999999999996
 40
0.299999999999997
100
AcDbArc
 50
179.9999999999999
 51
270
  0
LINE
  5
17C
100
AcDbEntity
  8
vector
  6
ByLayer
 62
  256
370
   -1
100
AcDbLine
 10
3.270000000000006
 20
2.269999999999997
 11
3.270000000000006
 21
9.329999999999998
  0
ARC
  5
17D
100
AcDbEntity
  8
vector
  6
ByLayer
 62
  256
370
   -1
100
AcDbCircle
 10
3.570000000000004
 20
9.329999999999998
 40
0.2999999999999982
100
AcDbArc
 50
90.00000000000034
 51
180
  0
LINE
  5
17E
100
AcDbEntity
  8
vector
  6
ByLayer
 62
  256
370
   -1
100
AcDbLine
 10
12.4
 20
10.6
 11
21.40000000000001
 21
10.6
  0
ARC
  5
17F
100
AcDbEntity
  8
vector
  6
ByLayer
 62
  256
370
   -1
100
AcDbCircle
 10
21.40000000000001
 20
10.3
 40
0.2999999999999945
100
AcDbArc
 50
359.9999999999993
 51
89.99999999999933
  0
LINE
  5
180
100
AcDbEntity
  8
vector
  6
ByLayer
 62
  256
370
   -1
100
AcDbLine
 10
21.7
 20
10.3
 11
21.7
 21
1.3
  0
ARC
  5
181
100
AcDbEntity
  8
vector
  6
ByLayer
 62
  256
370
   -1
100
AcDbCircle
 10
21.40000000000001
 20
1.299999999999995
 40
0.2999999999999937
100
AcDbArc
 50
270.0000000000007
 51
1.017777498068325e-12
  0
LINE
  5
182
100
AcDbEntity
  8
vector
  6
ByLayer
 62
  256
370
   -1
100
AcDbLine
 10
21.40000000000001
 20
1.000000000000001
 11
12.4
 21
0.9999999999999977
  0
ARC
  5
183
100
AcDbEntity
  8
vector
  6
ByLayer
 62
  256
370
   -1
100
AcDbCircle
 10
12.4
 20
1.299999999999998
 40
0.3000000000000003
100
AcDbArc
 50
180
 51
270
  0
LINE
  5
184
100
AcDbEntity
  8
vector
  6
ByLayer
 62
  256
370
   -1
100
AcDbLine
 10
12.1
 20
1.299999999999998
 11
12.1
 21
10.3
  0
ARC
  5
185
100
AcDbEntity
  8
vector
  6
ByLayer
 62
  256
370
   -1
100
AcDbCircle
 10
12.4
 20
10.3
 40
0.3000000000000007
100
AcDbArc
 50
90
 51
179.9999999999997
  0
LINE
  5
186
100
AcDbEntity
  8
vector
  6
ByLayer
 62
  256
370
   -1
100
AcDbLine
 10
13.37
 20
9.629999999999997
 11
20.43
 21
9.629999999999997
  0
ARC
  5
187
100
AcDbEntity
  8
vector
  6
ByLayer
 62
  256
370
   -1
100
AcDbCircle
 10
20.43000000000001
 20
9.329999999999995
 40
0.3000000000000033
100
AcDbArc
 50
1.017777498068325e-12
 51
90.00000000000136
  0
LINE
  5
188
100
AcDbEntity
  8
vector
  6
ByLayer
 62
  256
370
   -1
100
AcDbLine
 10
20.73000000000001
 20
9.33
 11
20.73
 21
2.269999999999999
  0
ARC
  5
189
100
AcDbEntity
  8
vector
  6
ByLayer
 62
  256
370
   -1
100
AcDbCircle
 10
20.43
 20
2.269999999999999
 40
0.2999999999999981
100
AcDbArc
 50
270
 51
0
  0
LINE
  5
18A
100
AcDbEntity
  8
vector
  6
ByLayer
 62
  256
370
   -1
100
AcDbLine
 10
20.43
 20
1.970000000000001
 11
13.37
 21
1.969999999999999
  0
ARC
  5
18B
100
AcDbEntity
  8
vector
  6
ByLayer
 62
  256
370
   -1
100
AcDbCircle
 10
13.37
 20
2.269999999999997
 40
0.299999999999998
100
AcDbArc
 50
179.9999999999999
 51
270.0000000000003
  0
LINE
  5
18C
100
AcDbEntity
  8
vector
  6
ByLayer
 62
  256
370
   -1
100
AcDbLine
 10
13.07
 20
2.269999999999998
 11
13.07
 21
9.329999999999998
  0
ARC
  5
18D
100
AcDbEntity
  8
vector
  6
ByLayer
 62
  256
370
   -1
100
AcDbCircle
 10
13.37
 20
9.329999999999997
 40
0.2999999999999998
100
AcDbArc
 50
90
 51
179.9999999999997
  0
ENDSEC
  0
SECTION
  2
OBJECTS
  0
DICTIONARY
  5
C
330
0
100
AcDbDictionary
281
    1
  3
ACAD_GROUP
350
D
  0
DICTIONARY
  5
D
330
C
100
AcDbDictionary
281
    1
  0
ENDSEC
  0
EOF
