999
dxfrw 0.5.11
0
SECTION
2
HEADER
9
$ACADVER
1
AC1021
9
$HANDSEED
5
20000
9
$DWGCODEPAGE
3
ANSI_1252
9
$INSBASE
10
0
20
0
30
0
9
$EXTMIN
10
0
20
0
30
0
9
$EXTMAX
10
35
20
23
30
0
9
$LIMMIN
10
0
20
0
9
$LIMMAX
10
420
20
297
9
$ORTHOMODE
70
0
9
$LTSCALE
40
1
9
$TEXTSTYLE
7
STANDARD
9
$CLAYER
8
raster
9
$DIMASZ
40
0.1
9
$DIMLFAC
40
1
9
$DIMSCALE
40
2.5
9
$DIMEXO
40
0.625
9
$DIMEXE
40
0.05
9
$DIMTXT
40
0.1
9
$DIMTSZ
40
0
9
$DIMAUNIT
70
0
9
$DIMADEC
70
2
9
$DIMLUNIT
70
2
9
$DIMSTYLE
2
STANDARD
9
$DIMGAP
40
0.625
9
$DIMTIH
70
0
9
$LUNITS
70
2
9
$LUPREC
70
4
9
$AUNITS
70
0
9
$AUPREC
70
2
9
$SPLINESEGS
70
8
9
$GRIDMODE
70
1
9
$SNAPSTYLE
70
0
9
$PINSBASE
10
0
20
0
30
0
9
$PLIMMIN
10
0
20
0
9
$PLIMMAX
10
4.772152e-11
20
6.749288e-11
9
$INSUNITS
70
1
9
$PSVPSCALE
40
1
0
ENDSEC
0
SECTION
2
CLASSES
0
ENDSEC
0
SECTION
2
TABLES
0
TABLE
2
VPORT
5
8
330
0
100
AcDbSymbolTable
70
1
0
VPORT
5
31
330
2
100
AcDbSymbolTableRecord
100
AcDbViewportTableRecord
2
*ACTIVE
70
0
10
0
20
0
11
1
21
1
12
10.2294425962
22
4.70359247442
13
0
23
0
14
10
24
10
15
10
25
10
16
0
26
0
36
1
17
0
27
0
37
0
40
9.92283804975
41
2.34691011236
42
50
43
0
44
0
50
0
51
0
71
0
72
100
73
1
74
3
75
0
76
1
77
0
78
0
281
0
65
1
110
0
120
0
130
0
111
1
121
0
131
0
112
0
122
1
132
0
79
0
146
0
348
10020
60
7
61
5
292
1
282
1
141
0
142
0
63
250
421
3358443
0
ENDTAB
0
TABLE
2
LTYPE
5
5
330
0
100
AcDbSymbolTable
70
4
0
LTYPE
5
14
330
5
100
AcDbSymbolTableRecord
100
AcDbLinetypeTableRecord
2
ByBlock
70
0
3

72
65
73
0
40
0
0
LTYPE
5
15
330
5
100
AcDbSymbolTableRecord
100
AcDbLinetypeTableRecord
2
ByLayer
70
0
3

72
65
73
0
40
0
0
LTYPE
5
16
330
5
100
AcDbSymbolTableRecord
100
AcDbLinetypeTableRecord
2
Continuous
70
0
3
Solid line
72
65
73
0
40
0
0
LTYPE
5
32
330
5
100
AcDbSymbolTableRecord
100
AcDbLinetypeTableRecord
2
DOT
70
0
3
Dot . . . . . . . . . . . . . . . . . . . . . .
72
65
73
2
40
6.35
49
0
74
0
49
-6.35
74
0
0
LTYPE
5
33
330
5
100
AcDbSymbolTableRecord
100
AcDbLinetypeTableRecord
2
DOT2
70
0
3
Dot (.5x) .....................................
72
65
73
2
40
3.175
49
0
74
0
49
-3.175
74
0
0
LTYPE
5
34
330
5
100
AcDbSymbolTableRecord
100
AcDbLinetypeTableRecord
2
DOTX2
70
0
3
Dot (2x) .  .  .  .  .  .  .  .  .  .  .  .  .
72
65
73
2
40
12.7
49
0
74
0
49
-12.7
74
0
0
LTYPE
5
35
330
5
100
AcDbSymbolTableRecord
100
AcDbLinetypeTableRecord
2
DASHED
70
0
3
Dot . . . . . . . . . . . . . . . . . . . . . .
72
65
73
2
40
19.05
49
12.7
74
0
49
-6.35
74
0
0
LTYPE
5
36
330
5
100
AcDbSymbolTableRecord
100
AcDbLinetypeTableRecord
2
DASHED2
70
0
3
Dashed (.5x) _ _ _ _ _ _ _ _ _ _ _ _ _ _ _ _ _
72
65
73
2
40
9.525
49
6.35
74
0
49
-3.175
74
0
0
LTYPE
5
37
330
5
100
AcDbSymbolTableRecord
100
AcDbLinetypeTableRecord
2
DASHEDX2
70
0
3
Dashed (2x) ____  ____  ____  ____  ____  ___
72
65
73
2
40
38.1
49
25.4
74
0
49
-12.7
74
0
0
LTYPE
5
38
330
5
100
AcDbSymbolTableRecord
100
AcDbLinetypeTableRecord
2
DASHDOT
70
0
3
Dash dot __ . __ . __ . __ . __ . __ . __ . __
72
65
73
4
40
25.4
49
12.7
74
0
49
-6.35
74
0
49
0
74
0
49
-6.35
74
0
0
LTYPE
5
39
330
5
100
AcDbSymbolTableRecord
100
AcDbLinetypeTableRecord
2
DASHDOT2
70
0
3
Dash dot (.5x) _._._._._._._._._._._._._._._.
72
65
73
4
40
12.7
49
6.35
74
0
49
-3.175
74
0
49
0
74
0
49
-3.175
74
0
0
LTYPE
5
3A
330
5
100
AcDbSymbolTableRecord
100
AcDbLinetypeTableRecord
2
DASHDOTX2
70
0
3
Dash dot (2x) ____  .  ____  .  ____  .  ___
72
65
73
4
40
50.8
49
25.4
74
0
49
-12.7
74
0
49
0
74
0
49
-12.7
74
0
0
LTYPE
5
3B
330
5
100
AcDbSymbolTableRecord
100
AcDbLinetypeTableRecord
2
DIVIDE
70
0
3
Divide ____ . . ____ . . ____ . . ____ . . ____
72
65
73
6
40
31.75
49
12.7
74
0
49
-6.35
74
0
49
0
74
0
49
-6.35
74
0
49
0
74
0
49
-6.35
74
0
0
LTYPE
5
3C
330
5
100
AcDbSymbolTableRecord
100
AcDbLinetypeTableRecord
2
DIVIDE2
70
0
3
Divide (.5x) __..__..__..__..__..__..__..__.._
72
65
73
6
40
15.875
49
6.35
74
0
49
-3.175
74
0
49
0
74
0
49
-3.175
74
0
49
0
74
0
49
-3.175
74
0
0
LTYPE
5
3D
330
5
100
AcDbSymbolTableRecord
100
AcDbLinetypeTableRecord
2
DIVIDEX2
70
0
3
Divide (2x) ________  .  .  ________  .  .  _
72
65
73
6
40
63.5
49
25.4
74
0
49
-12.7
74
0
49
0
74
0
49
-12.7
74
0
49
0
74
0
49
-12.7
74
0
0
LTYPE
5
3E
330
5
100
AcDbSymbolTableRecord
100
AcDbLinetypeTableRecord
2
BORDER
70
0
3
Border __ __ . __ __ . __ __ . __ __ . __ __ .
72
65
73
6
40
44.45
49
12.7
74
0
49
-6.35
74
0
49
12.7
74
0
49
-6.35
74
0
49
0
74
0
49
-6.35
74
0
0
LTYPE
5
3F
330
5
100
AcDbSymbolTableRecord
100
AcDbLinetypeTableRecord
2
BORDER2
70
0
3
Border (.5x) __.__.__.__.__.__.__.__.__.__.__.
72
65
73
6
40
22.225
49
6.35
74
0
49
-3.175
74
0
49
6.35
74
0
49
-3.175
74
0
49
0
74
0
49
-3.175
74
0
0
LTYPE
5
40
330
5
100
AcDbSymbolTableRecord
100
AcDbLinetypeTableRecord
2
BORDERX2
70
0
3
Border (2x) ____  ____  .  ____  ____  .  ___
72
65
73
6
40
88.9
49
25.4
74
0
49
-12.7
74
0
49
25.4
74
0
49
-12.7
74
0
49
0
74
0
49
-12.7
74
0
0
LTYPE
5
41
330
5
100
AcDbSymbolTableRecord
100
AcDbLinetypeTableRecord
2
CENTER
70
0
3
Center ____ _ ____ _ ____ _ ____ _ ____ _ ____
72
65
73
4
40
50.8
49
31.75
74
0
49
-6.35
74
0
49
6.35
74
0
49
-6.35
74
0
0
LTYPE
5
42
330
5
100
AcDbSymbolTableRecord
100
AcDbLinetypeTableRecord
2
CENTER2
70
0
3
Center (.5x) ___ _ ___ _ ___ _ ___ _ ___ _ ___
72
65
73
4
40
28.575
49
19.05
74
0
49
-3.175
74
0
49
3.175
74
0
49
-3.175
74
0
0
LTYPE
5
43
330
5
100
AcDbSymbolTableRecord
100
AcDbLinetypeTableRecord
2
CENTERX2
70
0
3
Center (2x) ________  __  ________  __  _____
72
65
73
4
40
101.6
49
63.5
74
0
49
-12.7
74
0
49
12.7
74
0
49
-12.7
74
0
0
ENDTAB
0
TABLE
2
LAYER
5
2
330
0
100
AcDbSymbolTable
70
1
0
LAYER
5
10
330
2
100
AcDbSymbolTableRecord
100
AcDbLayerTableRecord
2
0
70
0
62
7
6
CONTINUOUS
370
0
390
F
0
LAYER
5
44
330
2
100
AcDbSymbolTableRecord
100
AcDbLayerTableRecord
2
raster
70
0
62
1
6
CONTINUOUS
370
0
390
F
0
LAYER
5
45
330
2
100
AcDbSymbolTableRecord
100
AcDbLayerTableRecord
2
lasercutter
70
0
62
5
6
CONTINUOUS
370
0
390
F
0
LAYER
5
46
330
2
100
AcDbSymbolTableRecord
100
AcDbLayerTableRecord
2
material
70
0
62
4
6
CONTINUOUS
370
0
390
F
0
LAYER
5
47
330
2
100
AcDbSymbolTableRecord
100
AcDbLayerTableRecord
2
vector
70
0
62
3
6
CONTINUOUS
370
0
390
F
0
ENDTAB
0
TABLE
2
STYLE
5
3
330
0
100
AcDbSymbolTable
70
3
0
STYLE
5
48
330
2
100
AcDbSymbolTableRecord
100
AcDbTextStyleTableRecord
2
Standard
70
0
40
0
41
1
50
0
71
0
42
1
3
txt
4

0
ENDTAB
0
TABLE
2
VIEW
5
6
330
0
100
AcDbSymbolTable
70
0
0
ENDTAB
0
TABLE
2
UCS
5
7
330
0
100
AcDbSymbolTable
70
0
0
ENDTAB
0
TABLE
2
APPID
5
9
330
0
100
AcDbSymbolTable
70
1
0
APPID
5
12
330
9
100
AcDbSymbolTableRecord
100
AcDbRegAppTableRecord
2
ACAD
70
0
0
ENDTAB
0
TABLE
2
DIMSTYLE
5
A
330
0
100
AcDbSymbolTable
70
1
100
AcDbDimStyleTable
71
1
0
DIMSTYLE
105
49
330
A
100
AcDbSymbolTableRecord
100
AcDbDimStyleTableRecord
2
Standard
70
0
40
1
41
0.1
42
0.625
43
0.38
44
0.05
45
0
46
0
47
0
48
0
140
0.1
141
0.09
142
0
143
25.4
144
1
145
0
146
1
147
0.625
148
0
71
0
72
0
73
0
74
1
75
0
76
0
77
0
78
0
79
0
170
0
171
2
172
0
173
0
174
0
175
0
176
0
177
0
178
0
179
0
271
4
272
4
273
2
274
2
275
0
276
0
277
2
278
46
279
0
280
0
281
0
282
0
283
1
284
0
285
0
286
0
288
0
289
3
340
Standard
341

371
-2
372
-2
0
ENDTAB
0
TABLE
2
BLOCK_RECORD
5
1
330
0
100
AcDbSymbolTable
70
2
0
BLOCK_RECORD
5
1F
330
1
100
AcDbSymbolTableRecord
100
AcDbBlockTableRecord
2
*Model_Space
70
0
280
1
281
0
0
BLOCK_RECORD
5
1E
330
1
100
AcDbSymbolTableRecord
100
AcDbBlockTableRecord
2
*Paper_Space
70
0
280
1
281
0
0
ENDTAB
0
ENDSEC
0
SECTION
2
BLOCKS
0
BLOCK
5
20
330
1F
100
AcDbEntity
8
0
100
AcDbBlockBegin
2
*Model_Space
70
0
10
0
20
0
30
0
3
*Model_Space
1

0
ENDBLK
5
21
330
1F
100
AcDbEntity
8
0
100
AcDbBlockEnd
0
BLOCK
5
1C
330
1B
100
AcDbEntity
8
0
100
AcDbBlockBegin
2
*Paper_Space
70
0
10
0
20
0
30
0
3
*Paper_Space
1

0
ENDBLK
5
1D
330
1F
100
AcDbEntity
8
0
100
AcDbBlockEnd
0
ENDSEC
0
SECTION
2
ENTITIES
0
LWPOLYLINE
5
4A
100
AcDbEntity
8
lasercutter
6
ByLayer
62
256
370
-1
100
AcDbPolyline
90
4
70
1
43
0
10
0
20
0
10
35
20
0
10
35
20
23
10
0
20
23
0
LWPOLYLINE
5
4B
100
AcDbEntity
8
material
6
ByLayer
62
256
370
-1
100
AcDbPolyline
90
4
70
1
43
0
10
0
20
0
10
24
20
0
10
24
20
16
10
0
20
16
0
CIRCLE
5
4C
100
AcDbEntity
8
vector
6
ByLayer
62
256
370
-1
100
AcDbCircle
10
14.56
20
8.66
40
0.058
0
CIRCLE
5
4D
100
AcDbEntity
8
vector
6
ByLayer
62
256
370
-1
100
AcDbCircle
10
15.56
20
7.66
40
0.058
0
CIRCLE
5
4E
100
AcDbEntity
8
vector
6
ByLayer
62
256
370
-1
100
AcDbCircle
10
8.5
20
8.66
40
0.058
0
CIRCLE
5
4F
100
AcDbEntity
8
vector
6
ByLayer
62
256
370
-1
100
AcDbCircle
10
7.5
20
7.66
40
0.058
0
CIRCLE
5
50
100
AcDbEntity
8
vector
6
ByLayer
62
256
370
-1
100
AcDbCircle
10
15.56
20
1.6
40
0.058
0
CIRCLE
5
51
100
AcDbEntity
8
vector
6
ByLayer
62
256
370
-1
100
AcDbCircle
10
14.56
20
0.6
40
0.058
0
CIRCLE
5
52
100
AcDbEntity
8
vector
6
ByLayer
62
256
370
-1
100
AcDbCircle
10
8.5
20
0.6
40
0.058
0
CIRCLE
5
53
100
AcDbEntity
8
vector
6
ByLayer
62
256
370
-1
100
AcDbCircle
10
7.5
20
1.6
40
0.058
0
LINE
5
54
100
AcDbEntity
8
raster
6
ByLayer
62
256
370
-1
100
AcDbLine
10
8.03
20
8.13
11
15.03
21
8.13
0
LINE
5
55
100
AcDbEntity
8
raster
6
ByLayer
62
256
370
-1
100
AcDbLine
10
15.03
20
1.13
11
8.03
21
1.13
0
LINE
5
56
100
AcDbEntity
8
raster
6
ByLayer
62
256
370
-1
100
AcDbLine
10
8.03
20
8.12
11
15.03
21
8.12
0
LINE
5
57
100
AcDbEntity
8
raster
6
ByLayer
62
256
370
-1
100
AcDbLine
10
8.03
20
8.11
11
15.03
21
8.11
0
LINE
5
58
100
AcDbEntity
8
raster
6
ByLayer
62
256
370
-1
100
AcDbLine
10
8.03
20
8.1
11
15.03
21
8.1
0
LINE
5
59
100
AcDbEntity
8
raster
6
ByLayer
62
256
370
-1
100
AcDbLine
10
8.03
20
8.09
11
15.03
21
8.09
0
LINE
5
5A
100
AcDbEntity
8
raster
6
ByLayer
62
256
370
-1
100
AcDbLine
10
8.03
20
8.08
11
15.03
21
8.08
0
LINE
5
5B
100
AcDbEntity
8
raster
6
ByLayer
62
256
370
-1
100
AcDbLine
10
8.03
20
8.07
11
15.03
21
8.07
0
LINE
5
5C
100
AcDbEntity
8
raster
6
ByLayer
62
256
370
-1
100
AcDbLine
10
8.03
20
8.06
11
15.03
21
8.06
0
LINE
5
5D
100
AcDbEntity
8
raster
6
ByLayer
62
256
370
-1
100
AcDbLine
10
8.03
20
8.05
11
15.03
21
8.05
0
LINE
5
5E
100
AcDbEntity
8
raster
6
ByLayer
62
256
370
-1
100
AcDbLine
10
8.03
20
8.04
11
15.03
21
8.04
0
LINE
5
5F
100
AcDbEntity
8
raster
6
ByLayer
62
256
370
-1
100
AcDbLine
10
8.03
20
8.03
11
15.03
21
8.03
0
LINE
5
60
100
AcDbEntity
8
raster
6
ByLayer
62
256
370
-1
100
AcDbLine
10
8.03
20
8.02
11
15.03
21
8.02
0
LINE
5
61
100
AcDbEntity
8
raster
6
ByLayer
62
256
370
-1
100
AcDbLine
10
8.03
20
8.01
11
15.03
21
8.01
0
LINE
5
62
100
AcDbEntity
8
raster
6
ByLayer
62
256
370
-1
100
AcDbLine
10
8.03
20
8
11
15.03
21
8
0
LINE
5
63
100
AcDbEntity
8
raster
6
ByLayer
62
256
370
-1
100
AcDbLine
10
8.03
20
7.99
11
15.03
21
7.99
0
LINE
5
64
100
AcDbEntity
8
raster
6
ByLayer
62
256
370
-1
100
AcDbLine
10
8.03
20
7.98
11
15.03
21
7.98
0
LINE
5
65
100
AcDbEntity
8
raster
6
ByLayer
62
256
370
-1
100
AcDbLine
10
8.03
20
7.97
11
15.03
21
7.97
0
LINE
5
66
100
AcDbEntity
8
raster
6
ByLayer
62
256
370
-1
100
AcDbLine
10
8.03
20
7.96
11
15.03
21
7.96
0
LINE
5
67
100
AcDbEntity
8
raster
6
ByLayer
62
256
370
-1
100
AcDbLine
10
8.03
20
7.95
11
15.03
21
7.95
0
LINE
5
68
100
AcDbEntity
8
raster
6
ByLayer
62
256
370
-1
100
AcDbLine
10
8.03
20
7.94
11
15.03
21
7.94
0
LINE
5
69
100
AcDbEntity
8
raster
6
ByLayer
62
256
370
-1
100
AcDbLine
10
8.03
20
7.93
11
15.03
21
7.93
0
LINE
5
6A
100
AcDbEntity
8
raster
6
ByLayer
62
256
370
-1
100
AcDbLine
10
8.03
20
7.92
11
15.03
21
7.92
0
LINE
5
6B
100
AcDbEntity
8
raster
6
ByLayer
62
256
370
-1
100
AcDbLine
10
8.03
20
7.91
11
15.03
21
7.91
0
LINE
5
6C
100
AcDbEntity
8
raster
6
ByLayer
62
256
370
-1
100
AcDbLine
10
8.03
20
7.9
11
15.03
21
7.9
0
LINE
5
6D
100
AcDbEntity
8
raster
6
ByLayer
62
256
370
-1
100
AcDbLine
10
8.03
20
7.89
11
15.03
21
7.89
0
LINE
5
6E
100
AcDbEntity
8
raster
6
ByLayer
62
256
370
-1
100
AcDbLine
10
8.03
20
7.88
11
15.03
21
7.88
0
LINE
5
6F
100
AcDbEntity
8
raster
6
ByLayer
62
256
370
-1
100
AcDbLine
10
8.03
20
7.87
11
15.03
21
7.87
0
LINE
5
70
100
AcDbEntity
8
raster
6
ByLayer
62
256
370
-1
100
AcDbLine
10
8.03
20
7.86
11
15.03
21
7.86
0
LINE
5
71
100
AcDbEntity
8
raster
6
ByLayer
62
256
370
-1
100
AcDbLine
10
8.03
20
7.85
11
15.03
21
7.85
0
LINE
5
72
100
AcDbEntity
8
raster
6
ByLayer
62
256
370
-1
100
AcDbLine
10
8.03
20
7.84
11
15.03
21
7.84
0
LINE
5
73
100
AcDbEntity
8
raster
6
ByLayer
62
256
370
-1
100
AcDbLine
10
8.03
20
7.83
11
15.03
21
7.83
0
LINE
5
74
100
AcDbEntity
8
raster
6
ByLayer
62
256
370
-1
100
AcDbLine
10
8.03
20
7.82
11
15.03
21
7.82
0
LINE
5
75
100
AcDbEntity
8
raster
6
ByLayer
62
256
370
-1
100
AcDbLine
10
8.03
20
7.81
11
15.03
21
7.81
0
LINE
5
76
100
AcDbEntity
8
raster
6
ByLayer
62
256
370
-1
100
AcDbLine
10
8.03
20
7.8
11
15.03
21
7.8
0
LINE
5
77
100
AcDbEntity
8
raster
6
ByLayer
62
256
370
-1
100
AcDbLine
10
8.03
20
7.79
11
15.03
21
7.79
0
LINE
5
78
100
AcDbEntity
8
raster
6
ByLayer
62
256
370
-1
100
AcDbLine
10
8.03
20
7.78
11
15.03
21
7.78
0
LINE
5
79
100
AcDbEntity
8
raster
6
ByLayer
62
256
370
-1
100
AcDbLine
10
8.03
20
7.77
11
15.03
21
7.77
0
LINE
5
7A
100
AcDbEntity
8
raster
6
ByLayer
62
256
370
-1
100
AcDbLine
10
8.03
20
7.76
11
15.03
21
7.76
0
LINE
5
7B
100
AcDbEntity
8
raster
6
ByLayer
62
256
370
-1
100
AcDbLine
10
8.03
20
7.75
11
15.03
21
7.75
0
LINE
5
7C
100
AcDbEntity
8
raster
6
ByLayer
62
256
370
-1
100
AcDbLine
10
8.03
20
7.74
11
15.03
21
7.74
0
LINE
5
7D
100
AcDbEntity
8
raster
6
ByLayer
62
256
370
-1
100
AcDbLine
10
8.03
20
7.73
11
15.03
21
7.73
0
LINE
5
7E
100
AcDbEntity
8
raster
6
ByLayer
62
256
370
-1
100
AcDbLine
10
8.03
20
7.72
11
15.03
21
7.72
0
LINE
5
7F
100
AcDbEntity
8
raster
6
ByLayer
62
256
370
-1
100
AcDbLine
10
8.03
20
7.71
11
15.03
21
7.71
0
LINE
5
80
100
AcDbEntity
8
raster
6
ByLayer
62
256
370
-1
100
AcDbLine
10
8.03
20
7.7
11
15.03
21
7.7
0
LINE
5
81
100
AcDbEntity
8
raster
6
ByLayer
62
256
370
-1
100
AcDbLine
10
8.03
20
7.69
11
15.03
21
7.69
0
LINE
5
82
100
AcDbEntity
8
raster
6
ByLayer
62
256
370
-1
100
AcDbLine
10
8.03
20
7.68
11
15.03
21
7.68
0
LINE
5
83
100
AcDbEntity
8
raster
6
ByLayer
62
256
370
-1
100
AcDbLine
10
8.03
20
7.67
11
15.03
21
7.67
0
LINE
5
84
100
AcDbEntity
8
raster
6
ByLayer
62
256
370
-1
100
AcDbLine
10
8.03
20
7.66
11
15.03
21
7.66
0
LINE
5
85
100
AcDbEntity
8
raster
6
ByLayer
62
256
370
-1
100
AcDbLine
10
8.03
20
7.65
11
15.03
21
7.65
0
LINE
5
86
100
AcDbEntity
8
raster
6
ByLayer
62
256
370
-1
100
AcDbLine
10
8.03
20
7.64
11
15.03
21
7.64
0
LINE
5
87
100
AcDbEntity
8
raster
6
ByLayer
62
256
370
-1
100
AcDbLine
10
8.03
20
7.63
11
15.03
21
7.63
0
LINE
5
88
100
AcDbEntity
8
raster
6
ByLayer
62
256
370
-1
100
AcDbLine
10
8.03
20
7.62
11
15.03
21
7.62
0
LINE
5
89
100
AcDbEntity
8
raster
6
ByLayer
62
256
370
-1
100
AcDbLine
10
8.03
20
7.61
11
15.03
21
7.61
0
LINE
5
8A
100
AcDbEntity
8
raster
6
ByLayer
62
256
370
-1
100
AcDbLine
10
8.03
20
7.6
11
15.03
21
7.6
0
LINE
5
8B
100
AcDbEntity
8
raster
6
ByLayer
62
256
370
-1
100
AcDbLine
10
8.03
20
7.59
11
15.03
21
7.59
0
LINE
5
8C
100
AcDbEntity
8
raster
6
ByLayer
62
256
370
-1
100
AcDbLine
10
8.03
20
7.58
11
15.03
21
7.58
0
LINE
5
8D
100
AcDbEntity
8
raster
6
ByLayer
62
256
370
-1
100
AcDbLine
10
8.03
20
7.57
11
15.03
21
7.57
0
LINE
5
8E
100
AcDbEntity
8
raster
6
ByLayer
62
256
370
-1
100
AcDbLine
10
8.03
20
7.56
11
15.03
21
7.56
0
LINE
5
8F
100
AcDbEntity
8
raster
6
ByLayer
62
256
370
-1
100
AcDbLine
10
8.03
20
7.55
11
15.03
21
7.55
0
LINE
5
90
100
AcDbEntity
8
raster
6
ByLayer
62
256
370
-1
100
AcDbLine
10
8.03
20
7.54
11
15.03
21
7.54
0
LINE
5
91
100
AcDbEntity
8
raster
6
ByLayer
62
256
370
-1
100
AcDbLine
10
8.03
20
7.53
11
15.03
21
7.53
0
LINE
5
92
100
AcDbEntity
8
raster
6
ByLayer
62
256
370
-1
100
AcDbLine
10
8.03
20
7.52
11
15.03
21
7.52
0
LINE
5
93
100
AcDbEntity
8
raster
6
ByLayer
62
256
370
-1
100
AcDbLine
10
8.03
20
7.51
11
15.03
21
7.51
0
LINE
5
94
100
AcDbEntity
8
raster
6
ByLayer
62
256
370
-1
100
AcDbLine
10
8.03
20
7.5
11
15.03
21
7.5
0
LINE
5
95
100
AcDbEntity
8
raster
6
ByLayer
62
256
370
-1
100
AcDbLine
10
8.03
20
7.49
11
15.03
21
7.49
0
LINE
5
96
100
AcDbEntity
8
raster
6
ByLayer
62
256
370
-1
100
AcDbLine
10
8.03
20
7.48
11
15.03
21
7.48
0
LINE
5
97
100
AcDbEntity
8
raster
6
ByLayer
62
256
370
-1
100
AcDbLine
10
8.03
20
7.47
11
15.03
21
7.47
0
LINE
5
98
100
AcDbEntity
8
raster
6
ByLayer
62
256
370
-1
100
AcDbLine
10
8.03
20
7.46
11
15.03
21
7.46
0
LINE
5
99
100
AcDbEntity
8
raster
6
ByLayer
62
256
370
-1
100
AcDbLine
10
8.03
20
7.45
11
15.03
21
7.45
0
LINE
5
9A
100
AcDbEntity
8
raster
6
ByLayer
62
256
370
-1
100
AcDbLine
10
8.03
20
7.44
11
15.03
21
7.44
0
LINE
5
9B
100
AcDbEntity
8
raster
6
ByLayer
62
256
370
-1
100
AcDbLine
10
8.03
20
7.43
11
15.03
21
7.43
0
LINE
5
9C
100
AcDbEntity
8
raster
6
ByLayer
62
256
370
-1
100
AcDbLine
10
8.03
20
7.42
11
15.03
21
7.42
0
LINE
5
9D
100
AcDbEntity
8
raster
6
ByLayer
62
256
370
-1
100
AcDbLine
10
8.03
20
7.41
11
15.03
21
7.41
0
LINE
5
9E
100
AcDbEntity
8
raster
6
ByLayer
62
256
370
-1
100
AcDbLine
10
8.03
20
7.4
11
15.03
21
7.4
0
LINE
5
9F
100
AcDbEntity
8
raster
6
ByLayer
62
256
370
-1
100
AcDbLine
10
8.03
20
7.39
11
15.03
21
7.39
0
LINE
5
A0
100
AcDbEntity
8
raster
6
ByLayer
62
256
370
-1
100
AcDbLine
10
8.03
20
7.38
11
15.03
21
7.38
0
LINE
5
A1
100
AcDbEntity
8
raster
6
ByLayer
62
256
370
-1
100
AcDbLine
10
8.03
20
7.37
11
15.03
21
7.37
0
LINE
5
A2
100
AcDbEntity
8
raster
6
ByLayer
62
256
370
-1
100
AcDbLine
10
8.03
20
7.36
11
15.03
21
7.36
0
LINE
5
A3
100
AcDbEntity
8
raster
6
ByLayer
62
256
370
-1
100
AcDbLine
10
8.03
20
7.35
11
15.03
21
7.35
0
LINE
5
A4
100
AcDbEntity
8
raster
6
ByLayer
62
256
370
-1
100
AcDbLine
10
8.03
20
7.34
11
15.03
21
7.34
0
LINE
5
A5
100
AcDbEntity
8
raster
6
ByLayer
62
256
370
-1
100
AcDbLine
10
8.03
20
7.33
11
15.03
21
7.33
0
LINE
5
A6
100
AcDbEntity
8
raster
6
ByLayer
62
256
370
-1
100
AcDbLine
10
8.03
20
7.32
11
15.03
21
7.32
0
LINE
5
A7
100
AcDbEntity
8
raster
6
ByLayer
62
256
370
-1
100
AcDbLine
10
8.03
20
7.31
11
15.03
21
7.31
0
LINE
5
A8
100
AcDbEntity
8
raster
6
ByLayer
62
256
370
-1
100
AcDbLine
10
8.03
20
7.3
11
15.03
21
7.3
0
LINE
5
A9
100
AcDbEntity
8
raster
6
ByLayer
62
256
370
-1
100
AcDbLine
10
8.03
20
7.29
11
15.03
21
7.29
0
LINE
5
AA
100
AcDbEntity
8
raster
6
ByLayer
62
256
370
-1
100
AcDbLine
10
8.03
20
7.28
11
15.03
21
7.28
0
LINE
5
AB
100
AcDbEntity
8
raster
6
ByLayer
62
256
370
-1
100
AcDbLine
10
8.03
20
7.27
11
15.03
21
7.27
0
LINE
5
AC
100
AcDbEntity
8
raster
6
ByLayer
62
256
370
-1
100
AcDbLine
10
8.03
20
7.26
11
15.03
21
7.26
0
LINE
5
AD
100
AcDbEntity
8
raster
6
ByLayer
62
256
370
-1
100
AcDbLine
10
8.03
20
7.25
11
15.03
21
7.25
0
LINE
5
AE
100
AcDbEntity
8
raster
6
ByLayer
62
256
370
-1
100
AcDbLine
10
8.03
20
7.24
11
15.03
21
7.24
0
LINE
5
AF
100
AcDbEntity
8
raster
6
ByLayer
62
256
370
-1
100
AcDbLine
10
8.03
20
7.23
11
15.03
21
7.23
0
LINE
5
B0
100
AcDbEntity
8
raster
6
ByLayer
62
256
370
-1
100
AcDbLine
10
8.03
20
7.22
11
15.03
21
7.22
0
LINE
5
B1
100
AcDbEntity
8
raster
6
ByLayer
62
256
370
-1
100
AcDbLine
10
8.03
20
7.21
11
15.03
21
7.21
0
LINE
5
B2
100
AcDbEntity
8
raster
6
ByLayer
62
256
370
-1
100
AcDbLine
10
8.03
20
7.2
11
15.03
21
7.2
0
LINE
5
B3
100
AcDbEntity
8
raster
6
ByLayer
62
256
370
-1
100
AcDbLine
10
8.03
20
7.19
11
15.03
21
7.19
0
LINE
5
B4
100
AcDbEntity
8
raster
6
ByLayer
62
256
370
-1
100
AcDbLine
10
8.03
20
7.18
11
15.03
21
7.18
0
LINE
5
B5
100
AcDbEntity
8
raster
6
ByLayer
62
256
370
-1
100
AcDbLine
10
8.03
20
7.17
11
15.03
21
7.17
0
LINE
5
B6
100
AcDbEntity
8
raster
6
ByLayer
62
256
370
-1
100
AcDbLine
10
8.03
20
7.16
11
15.03
21
7.16
0
LINE
5
B7
100
AcDbEntity
8
raster
6
ByLayer
62
256
370
-1
100
AcDbLine
10
8.03
20
7.15
11
15.03
21
7.15
0
LINE
5
B8
100
AcDbEntity
8
raster
6
ByLayer
62
256
370
-1
100
AcDbLine
10
8.03
20
7.14
11
15.03
21
7.14
0
LINE
5
B9
100
AcDbEntity
8
raster
6
ByLayer
62
256
370
-1
100
AcDbLine
10
8.03
20
7.13
11
15.03
21
7.13
0
LINE
5
BA
100
AcDbEntity
8
raster
6
ByLayer
62
256
370
-1
100
AcDbLine
10
8.03
20
7.12
11
15.03
21
7.12
0
LINE
5
BB
100
AcDbEntity
8
raster
6
ByLayer
62
256
370
-1
100
AcDbLine
10
8.03
20
7.11
11
15.03
21
7.11
0
LINE
5
BC
100
AcDbEntity
8
raster
6
ByLayer
62
256
370
-1
100
AcDbLine
10
8.03
20
7.1
11
15.03
21
7.1
0
LINE
5
BD
100
AcDbEntity
8
raster
6
ByLayer
62
256
370
-1
100
AcDbLine
10
8.03
20
7.09
11
15.03
21
7.09
0
LINE
5
BE
100
AcDbEntity
8
raster
6
ByLayer
62
256
370
-1
100
AcDbLine
10
8.03
20
7.08
11
15.03
21
7.08
0
LINE
5
BF
100
AcDbEntity
8
raster
6
ByLayer
62
256
370
-1
100
AcDbLine
10
8.03
20
7.07
11
15.03
21
7.07
0
LINE
5
C0
100
AcDbEntity
8
raster
6
ByLayer
62
256
370
-1
100
AcDbLine
10
8.03
20
7.06
11
15.03
21
7.06
0
LINE
5
C1
100
AcDbEntity
8
raster
6
ByLayer
62
256
370
-1
100
AcDbLine
10
8.03
20
7.05
11
15.03
21
7.05
0
LINE
5
C2
100
AcDbEntity
8
raster
6
ByLayer
62
256
370
-1
100
AcDbLine
10
8.03
20
7.04
11
15.03
21
7.04
0
LINE
5
C3
100
AcDbEntity
8
raster
6
ByLayer
62
256
370
-1
100
AcDbLine
10
8.03
20
7.03
11
15.03
21
7.03
0
LINE
5
C4
100
AcDbEntity
8
raster
6
ByLayer
62
256
370
-1
100
AcDbLine
10
8.03
20
7.02
11
15.03
21
7.02
0
LINE
5
C5
100
AcDbEntity
8
raster
6
ByLayer
62
256
370
-1
100
AcDbLine
10
8.03
20
7.01
11
15.03
21
7.01
0
LINE
5
C6
100
AcDbEntity
8
raster
6
ByLayer
62
256
370
-1
100
AcDbLine
10
8.03
20
7
11
15.03
21
7
0
LINE
5
C7
100
AcDbEntity
8
raster
6
ByLayer
62
256
370
-1
100
AcDbLine
10
8.03
20
6.99
11
15.03
21
6.99
0
LINE
5
C8
100
AcDbEntity
8
raster
6
ByLayer
62
256
370
-1
100
AcDbLine
10
8.03
20
6.98
11
15.03
21
6.98
0
LINE
5
C9
100
AcDbEntity
8
raster
6
ByLayer
62
256
370
-1
100
AcDbLine
10
8.03
20
6.97
11
15.03
21
6.97
0
LINE
5
CA
100
AcDbEntity
8
raster
6
ByLayer
62
256
370
-1
100
AcDbLine
10
8.03
20
6.96
11
15.03
21
6.96
0
LINE
5
CB
100
AcDbEntity
8
raster
6
ByLayer
62
256
370
-1
100
AcDbLine
10
8.03
20
6.95
11
15.03
21
6.95
0
LINE
5
CC
100
AcDbEntity
8
raster
6
ByLayer
62
256
370
-1
100
AcDbLine
10
8.03
20
6.94
11
15.03
21
6.94
0
LINE
5
CD
100
AcDbEntity
8
raster
6
ByLayer
62
256
370
-1
100
AcDbLine
10
8.03
20
6.93
11
15.03
21
6.93
0
LINE
5
CE
100
AcDbEntity
8
raster
6
ByLayer
62
256
370
-1
100
AcDbLine
10
8.03
20
6.92
11
15.03
21
6.92
0
LINE
5
CF
100
AcDbEntity
8
raster
6
ByLayer
62
256
370
-1
100
AcDbLine
10
8.03
20
6.91
11
15.03
21
6.91
0
LINE
5
D0
100
AcDbEntity
8
raster
6
ByLayer
62
256
370
-1
100
AcDbLine
10
8.03
20
6.9
11
15.03
21
6.9
0
LINE
5
D1
100
AcDbEntity
8
raster
6
ByLayer
62
256
370
-1
100
AcDbLine
10
8.03
20
6.89
11
15.03
21
6.89
0
LINE
5
D2
100
AcDbEntity
8
raster
6
ByLayer
62
256
370
-1
100
AcDbLine
10
8.03
20
6.88
11
15.03
21
6.88
0
LINE
5
D3
100
AcDbEntity
8
raster
6
ByLayer
62
256
370
-1
100
AcDbLine
10
8.03
20
6.87
11
15.03
21
6.87
0
LINE
5
D4
100
AcDbEntity
8
raster
6
ByLayer
62
256
370
-1
100
AcDbLine
10
8.03
20
6.86
11
15.03
21
6.86
0
LINE
5
D5
100
AcDbEntity
8
raster
6
ByLayer
62
256
370
-1
100
AcDbLine
10
8.03
20
6.85
11
15.03
21
6.85
0
LINE
5
D6
100
AcDbEntity
8
raster
6
ByLayer
62
256
370
-1
100
AcDbLine
10
8.03
20
6.84
11
15.03
21
6.84
0
LINE
5
D7
100
AcDbEntity
8
raster
6
ByLayer
62
256
370
-1
100
AcDbLine
10
8.03
20
6.83
11
15.03
21
6.83
0
LINE
5
D8
100
AcDbEntity
8
raster
6
ByLayer
62
256
370
-1
100
AcDbLine
10
8.03
20
6.82
11
15.03
21
6.82
0
LINE
5
D9
100
AcDbEntity
8
raster
6
ByLayer
62
256
370
-1
100
AcDbLine
10
8.03
20
6.81
11
15.03
21
6.81
0
LINE
5
DA
100
AcDbEntity
8
raster
6
ByLayer
62
256
370
-1
100
AcDbLine
10
8.03
20
6.8
11
15.03
21
6.8
0
LINE
5
DB
100
AcDbEntity
8
raster
6
ByLayer
62
256
370
-1
100
AcDbLine
10
8.03
20
6.79
11
15.03
21
6.79
0
LINE
5
DC
100
AcDbEntity
8
raster
6
ByLayer
62
256
370
-1
100
AcDbLine
10
8.03
20
6.78
11
15.03
21
6.78
0
LINE
5
DD
100
AcDbEntity
8
raster
6
ByLayer
62
256
370
-1
100
AcDbLine
10
8.03
20
6.77
11
15.03
21
6.77
0
LINE
5
DE
100
AcDbEntity
8
raster
6
ByLayer
62
256
370
-1
100
AcDbLine
10
8.03
20
6.76
11
15.03
21
6.76
0
LINE
5
DF
100
AcDbEntity
8
raster
6
ByLayer
62
256
370
-1
100
AcDbLine
10
8.03
20
6.75
11
15.03
21
6.75
0
LINE
5
E0
100
AcDbEntity
8
raster
6
ByLayer
62
256
370
-1
100
AcDbLine
10
8.03
20
6.74
11
15.03
21
6.74
0
LINE
5
E1
100
AcDbEntity
8
raster
6
ByLayer
62
256
370
-1
100
AcDbLine
10
8.03
20
6.73
11
15.03
21
6.73
0
LINE
5
E2
100
AcDbEntity
8
raster
6
ByLayer
62
256
370
-1
100
AcDbLine
10
8.03
20
6.72
11
15.03
21
6.72
0
LINE
5
E3
100
AcDbEntity
8
raster
6
ByLayer
62
256
370
-1
100
AcDbLine
10
8.03
20
6.71
11
15.03
21
6.71
0
LINE
5
E4
100
AcDbEntity
8
raster
6
ByLayer
62
256
370
-1
100
AcDbLine
10
8.03
20
6.7
11
15.03
21
6.7
0
LINE
5
E5
100
AcDbEntity
8
raster
6
ByLayer
62
256
370
-1
100
AcDbLine
10
8.03
20
6.69
11
15.03
21
6.69
0
LINE
5
E6
100
AcDbEntity
8
raster
6
ByLayer
62
256
370
-1
100
AcDbLine
10
8.03
20
6.68
11
15.03
21
6.68
0
LINE
5
E7
100
AcDbEntity
8
raster
6
ByLayer
62
256
370
-1
100
AcDbLine
10
8.03
20
6.67
11
15.03
21
6.67
0
LINE
5
E8
100
AcDbEntity
8
raster
6
ByLayer
62
256
370
-1
100
AcDbLine
10
8.03
20
6.66
11
15.03
21
6.66
0
LINE
5
E9
100
AcDbEntity
8
raster
6
ByLayer
62
256
370
-1
100
AcDbLine
10
8.03
20
6.65
11
15.03
21
6.65
0
LINE
5
EA
100
AcDbEntity
8
raster
6
ByLayer
62
256
370
-1
100
AcDbLine
10
8.03
20
6.64
11
15.03
21
6.64
0
LINE
5
EB
100
AcDbEntity
8
raster
6
ByLayer
62
256
370
-1
100
AcDbLine
10
8.03
20
6.63
11
15.03
21
6.63
0
LINE
5
EC
100
AcDbEntity
8
raster
6
ByLayer
62
256
370
-1
100
AcDbLine
10
8.03
20
6.62
11
15.03
21
6.62
0
LINE
5
ED
100
AcDbEntity
8
raster
6
ByLayer
62
256
370
-1
100
AcDbLine
10
8.03
20
6.61
11
15.03
21
6.61
0
LINE
5
EE
100
AcDbEntity
8
raster
6
ByLayer
62
256
370
-1
100
AcDbLine
10
8.03
20
6.6
11
15.03
21
6.6
0
LINE
5
EF
100
AcDbEntity
8
raster
6
ByLayer
62
256
370
-1
100
AcDbLine
10
8.03
20
6.59
11
15.03
21
6.59
0
LINE
5
F0
100
AcDbEntity
8
raster
6
ByLayer
62
256
370
-1
100
AcDbLine
10
8.03
20
6.58
11
15.03
21
6.58
0
LINE
5
F1
100
AcDbEntity
8
raster
6
ByLayer
62
256
370
-1
100
AcDbLine
10
8.03
20
6.57
11
15.03
21
6.57
0
LINE
5
F2
100
AcDbEntity
8
raster
6
ByLayer
62
256
370
-1
100
AcDbLine
10
8.03
20
6.56
11
15.03
21
6.56
0
LINE
5
F3
100
AcDbEntity
8
raster
6
ByLayer
62
256
370
-1
100
AcDbLine
10
8.03
20
6.55
11
15.03
21
6.55
0
LINE
5
F4
100
AcDbEntity
8
raster
6
ByLayer
62
256
370
-1
100
AcDbLine
10
8.03
20
6.54
11
15.03
21
6.54
0
LINE
5
F5
100
AcDbEntity
8
raster
6
ByLayer
62
256
370
-1
100
AcDbLine
10
8.03
20
6.53
11
15.03
21
6.53
0
LINE
5
F6
100
AcDbEntity
8
raster
6
ByLayer
62
256
370
-1
100
AcDbLine
10
8.03
20
6.52
11
15.03
21
6.52
0
LINE
5
F7
100
AcDbEntity
8
raster
6
ByLayer
62
256
370
-1
100
AcDbLine
10
8.03
20
6.51
11
15.03
21
6.51
0
LINE
5
F8
100
AcDbEntity
8
raster
6
ByLayer
62
256
370
-1
100
AcDbLine
10
8.03
20
6.5
11
15.03
21
6.5
0
LINE
5
F9
100
AcDbEntity
8
raster
6
ByLayer
62
256
370
-1
100
AcDbLine
10
8.03
20
6.49
11
15.03
21
6.49
0
LINE
5
FA
100
AcDbEntity
8
raster
6
ByLayer
62
256
370
-1
100
AcDbLine
10
8.03
20
6.48
11
15.03
21
6.48
0
LINE
5
FB
100
AcDbEntity
8
raster
6
ByLayer
62
256
370
-1
100
AcDbLine
10
8.03
20
6.47
11
15.03
21
6.47
0
LINE
5
FC
100
AcDbEntity
8
raster
6
ByLayer
62
256
370
-1
100
AcDbLine
10
8.03
20
6.46
11
15.03
21
6.46
0
LINE
5
FD
100
AcDbEntity
8
raster
6
ByLayer
62
256
370
-1
100
AcDbLine
10
8.03
20
6.45
11
15.03
21
6.45
0
LINE
5
FE
100
AcDbEntity
8
raster
6
ByLayer
62
256
370
-1
100
AcDbLine
10
8.03
20
6.44
11
15.03
21
6.44
0
LINE
5
FF
100
AcDbEntity
8
raster
6
ByLayer
62
256
370
-1
100
AcDbLine
10
8.03
20
6.43
11
15.03
21
6.43
0
LINE
5
100
100
AcDbEntity
8
raster
6
ByLayer
62
256
370
-1
100
AcDbLine
10
8.03
20
6.42
11
15.03
21
6.42
0
LINE
5
101
100
AcDbEntity
8
raster
6
ByLayer
62
256
370
-1
100
AcDbLine
10
8.03
20
6.41
11
15.03
21
6.41
0
LINE
5
102
100
AcDbEntity
8
raster
6
ByLayer
62
256
370
-1
100
AcDbLine
10
8.03
20
6.4
11
15.03
21
6.4
0
LINE
5
103
100
AcDbEntity
8
raster
6
ByLayer
62
256
370
-1
100
AcDbLine
10
8.03
20
6.39
11
15.03
21
6.39
0
LINE
5
104
100
AcDbEntity
8
raster
6
ByLayer
62
256
370
-1
100
AcDbLine
10
8.03
20
6.38
11
15.03
21
6.38
0
LINE
5
105
100
AcDbEntity
8
raster
6
ByLayer
62
256
370
-1
100
AcDbLine
10
8.03
20
6.37
11
15.03
21
6.37
0
LINE
5
106
100
AcDbEntity
8
raster
6
ByLayer
62
256
370
-1
100
AcDbLine
10
8.03
20
6.36
11
15.03
21
6.36
0
LINE
5
107
100
AcDbEntity
8
raster
6
ByLayer
62
256
370
-1
100
AcDbLine
10
8.03
20
6.35
11
15.03
21
6.35
0
LINE
5
108
100
AcDbEntity
8
raster
6
ByLayer
62
256
370
-1
100
AcDbLine
10
8.03
20
6.34
11
15.03
21
6.34
0
LINE
5
109
100
AcDbEntity
8
raster
6
ByLayer
62
256
370
-1
100
AcDbLine
10
8.03
20
6.33
11
15.03
21
6.33
0
LINE
5
10A
100
AcDbEntity
8
raster
6
ByLayer
62
256
370
-1
100
AcDbLine
10
8.03
20
6.32
11
15.03
21
6.32
0
LINE
5
10B
100
AcDbEntity
8
raster
6
ByLayer
62
256
370
-1
100
AcDbLine
10
8.03
20
6.31
11
15.03
21
6.31
0
LINE
5
10C
100
AcDbEntity
8
raster
6
ByLayer
62
256
370
-1
100
AcDbLine
10
8.03
20
6.3
11
15.03
21
6.3
0
LINE
5
10D
100
AcDbEntity
8
raster
6
ByLayer
62
256
370
-1
100
AcDbLine
10
8.03
20
6.29
11
15.03
21
6.29
0
LINE
5
10E
100
AcDbEntity
8
raster
6
ByLayer
62
256
370
-1
100
AcDbLine
10
8.03
20
6.28
11
15.03
21
6.28
0
LINE
5
10F
100
AcDbEntity
8
raster
6
ByLayer
62
256
370
-1
100
AcDbLine
10
8.03
20
6.27
11
15.03
21
6.27
0
LINE
5
110
100
AcDbEntity
8
raster
6
ByLayer
62
256
370
-1
100
AcDbLine
10
8.03
20
6.26
11
15.03
21
6.26
0
LINE
5
111
100
AcDbEntity
8
raster
6
ByLayer
62
256
370
-1
100
AcDbLine
10
8.03
20
6.25
11
15.03
21
6.25
0
LINE
5
112
100
AcDbEntity
8
raster
6
ByLayer
62
256
370
-1
100
AcDbLine
10
8.03
20
6.24
11
15.03
21
6.24
0
LINE
5
113
100
AcDbEntity
8
raster
6
ByLayer
62
256
370
-1
100
AcDbLine
10
8.03
20
6.23
11
15.03
21
6.23
0
LINE
5
114
100
AcDbEntity
8
raster
6
ByLayer
62
256
370
-1
100
AcDbLine
10
8.03
20
6.22
11
15.03
21
6.22
0
LINE
5
115
100
AcDbEntity
8
raster
6
ByLayer
62
256
370
-1
100
AcDbLine
10
8.03
20
6.21
11
15.03
21
6.21
0
LINE
5
116
100
AcDbEntity
8
raster
6
ByLayer
62
256
370
-1
100
AcDbLine
10
8.03
20
6.2
11
15.03
21
6.2
0
LINE
5
117
100
AcDbEntity
8
raster
6
ByLayer
62
256
370
-1
100
AcDbLine
10
8.03
20
6.19
11
15.03
21
6.19
0
LINE
5
118
100
AcDbEntity
8
raster
6
ByLayer
62
256
370
-1
100
AcDbLine
10
8.03
20
6.18
11
15.03
21
6.18
0
LINE
5
119
100
AcDbEntity
8
raster
6
ByLayer
62
256
370
-1
100
AcDbLine
10
8.03
20
6.17
11
15.03
21
6.17
0
LINE
5
11A
100
AcDbEntity
8
raster
6
ByLayer
62
256
370
-1
100
AcDbLine
10
8.03
20
6.16
11
15.03
21
6.16
0
LINE
5
11B
100
AcDbEntity
8
raster
6
ByLayer
62
256
370
-1
100
AcDbLine
10
8.03
20
6.15
11
15.03
21
6.15
0
LINE
5
11C
100
AcDbEntity
8
raster
6
ByLayer
62
256
370
-1
100
AcDbLine
10
8.03
20
6.14
11
15.03
21
6.14
0
LINE
5
11D
100
AcDbEntity
8
raster
6
ByLayer
62
256
370
-1
100
AcDbLine
10
8.03
20
6.13
11
15.03
21
6.13
0
LINE
5
11E
100
AcDbEntity
8
raster
6
ByLayer
62
256
370
-1
100
AcDbLine
10
8.03
20
6.12
11
15.03
21
6.12
0
LINE
5
11F
100
AcDbEntity
8
raster
6
ByLayer
62
256
370
-1
100
AcDbLine
10
8.03
20
6.11
11
15.03
21
6.11
0
LINE
5
120
100
AcDbEntity
8
raster
6
ByLayer
62
256
370
-1
100
AcDbLine
10
8.03
20
6.1
11
15.03
21
6.1
0
LINE
5
121
100
AcDbEntity
8
raster
6
ByLayer
62
256
370
-1
100
AcDbLine
10
8.03
20
6.09
11
15.03
21
6.09
0
LINE
5
122
100
AcDbEntity
8
raster
6
ByLayer
62
256
370
-1
100
AcDbLine
10
8.03
20
6.08
11
15.03
21
6.08
0
LINE
5
123
100
AcDbEntity
8
raster
6
ByLayer
62
256
370
-1
100
AcDbLine
10
8.03
20
6.07
11
15.03
21
6.07
0
LINE
5
124
100
AcDbEntity
8
raster
6
ByLayer
62
256
370
-1
100
AcDbLine
10
8.03
20
6.06
11
15.03
21
6.06
0
LINE
5
125
100
AcDbEntity
8
raster
6
ByLayer
62
256
370
-1
100
AcDbLine
10
8.03
20
6.05
11
15.03
21
6.05
0
LINE
5
126
100
AcDbEntity
8
raster
6
ByLayer
62
256
370
-1
100
AcDbLine
10
8.03
20
6.04
11
15.03
21
6.04
0
LINE
5
127
100
AcDbEntity
8
raster
6
ByLayer
62
256
370
-1
100
AcDbLine
10
8.03
20
6.03
11
15.03
21
6.03
0
LINE
5
128
100
AcDbEntity
8
raster
6
ByLayer
62
256
370
-1
100
AcDbLine
10
8.03
20
6.02
11
15.03
21
6.02
0
LINE
5
129
100
AcDbEntity
8
raster
6
ByLayer
62
256
370
-1
100
AcDbLine
10
8.03
20
6.01
11
15.03
21
6.01
0
LINE
5
12A
100
AcDbEntity
8
raster
6
ByLayer
62
256
370
-1
100
AcDbLine
10
8.03
20
6
11
15.03
21
6
0
LINE
5
12B
100
AcDbEntity
8
raster
6
ByLayer
62
256
370
-1
100
AcDbLine
10
8.03
20
5.99
11
15.03
21
5.99
0
LINE
5
12C
100
AcDbEntity
8
raster
6
ByLayer
62
256
370
-1
100
AcDbLine
10
8.03
20
5.98
11
15.03
21
5.98
0
LINE
5
12D
100
AcDbEntity
8
raster
6
ByLayer
62
256
370
-1
100
AcDbLine
10
8.03
20
5.97
11
15.03
21
5.97
0
LINE
5
12E
100
AcDbEntity
8
raster
6
ByLayer
62
256
370
-1
100
AcDbLine
10
8.03
20
5.96
11
15.03
21
5.96
0
LINE
5
12F
100
AcDbEntity
8
raster
6
ByLayer
62
256
370
-1
100
AcDbLine
10
8.03
20
5.95
11
15.03
21
5.95
0
LINE
5
130
100
AcDbEntity
8
raster
6
ByLayer
62
256
370
-1
100
AcDbLine
10
8.03
20
5.94
11
15.03
21
5.94
0
LINE
5
131
100
AcDbEntity
8
raster
6
ByLayer
62
256
370
-1
100
AcDbLine
10
8.03
20
5.93
11
15.03
21
5.93
0
LINE
5
132
100
AcDbEntity
8
raster
6
ByLayer
62
256
370
-1
100
AcDbLine
10
8.03
20
5.92
11
15.03
21
5.92
0
LINE
5
133
100
AcDbEntity
8
raster
6
ByLayer
62
256
370
-1
100
AcDbLine
10
8.03
20
5.91
11
15.03
21
5.91
0
LINE
5
134
100
AcDbEntity
8
raster
6
ByLayer
62
256
370
-1
100
AcDbLine
10
8.03
20
5.9
11
15.03
21
5.9
0
LINE
5
135
100
AcDbEntity
8
raster
6
ByLayer
62
256
370
-1
100
AcDbLine
10
8.03
20
5.89
11
15.03
21
5.89
0
LINE
5
136
100
AcDbEntity
8
raster
6
ByLayer
62
256
370
-1
100
AcDbLine
10
8.03
20
5.88
11
15.03
21
5.88
0
LINE
5
137
100
AcDbEntity
8
raster
6
ByLayer
62
256
370
-1
100
AcDbLine
10
8.03
20
5.87
11
15.03
21
5.87
0
LINE
5
138
100
AcDbEntity
8
raster
6
ByLayer
62
256
370
-1
100
AcDbLine
10
8.03
20
5.86
11
15.03
21
5.86
0
LINE
5
139
100
AcDbEntity
8
raster
6
ByLayer
62
256
370
-1
100
AcDbLine
10
8.03
20
5.85
11
15.03
21
5.85
0
LINE
5
13A
100
AcDbEntity
8
raster
6
ByLayer
62
256
370
-1
100
AcDbLine
10
8.03
20
5.84
11
15.03
21
5.84
0
LINE
5
13B
100
AcDbEntity
8
raster
6
ByLayer
62
256
370
-1
100
AcDbLine
10
8.03
20
5.83
11
15.03
21
5.83
0
LINE
5
13C
100
AcDbEntity
8
raster
6
ByLayer
62
256
370
-1
100
AcDbLine
10
8.03
20
5.82
11
15.03
21
5.82
0
LINE
5
13D
100
AcDbEntity
8
raster
6
ByLayer
62
256
370
-1
100
AcDbLine
10
8.03
20
5.81
11
15.03
21
5.81
0
LINE
5
13E
100
AcDbEntity
8
raster
6
ByLayer
62
256
370
-1
100
AcDbLine
10
8.03
20
5.8
11
15.03
21
5.8
0
LINE
5
13F
100
AcDbEntity
8
raster
6
ByLayer
62
256
370
-1
100
AcDbLine
10
8.03
20
5.79
11
15.03
21
5.79
0
LINE
5
140
100
AcDbEntity
8
raster
6
ByLayer
62
256
370
-1
100
AcDbLine
10
8.03
20
5.78
11
15.03
21
5.78
0
LINE
5
141
100
AcDbEntity
8
raster
6
ByLayer
62
256
370
-1
100
AcDbLine
10
8.03
20
5.77
11
15.03
21
5.77
0
LINE
5
142
100
AcDbEntity
8
raster
6
ByLayer
62
256
370
-1
100
AcDbLine
10
8.03
20
5.76
11
15.03
21
5.76
0
LINE
5
143
100
AcDbEntity
8
raster
6
ByLayer
62
256
370
-1
100
AcDbLine
10
8.03
20
5.75
11
15.03
21
5.75
0
LINE
5
144
100
AcDbEntity
8
raster
6
ByLayer
62
256
370
-1
100
AcDbLine
10
8.03
20
5.74
11
15.03
21
5.74
0
LINE
5
145
100
AcDbEntity
8
raster
6
ByLayer
62
256
370
-1
100
AcDbLine
10
8.03
20
5.73
11
15.03
21
5.73
0
LINE
5
146
100
AcDbEntity
8
raster
6
ByLayer
62
256
370
-1
100
AcDbLine
10
8.03
20
5.72
11
15.03
21
5.72
0
LINE
5
147
100
AcDbEntity
8
raster
6
ByLayer
62
256
370
-1
100
AcDbLine
10
8.03
20
5.71
11
15.03
21
5.71
0
LINE
5
148
100
AcDbEntity
8
raster
6
ByLayer
62
256
370
-1
100
AcDbLine
10
8.03
20
5.7
11
15.03
21
5.7
0
LINE
5
149
100
AcDbEntity
8
raster
6
ByLayer
62
256
370
-1
100
AcDbLine
10
8.03
20
5.69
11
15.03
21
5.69
0
LINE
5
14A
100
AcDbEntity
8
raster
6
ByLayer
62
256
370
-1
100
AcDbLine
10
8.03
20
5.68
11
15.03
21
5.68
0
LINE
5
14B
100
AcDbEntity
8
raster
6
ByLayer
62
256
370
-1
100
AcDbLine
10
8.03
20
5.67
11
15.03
21
5.67
0
LINE
5
14C
100
AcDbEntity
8
raster
6
ByLayer
62
256
370
-1
100
AcDbLine
10
8.03
20
5.66
11
15.03
21
5.66
0
LINE
5
14D
100
AcDbEntity
8
raster
6
ByLayer
62
256
370
-1
100
AcDbLine
10
8.03
20
5.65
11
15.03
21
5.65
0
LINE
5
14E
100
AcDbEntity
8
raster
6
ByLayer
62
256
370
-1
100
AcDbLine
10
8.03
20
5.64
11
15.03
21
5.64
0
LINE
5
14F
100
AcDbEntity
8
raster
6
ByLayer
62
256
370
-1
100
AcDbLine
10
8.03
20
5.63
11
15.03
21
5.63
0
LINE
5
150
100
AcDbEntity
8
raster
6
ByLayer
62
256
370
-1
100
AcDbLine
10
8.03
20
5.62
11
15.03
21
5.62
0
LINE
5
151
100
AcDbEntity
8
raster
6
ByLayer
62
256
370
-1
100
AcDbLine
10
8.03
20
5.61
11
15.03
21
5.61
0
LINE
5
152
100
AcDbEntity
8
raster
6
ByLayer
62
256
370
-1
100
AcDbLine
10
8.03
20
5.6
11
15.03
21
5.6
0
LINE
5
153
100
AcDbEntity
8
raster
6
ByLayer
62
256
370
-1
100
AcDbLine
10
8.03
20
5.59
11
15.03
21
5.59
0
LINE
5
154
100
AcDbEntity
8
raster
6
ByLayer
62
256
370
-1
100
AcDbLine
10
8.03
20
5.58
11
15.03
21
5.58
0
LINE
5
155
100
AcDbEntity
8
raster
6
ByLayer
62
256
370
-1
100
AcDbLine
10
8.03
20
5.57
11
15.03
21
5.57
0
LINE
5
156
100
AcDbEntity
8
raster
6
ByLayer
62
256
370
-1
100
AcDbLine
10
8.03
20
5.56
11
15.03
21
5.56
0
LINE
5
157
100
AcDbEntity
8
raster
6
ByLayer
62
256
370
-1
100
AcDbLine
10
8.03
20
5.55
11
15.03
21
5.55
0
LINE
5
158
100
AcDbEntity
8
raster
6
ByLayer
62
256
370
-1
100
AcDbLine
10
8.03
20
5.54
11
15.03
21
5.54
0
LINE
5
159
100
AcDbEntity
8
raster
6
ByLayer
62
256
370
-1
100
AcDbLine
10
8.03
20
5.53
11
15.03
21
5.53
0
LINE
5
15A
100
AcDbEntity
8
raster
6
ByLayer
62
256
370
-1
100
AcDbLine
10
8.03
20
5.52
11
15.03
21
5.52
0
LINE
5
15B
100
AcDbEntity
8
raster
6
ByLayer
62
256
370
-1
100
AcDbLine
10
8.03
20
5.51
11
15.03
21
5.51
0
LINE
5
15C
100
AcDbEntity
8
raster
6
ByLayer
62
256
370
-1
100
AcDbLine
10
8.03
20
5.5
11
15.03
21
5.5
0
LINE
5
15D
100
AcDbEntity
8
raster
6
ByLayer
62
256
370
-1
100
AcDbLine
10
8.03
20
5.49
11
15.03
21
5.49
0
LINE
5
15E
100
AcDbEntity
8
raster
6
ByLayer
62
256
370
-1
100
AcDbLine
10
8.03
20
5.48
11
15.03
21
5.48
0
LINE
5
15F
100
AcDbEntity
8
raster
6
ByLayer
62
256
370
-1
100
AcDbLine
10
8.03
20
5.47
11
15.03
21
5.47
0
LINE
5
160
100
AcDbEntity
8
raster
6
ByLayer
62
256
370
-1
100
AcDbLine
10
8.03
20
5.46
11
15.03
21
5.46
0
LINE
5
161
100
AcDbEntity
8
raster
6
ByLayer
62
256
370
-1
100
AcDbLine
10
8.03
20
5.45
11
15.03
21
5.45
0
LINE
5
162
100
AcDbEntity
8
raster
6
ByLayer
62
256
370
-1
100
AcDbLine
10
8.03
20
5.44
11
15.03
21
5.44
0
LINE
5
163
100
AcDbEntity
8
raster
6
ByLayer
62
256
370
-1
100
AcDbLine
10
8.03
20
5.43
11
15.03
21
5.43
0
LINE
5
164
100
AcDbEntity
8
raster
6
ByLayer
62
256
370
-1
100
AcDbLine
10
8.03
20
5.42
11
15.03
21
5.42
0
LINE
5
165
100
AcDbEntity
8
raster
6
ByLayer
62
256
370
-1
100
AcDbLine
10
8.03
20
5.41
11
15.03
21
5.41
0
LINE
5
166
100
AcDbEntity
8
raster
6
ByLayer
62
256
370
-1
100
AcDbLine
10
8.03
20
5.4
11
15.03
21
5.4
0
LINE
5
167
100
AcDbEntity
8
raster
6
ByLayer
62
256
370
-1
100
AcDbLine
10
8.03
20
5.39
11
15.03
21
5.39
0
LINE
5
168
100
AcDbEntity
8
raster
6
ByLayer
62
256
370
-1
100
AcDbLine
10
8.03
20
5.38
11
15.03
21
5.38
0
LINE
5
169
100
AcDbEntity
8
raster
6
ByLayer
62
256
370
-1
100
AcDbLine
10
8.03
20
5.37
11
15.03
21
5.37
0
LINE
5
16A
100
AcDbEntity
8
raster
6
ByLayer
62
256
370
-1
100
AcDbLine
10
8.03
20
5.36
11
15.03
21
5.36
0
LINE
5
16B
100
AcDbEntity
8
raster
6
ByLayer
62
256
370
-1
100
AcDbLine
10
8.03
20
5.35
11
15.03
21
5.35
0
LINE
5
16C
100
AcDbEntity
8
raster
6
ByLayer
62
256
370
-1
100
AcDbLine
10
8.03
20
5.34
11
15.03
21
5.34
0
LINE
5
16D
100
AcDbEntity
8
raster
6
ByLayer
62
256
370
-1
100
AcDbLine
10
8.03
20
5.33
11
15.03
21
5.33
0
LINE
5
16E
100
AcDbEntity
8
raster
6
ByLayer
62
256
370
-1
100
AcDbLine
10
8.03
20
5.32
11
15.03
21
5.32
0
LINE
5
16F
100
AcDbEntity
8
raster
6
ByLayer
62
256
370
-1
100
AcDbLine
10
8.03
20
5.31
11
15.03
21
5.31
0
LINE
5
170
100
AcDbEntity
8
raster
6
ByLayer
62
256
370
-1
100
AcDbLine
10
8.03
20
5.3
11
15.03
21
5.3
0
LINE
5
171
100
AcDbEntity
8
raster
6
ByLayer
62
256
370
-1
100
AcDbLine
10
8.03
20
5.29
11
15.03
21
5.29
0
LINE
5
172
100
AcDbEntity
8
raster
6
ByLayer
62
256
370
-1
100
AcDbLine
10
8.03
20
5.28
11
15.03
21
5.28
0
LINE
5
173
100
AcDbEntity
8
raster
6
ByLayer
62
256
370
-1
100
AcDbLine
10
8.03
20
5.27
11
15.03
21
5.27
0
LINE
5
174
100
AcDbEntity
8
raster
6
ByLayer
62
256
370
-1
100
AcDbLine
10
8.03
20
5.26
11
15.03
21
5.26
0
LINE
5
175
100
AcDbEntity
8
raster
6
ByLayer
62
256
370
-1
100
AcDbLine
10
8.03
20
5.25
11
15.03
21
5.25
0
LINE
5
176
100
AcDbEntity
8
raster
6
ByLayer
62
256
370
-1
100
AcDbLine
10
8.03
20
5.24
11
15.03
21
5.24
0
LINE
5
177
100
AcDbEntity
8
raster
6
ByLayer
62
256
370
-1
100
AcDbLine
10
8.03
20
5.23
11
15.03
21
5.23
0
LINE
5
178
100
AcDbEntity
8
raster
6
ByLayer
62
256
370
-1
100
AcDbLine
10
8.03
20
5.22
11
15.03
21
5.22
0
LINE
5
179
100
AcDbEntity
8
raster
6
ByLayer
62
256
370
-1
100
AcDbLine
10
8.03
20
5.21
11
15.03
21
5.21
0
LINE
5
17A
100
AcDbEntity
8
raster
6
ByLayer
62
256
370
-1
100
AcDbLine
10
8.03
20
5.2
11
15.03
21
5.2
0
LINE
5
17B
100
AcDbEntity
8
raster
6
ByLayer
62
256
370
-1
100
AcDbLine
10
8.03
20
5.19
11
15.03
21
5.19
0
LINE
5
17C
100
AcDbEntity
8
raster
6
ByLayer
62
256
370
-1
100
AcDbLine
10
8.03
20
5.18
11
15.03
21
5.18
0
LINE
5
17D
100
AcDbEntity
8
raster
6
ByLayer
62
256
370
-1
100
AcDbLine
10
8.03
20
5.17
11
15.03
21
5.17
0
LINE
5
17E
100
AcDbEntity
8
raster
6
ByLayer
62
256
370
-1
100
AcDbLine
10
8.03
20
5.16
11
15.03
21
5.16
0
LINE
5
17F
100
AcDbEntity
8
raster
6
ByLayer
62
256
370
-1
100
AcDbLine
10
8.03
20
5.15
11
15.03
21
5.15
0
LINE
5
180
100
AcDbEntity
8
raster
6
ByLayer
62
256
370
-1
100
AcDbLine
10
8.03
20
5.14
11
15.03
21
5.14
0
LINE
5
181
100
AcDbEntity
8
raster
6
ByLayer
62
256
370
-1
100
AcDbLine
10
8.03
20
5.13
11
15.03
21
5.13
0
LINE
5
182
100
AcDbEntity
8
raster
6
ByLayer
62
256
370
-1
100
AcDbLine
10
8.03
20
5.12
11
15.03
21
5.12
0
LINE
5
183
100
AcDbEntity
8
raster
6
ByLayer
62
256
370
-1
100
AcDbLine
10
8.03
20
5.11
11
15.03
21
5.11
0
LINE
5
184
100
AcDbEntity
8
raster
6
ByLayer
62
256
370
-1
100
AcDbLine
10
8.03
20
5.1
11
15.03
21
5.1
0
LINE
5
185
100
AcDbEntity
8
raster
6
ByLayer
62
256
370
-1
100
AcDbLine
10
8.03
20
5.09
11
15.03
21
5.09
0
LINE
5
186
100
AcDbEntity
8
raster
6
ByLayer
62
256
370
-1
100
AcDbLine
10
8.03
20
5.08
11
15.03
21
5.08
0
LINE
5
187
100
AcDbEntity
8
raster
6
ByLayer
62
256
370
-1
100
AcDbLine
10
8.03
20
5.07
11
15.03
21
5.07
0
LINE
5
188
100
AcDbEntity
8
raster
6
ByLayer
62
256
370
-1
100
AcDbLine
10
8.03
20
5.06
11
15.03
21
5.06
0
LINE
5
189
100
AcDbEntity
8
raster
6
ByLayer
62
256
370
-1
100
AcDbLine
10
8.03
20
5.05
11
15.03
21
5.05
0
LINE
5
18A
100
AcDbEntity
8
raster
6
ByLayer
62
256
370
-1
100
AcDbLine
10
8.03
20
5.04
11
15.03
21
5.04
0
LINE
5
18B
100
AcDbEntity
8
raster
6
ByLayer
62
256
370
-1
100
AcDbLine
10
8.03
20
5.03
11
15.03
21
5.03
0
LINE
5
18C
100
AcDbEntity
8
raster
6
ByLayer
62
256
370
-1
100
AcDbLine
10
8.03
20
5.02
11
15.03
21
5.02
0
LINE
5
18D
100
AcDbEntity
8
raster
6
ByLayer
62
256
370
-1
100
AcDbLine
10
8.03
20
5.01
11
15.03
21
5.01
0
LINE
5
18E
100
AcDbEntity
8
raster
6
ByLayer
62
256
370
-1
100
AcDbLine
10
8.03
20
5
11
15.03
21
5
0
LINE
5
18F
100
AcDbEntity
8
raster
6
ByLayer
62
256
370
-1
100
AcDbLine
10
8.03
20
4.99
11
15.03
21
4.99
0
LINE
5
190
100
AcDbEntity
8
raster
6
ByLayer
62
256
370
-1
100
AcDbLine
10
8.03
20
4.98
11
15.03
21
4.98
0
LINE
5
191
100
AcDbEntity
8
raster
6
ByLayer
62
256
370
-1
100
AcDbLine
10
8.03
20
4.97
11
15.03
21
4.97
0
LINE
5
192
100
AcDbEntity
8
raster
6
ByLayer
62
256
370
-1
100
AcDbLine
10
8.03
20
4.96
11
15.03
21
4.96
0
LINE
5
193
100
AcDbEntity
8
raster
6
ByLayer
62
256
370
-1
100
AcDbLine
10
8.03
20
4.95
11
15.03
21
4.95
0
LINE
5
194
100
AcDbEntity
8
raster
6
ByLayer
62
256
370
-1
100
AcDbLine
10
8.03
20
4.94
11
15.03
21
4.94
0
LINE
5
195
100
AcDbEntity
8
raster
6
ByLayer
62
256
370
-1
100
AcDbLine
10
8.03
20
4.93
11
15.03
21
4.93
0
LINE
5
196
100
AcDbEntity
8
raster
6
ByLayer
62
256
370
-1
100
AcDbLine
10
8.03
20
4.92
11
15.03
21
4.92
0
LINE
5
197
100
AcDbEntity
8
raster
6
ByLayer
62
256
370
-1
100
AcDbLine
10
8.03
20
4.91
11
15.03
21
4.91
0
LINE
5
198
100
AcDbEntity
8
raster
6
ByLayer
62
256
370
-1
100
AcDbLine
10
8.03
20
4.9
11
15.03
21
4.9
0
LINE
5
199
100
AcDbEntity
8
raster
6
ByLayer
62
256
370
-1
100
AcDbLine
10
8.03
20
4.89
11
15.03
21
4.89
0
LINE
5
19A
100
AcDbEntity
8
raster
6
ByLayer
62
256
370
-1
100
AcDbLine
10
8.03
20
4.88
11
15.03
21
4.88
0
LINE
5
19B
100
AcDbEntity
8
raster
6
ByLayer
62
256
370
-1
100
AcDbLine
10
8.03
20
4.87
11
15.03
21
4.87
0
LINE
5
19C
100
AcDbEntity
8
raster
6
ByLayer
62
256
370
-1
100
AcDbLine
10
8.03
20
4.86
11
15.03
21
4.86
0
LINE
5
19D
100
AcDbEntity
8
raster
6
ByLayer
62
256
370
-1
100
AcDbLine
10
8.03
20
4.85
11
15.03
21
4.85
0
LINE
5
19E
100
AcDbEntity
8
raster
6
ByLayer
62
256
370
-1
100
AcDbLine
10
8.03
20
4.84
11
15.03
21
4.84
0
LINE
5
19F
100
AcDbEntity
8
raster
6
ByLayer
62
256
370
-1
100
AcDbLine
10
8.03
20
4.83
11
15.03
21
4.83
0
LINE
5
1A0
100
AcDbEntity
8
raster
6
ByLayer
62
256
370
-1
100
AcDbLine
10
8.03
20
4.82
11
15.03
21
4.82
0
LINE
5
1A1
100
AcDbEntity
8
raster
6
ByLayer
62
256
370
-1
100
AcDbLine
10
8.03
20
4.81
11
15.03
21
4.81
0
LINE
5
1A2
100
AcDbEntity
8
raster
6
ByLayer
62
256
370
-1
100
AcDbLine
10
8.03
20
4.8
11
15.03
21
4.8
0
LINE
5
1A3
100
AcDbEntity
8
raster
6
ByLayer
62
256
370
-1
100
AcDbLine
10
8.03
20
4.79
11
15.03
21
4.79
0
LINE
5
1A4
100
AcDbEntity
8
raster
6
ByLayer
62
256
370
-1
100
AcDbLine
10
8.03
20
4.78
11
15.03
21
4.78
0
LINE
5
1A5
100
AcDbEntity
8
raster
6
ByLayer
62
256
370
-1
100
AcDbLine
10
8.03
20
4.77
11
15.03
21
4.77
0
LINE
5
1A6
100
AcDbEntity
8
raster
6
ByLayer
62
256
370
-1
100
AcDbLine
10
8.03
20
4.76
11
15.03
21
4.76
0
LINE
5
1A7
100
AcDbEntity
8
raster
6
ByLayer
62
256
370
-1
100
AcDbLine
10
8.03
20
4.75
11
15.03
21
4.75
0
LINE
5
1A8
100
AcDbEntity
8
raster
6
ByLayer
62
256
370
-1
100
AcDbLine
10
8.03
20
4.74
11
15.03
21
4.74
0
LINE
5
1A9
100
AcDbEntity
8
raster
6
ByLayer
62
256
370
-1
100
AcDbLine
10
8.03
20
4.73
11
15.03
21
4.73
0
LINE
5
1AA
100
AcDbEntity
8
raster
6
ByLayer
62
256
370
-1
100
AcDbLine
10
8.03
20
4.72
11
15.03
21
4.72
0
LINE
5
1AB
100
AcDbEntity
8
raster
6
ByLayer
62
256
370
-1
100
AcDbLine
10
8.03
20
4.71
11
15.03
21
4.71
0
LINE
5
1AC
100
AcDbEntity
8
raster
6
ByLayer
62
256
370
-1
100
AcDbLine
10
8.03
20
4.7
11
15.03
21
4.7
0
LINE
5
1AD
100
AcDbEntity
8
raster
6
ByLayer
62
256
370
-1
100
AcDbLine
10
8.03
20
4.69
11
15.03
21
4.69
0
LINE
5
1AE
100
AcDbEntity
8
raster
6
ByLayer
62
256
370
-1
100
AcDbLine
10
8.03
20
4.68
11
15.03
21
4.68
0
LINE
5
1AF
100
AcDbEntity
8
raster
6
ByLayer
62
256
370
-1
100
AcDbLine
10
8.03
20
4.67
11
15.03
21
4.67
0
LINE
5
1B0
100
AcDbEntity
8
raster
6
ByLayer
62
256
370
-1
100
AcDbLine
10
8.03
20
4.66
11
15.03
21
4.66
0
LINE
5
1B1
100
AcDbEntity
8
raster
6
ByLayer
62
256
370
-1
100
AcDbLine
10
8.03
20
4.65
11
15.03
21
4.65
0
LINE
5
1B2
100
AcDbEntity
8
raster
6
ByLayer
62
256
370
-1
100
AcDbLine
10
8.03
20
4.64
11
15.03
21
4.64
0
LINE
5
1B3
100
AcDbEntity
8
raster
6
ByLayer
62
256
370
-1
100
AcDbLine
10
8.03
20
4.63
11
15.03
21
4.63
0
LINE
5
1B4
100
AcDbEntity
8
raster
6
ByLayer
62
256
370
-1
100
AcDbLine
10
8.03
20
4.62
11
15.03
21
4.62
0
LINE
5
1B5
100
AcDbEntity
8
raster
6
ByLayer
62
256
370
-1
100
AcDbLine
10
8.03
20
4.61
11
15.03
21
4.61
0
LINE
5
1B6
100
AcDbEntity
8
raster
6
ByLayer
62
256
370
-1
100
AcDbLine
10
8.03
20
4.6
11
15.03
21
4.6
0
LINE
5
1B7
100
AcDbEntity
8
raster
6
ByLayer
62
256
370
-1
100
AcDbLine
10
8.03
20
4.59
11
15.03
21
4.59
0
LINE
5
1B8
100
AcDbEntity
8
raster
6
ByLayer
62
256
370
-1
100
AcDbLine
10
8.03
20
4.58
11
15.03
21
4.58
0
LINE
5
1B9
100
AcDbEntity
8
raster
6
ByLayer
62
256
370
-1
100
AcDbLine
10
8.03
20
4.57
11
15.03
21
4.57
0
LINE
5
1BA
100
AcDbEntity
8
raster
6
ByLayer
62
256
370
-1
100
AcDbLine
10
8.03
20
4.56
11
15.03
21
4.56
0
LINE
5
1BB
100
AcDbEntity
8
raster
6
ByLayer
62
256
370
-1
100
AcDbLine
10
8.03
20
4.55
11
15.03
21
4.55
0
LINE
5
1BC
100
AcDbEntity
8
raster
6
ByLayer
62
256
370
-1
100
AcDbLine
10
8.03
20
4.54
11
15.03
21
4.54
0
LINE
5
1BD
100
AcDbEntity
8
raster
6
ByLayer
62
256
370
-1
100
AcDbLine
10
8.03
20
4.53
11
15.03
21
4.53
0
LINE
5
1BE
100
AcDbEntity
8
raster
6
ByLayer
62
256
370
-1
100
AcDbLine
10
8.03
20
4.52
11
15.03
21
4.52
0
LINE
5
1BF
100
AcDbEntity
8
raster
6
ByLayer
62
256
370
-1
100
AcDbLine
10
8.03
20
4.51
11
15.03
21
4.51
0
LINE
5
1C0
100
AcDbEntity
8
raster
6
ByLayer
62
256
370
-1
100
AcDbLine
10
8.03
20
4.5
11
15.03
21
4.5
0
LINE
5
1C1
100
AcDbEntity
8
raster
6
ByLayer
62
256
370
-1
100
AcDbLine
10
8.03
20
4.49
11
15.03
21
4.49
0
LINE
5
1C2
100
AcDbEntity
8
raster
6
ByLayer
62
256
370
-1
100
AcDbLine
10
8.03
20
4.48
11
15.03
21
4.48
0
LINE
5
1C3
100
AcDbEntity
8
raster
6
ByLayer
62
256
370
-1
100
AcDbLine
10
8.03
20
4.47
11
15.03
21
4.47
0
LINE
5
1C4
100
AcDbEntity
8
raster
6
ByLayer
62
256
370
-1
100
AcDbLine
10
8.03
20
4.46
11
15.03
21
4.46
0
LINE
5
1C5
100
AcDbEntity
8
raster
6
ByLayer
62
256
370
-1
100
AcDbLine
10
8.03
20
4.45
11
15.03
21
4.45
0
LINE
5
1C6
100
AcDbEntity
8
raster
6
ByLayer
62
256
370
-1
100
AcDbLine
10
8.03
20
4.44
11
15.03
21
4.44
0
LINE
5
1C7
100
AcDbEntity
8
raster
6
ByLayer
62
256
370
-1
100
AcDbLine
10
8.03
20
4.43
11
15.03
21
4.43
0
LINE
5
1C8
100
AcDbEntity
8
raster
6
ByLayer
62
256
370
-1
100
AcDbLine
10
8.03
20
4.42
11
15.03
21
4.42
0
LINE
5
1C9
100
AcDbEntity
8
raster
6
ByLayer
62
256
370
-1
100
AcDbLine
10
8.03
20
4.41
11
15.03
21
4.41
0
LINE
5
1CA
100
AcDbEntity
8
raster
6
ByLayer
62
256
370
-1
100
AcDbLine
10
8.03
20
4.4
11
15.03
21
4.4
0
LINE
5
1CB
100
AcDbEntity
8
raster
6
ByLayer
62
256
370
-1
100
AcDbLine
10
8.03
20
4.39
11
15.03
21
4.39
0
LINE
5
1CC
100
AcDbEntity
8
raster
6
ByLayer
62
256
370
-1
100
AcDbLine
10
8.03
20
4.38
11
15.03
21
4.38
0
LINE
5
1CD
100
AcDbEntity
8
raster
6
ByLayer
62
256
370
-1
100
AcDbLine
10
8.03
20
4.37
11
15.03
21
4.37
0
LINE
5
1CE
100
AcDbEntity
8
raster
6
ByLayer
62
256
370
-1
100
AcDbLine
10
8.03
20
4.36
11
15.03
21
4.36
0
LINE
5
1CF
100
AcDbEntity
8
raster
6
ByLayer
62
256
370
-1
100
AcDbLine
10
8.03
20
4.35
11
15.03
21
4.35
0
LINE
5
1D0
100
AcDbEntity
8
raster
6
ByLayer
62
256
370
-1
100
AcDbLine
10
8.03
20
4.34
11
15.03
21
4.34
0
LINE
5
1D1
100
AcDbEntity
8
raster
6
ByLayer
62
256
370
-1
100
AcDbLine
10
8.03
20
4.33
11
15.03
21
4.33
0
LINE
5
1D2
100
AcDbEntity
8
raster
6
ByLayer
62
256
370
-1
100
AcDbLine
10
8.03
20
4.32
11
15.03
21
4.32
0
LINE
5
1D3
100
AcDbEntity
8
raster
6
ByLayer
62
256
370
-1
100
AcDbLine
10
8.03
20
4.31
11
15.03
21
4.31
0
LINE
5
1D4
100
AcDbEntity
8
raster
6
ByLayer
62
256
370
-1
100
AcDbLine
10
8.03
20
4.3
11
15.03
21
4.3
0
LINE
5
1D5
100
AcDbEntity
8
raster
6
ByLayer
62
256
370
-1
100
AcDbLine
10
8.03
20
4.29
11
15.03
21
4.29
0
LINE
5
1D6
100
AcDbEntity
8
raster
6
ByLayer
62
256
370
-1
100
AcDbLine
10
8.03
20
4.28
11
15.03
21
4.28
0
LINE
5
1D7
100
AcDbEntity
8
raster
6
ByLayer
62
256
370
-1
100
AcDbLine
10
8.03
20
4.27
11
15.03
21
4.27
0
LINE
5
1D8
100
AcDbEntity
8
raster
6
ByLayer
62
256
370
-1
100
AcDbLine
10
8.03
20
4.26
11
15.03
21
4.26
0
LINE
5
1D9
100
AcDbEntity
8
raster
6
ByLayer
62
256
370
-1
100
AcDbLine
10
8.03
20
4.25
11
15.03
21
4.25
0
LINE
5
1DA
100
AcDbEntity
8
raster
6
ByLayer
62
256
370
-1
100
AcDbLine
10
8.03
20
4.24
11
15.03
21
4.24
0
LINE
5
1DB
100
AcDbEntity
8
raster
6
ByLayer
62
256
370
-1
100
AcDbLine
10
8.03
20
4.23
11
15.03
21
4.23
0
LINE
5
1DC
100
AcDbEntity
8
raster
6
ByLayer
62
256
370
-1
100
AcDbLine
10
8.03
20
4.22
11
15.03
21
4.22
0
LINE
5
1DD
100
AcDbEntity
8
raster
6
ByLayer
62
256
370
-1
100
AcDbLine
10
8.03
20
4.21
11
15.03
21
4.21
0
LINE
5
1DE
100
AcDbEntity
8
raster
6
ByLayer
62
256
370
-1
100
AcDbLine
10
8.03
20
4.2
11
15.03
21
4.2
0
LINE
5
1DF
100
AcDbEntity
8
raster
6
ByLayer
62
256
370
-1
100
AcDbLine
10
8.03
20
4.19
11
15.03
21
4.19
0
LINE
5
1E0
100
AcDbEntity
8
raster
6
ByLayer
62
256
370
-1
100
AcDbLine
10
8.03
20
4.18
11
15.03
21
4.18
0
LINE
5
1E1
100
AcDbEntity
8
raster
6
ByLayer
62
256
370
-1
100
AcDbLine
10
8.03
20
4.17
11
15.03
21
4.17
0
LINE
5
1E2
100
AcDbEntity
8
raster
6
ByLayer
62
256
370
-1
100
AcDbLine
10
8.03
20
4.16
11
15.03
21
4.16
0
LINE
5
1E3
100
AcDbEntity
8
raster
6
ByLayer
62
256
370
-1
100
AcDbLine
10
8.03
20
4.15
11
15.03
21
4.15
0
LINE
5
1E4
100
AcDbEntity
8
raster
6
ByLayer
62
256
370
-1
100
AcDbLine
10
8.03
20
4.14
11
15.03
21
4.14
0
LINE
5
1E5
100
AcDbEntity
8
raster
6
ByLayer
62
256
370
-1
100
AcDbLine
10
8.03
20
4.13
11
15.03
21
4.13
0
LINE
5
1E6
100
AcDbEntity
8
raster
6
ByLayer
62
256
370
-1
100
AcDbLine
10
8.03
20
4.12
11
15.03
21
4.12
0
LINE
5
1E7
100
AcDbEntity
8
raster
6
ByLayer
62
256
370
-1
100
AcDbLine
10
8.03
20
4.11
11
15.03
21
4.11
0
LINE
5
1E8
100
AcDbEntity
8
raster
6
ByLayer
62
256
370
-1
100
AcDbLine
10
8.03
20
4.1
11
15.03
21
4.1
0
LINE
5
1E9
100
AcDbEntity
8
raster
6
ByLayer
62
256
370
-1
100
AcDbLine
10
8.03
20
4.09
11
15.03
21
4.09
0
LINE
5
1EA
100
AcDbEntity
8
raster
6
ByLayer
62
256
370
-1
100
AcDbLine
10
8.03
20
4.08
11
15.03
21
4.08
0
LINE
5
1EB
100
AcDbEntity
8
raster
6
ByLayer
62
256
370
-1
100
AcDbLine
10
8.03
20
4.07
11
15.03
21
4.07
0
LINE
5
1EC
100
AcDbEntity
8
raster
6
ByLayer
62
256
370
-1
100
AcDbLine
10
8.03
20
4.06
11
15.03
21
4.06
0
LINE
5
1ED
100
AcDbEntity
8
raster
6
ByLayer
62
256
370
-1
100
AcDbLine
10
8.03
20
4.05
11
15.03
21
4.05
0
LINE
5
1EE
100
AcDbEntity
8
raster
6
ByLayer
62
256
370
-1
100
AcDbLine
10
8.03
20
4.04
11
15.03
21
4.04
0
LINE
5
1EF
100
AcDbEntity
8
raster
6
ByLayer
62
256
370
-1
100
AcDbLine
10
8.03
20
4.03
11
15.03
21
4.03
0
LINE
5
1F0
100
AcDbEntity
8
raster
6
ByLayer
62
256
370
-1
100
AcDbLine
10
8.03
20
4.02
11
15.03
21
4.02
0
LINE
5
1F1
100
AcDbEntity
8
raster
6
ByLayer
62
256
370
-1
100
AcDbLine
10
8.03
20
4.01
11
15.03
21
4.01
0
LINE
5
1F2
100
AcDbEntity
8
raster
6
ByLayer
62
256
370
-1
100
AcDbLine
10
8.03
20
4
11
15.03
21
4
0
LINE
5
1F3
100
AcDbEntity
8
raster
6
ByLayer
62
256
370
-1
100
AcDbLine
10
8.03
20
3.99
11
15.03
21
3.99
0
LINE
5
1F4
100
AcDbEntity
8
raster
6
ByLayer
62
256
370
-1
100
AcDbLine
10
8.03
20
3.98
11
15.03
21
3.98
0
LINE
5
1F5
100
AcDbEntity
8
raster
6
ByLayer
62
256
370
-1
100
AcDbLine
10
8.03
20
3.97
11
15.03
21
3.97
0
LINE
5
1F6
100
AcDbEntity
8
raster
6
ByLayer
62
256
370
-1
100
AcDbLine
10
8.03
20
3.96
11
15.03
21
3.96
0
LINE
5
1F7
100
AcDbEntity
8
raster
6
ByLayer
62
256
370
-1
100
AcDbLine
10
8.03
20
3.95
11
15.03
21
3.95
0
LINE
5
1F8
100
AcDbEntity
8
raster
6
ByLayer
62
256
370
-1
100
AcDbLine
10
8.03
20
3.94
11
15.03
21
3.94
0
LINE
5
1F9
100
AcDbEntity
8
raster
6
ByLayer
62
256
370
-1
100
AcDbLine
10
8.03
20
3.93
11
15.03
21
3.93
0
LINE
5
1FA
100
AcDbEntity
8
raster
6
ByLayer
62
256
370
-1
100
AcDbLine
10
8.03
20
3.92
11
15.03
21
3.92
0
LINE
5
1FB
100
AcDbEntity
8
raster
6
ByLayer
62
256
370
-1
100
AcDbLine
10
8.03
20
3.91
11
15.03
21
3.91
0
LINE
5
1FC
100
AcDbEntity
8
raster
6
ByLayer
62
256
370
-1
100
AcDbLine
10
8.03
20
3.9
11
15.03
21
3.9
0
LINE
5
1FD
100
AcDbEntity
8
raster
6
ByLayer
62
256
370
-1
100
AcDbLine
10
8.03
20
3.89
11
15.03
21
3.89
0
LINE
5
1FE
100
AcDbEntity
8
raster
6
ByLayer
62
256
370
-1
100
AcDbLine
10
8.03
20
3.88
11
15.03
21
3.88
0
LINE
5
1FF
100
AcDbEntity
8
raster
6
ByLayer
62
256
370
-1
100
AcDbLine
10
8.03
20
3.87
11
15.03
21
3.87
0
LINE
5
200
100
AcDbEntity
8
raster
6
ByLayer
62
256
370
-1
100
AcDbLine
10
8.03
20
3.86
11
15.03
21
3.86
0
LINE
5
201
100
AcDbEntity
8
raster
6
ByLayer
62
256
370
-1
100
AcDbLine
10
8.03
20
3.85
11
15.03
21
3.85
0
LINE
5
202
100
AcDbEntity
8
raster
6
ByLayer
62
256
370
-1
100
AcDbLine
10
8.03
20
3.84
11
15.03
21
3.84
0
LINE
5
203
100
AcDbEntity
8
raster
6
ByLayer
62
256
370
-1
100
AcDbLine
10
8.03
20
3.83
11
15.03
21
3.83
0
LINE
5
204
100
AcDbEntity
8
raster
6
ByLayer
62
256
370
-1
100
AcDbLine
10
8.03
20
3.82
11
15.03
21
3.82
0
LINE
5
205
100
AcDbEntity
8
raster
6
ByLayer
62
256
370
-1
100
AcDbLine
10
8.03
20
3.81
11
15.03
21
3.81
0
LINE
5
206
100
AcDbEntity
8
raster
6
ByLayer
62
256
370
-1
100
AcDbLine
10
8.03
20
3.8
11
15.03
21
3.8
0
LINE
5
207
100
AcDbEntity
8
raster
6
ByLayer
62
256
370
-1
100
AcDbLine
10
8.03
20
3.79
11
15.03
21
3.79
0
LINE
5
208
100
AcDbEntity
8
raster
6
ByLayer
62
256
370
-1
100
AcDbLine
10
8.03
20
3.78
11
15.03
21
3.78
0
LINE
5
209
100
AcDbEntity
8
raster
6
ByLayer
62
256
370
-1
100
AcDbLine
10
8.03
20
3.77
11
15.03
21
3.77
0
LINE
5
20A
100
AcDbEntity
8
raster
6
ByLayer
62
256
370
-1
100
AcDbLine
10
8.03
20
3.76
11
15.03
21
3.76
0
LINE
5
20B
100
AcDbEntity
8
raster
6
ByLayer
62
256
370
-1
100
AcDbLine
10
8.03
20
3.75
11
15.03
21
3.75
0
LINE
5
20C
100
AcDbEntity
8
raster
6
ByLayer
62
256
370
-1
100
AcDbLine
10
8.03
20
3.74
11
15.03
21
3.74
0
LINE
5
20D
100
AcDbEntity
8
raster
6
ByLayer
62
256
370
-1
100
AcDbLine
10
8.03
20
3.73
11
15.03
21
3.73
0
LINE
5
20E
100
AcDbEntity
8
raster
6
ByLayer
62
256
370
-1
100
AcDbLine
10
8.03
20
3.72
11
15.03
21
3.72
0
LINE
5
20F
100
AcDbEntity
8
raster
6
ByLayer
62
256
370
-1
100
AcDbLine
10
8.03
20
3.71
11
15.03
21
3.71
0
LINE
5
210
100
AcDbEntity
8
raster
6
ByLayer
62
256
370
-1
100
AcDbLine
10
8.03
20
3.7
11
15.03
21
3.7
0
LINE
5
211
100
AcDbEntity
8
raster
6
ByLayer
62
256
370
-1
100
AcDbLine
10
8.03
20
3.69
11
15.03
21
3.69
0
LINE
5
212
100
AcDbEntity
8
raster
6
ByLayer
62
256
370
-1
100
AcDbLine
10
8.03
20
3.68
11
15.03
21
3.68
0
LINE
5
213
100
AcDbEntity
8
raster
6
ByLayer
62
256
370
-1
100
AcDbLine
10
8.03
20
3.67
11
15.03
21
3.67
0
LINE
5
214
100
AcDbEntity
8
raster
6
ByLayer
62
256
370
-1
100
AcDbLine
10
8.03
20
3.66
11
15.03
21
3.66
0
LINE
5
215
100
AcDbEntity
8
raster
6
ByLayer
62
256
370
-1
100
AcDbLine
10
8.03
20
3.65
11
15.03
21
3.65
0
LINE
5
216
100
AcDbEntity
8
raster
6
ByLayer
62
256
370
-1
100
AcDbLine
10
8.03
20
3.64
11
15.03
21
3.64
0
LINE
5
217
100
AcDbEntity
8
raster
6
ByLayer
62
256
370
-1
100
AcDbLine
10
8.03
20
3.63
11
15.03
21
3.63
0
LINE
5
218
100
AcDbEntity
8
raster
6
ByLayer
62
256
370
-1
100
AcDbLine
10
8.03
20
3.62
11
15.03
21
3.62
0
LINE
5
219
100
AcDbEntity
8
raster
6
ByLayer
62
256
370
-1
100
AcDbLine
10
8.03
20
3.61
11
15.03
21
3.61
0
LINE
5
21A
100
AcDbEntity
8
raster
6
ByLayer
62
256
370
-1
100
AcDbLine
10
8.03
20
3.6
11
15.03
21
3.6
0
LINE
5
21B
100
AcDbEntity
8
raster
6
ByLayer
62
256
370
-1
100
AcDbLine
10
8.03
20
3.59
11
15.03
21
3.59
0
LINE
5
21C
100
AcDbEntity
8
raster
6
ByLayer
62
256
370
-1
100
AcDbLine
10
8.03
20
3.58
11
15.03
21
3.58
0
LINE
5
21D
100
AcDbEntity
8
raster
6
ByLayer
62
256
370
-1
100
AcDbLine
10
8.03
20
3.57
11
15.03
21
3.57
0
LINE
5
21E
100
AcDbEntity
8
raster
6
ByLayer
62
256
370
-1
100
AcDbLine
10
8.03
20
3.56
11
15.03
21
3.56
0
LINE
5
21F
100
AcDbEntity
8
raster
6
ByLayer
62
256
370
-1
100
AcDbLine
10
8.03
20
3.55
11
15.03
21
3.55
0
LINE
5
220
100
AcDbEntity
8
raster
6
ByLayer
62
256
370
-1
100
AcDbLine
10
8.03
20
3.54
11
15.03
21
3.54
0
LINE
5
221
100
AcDbEntity
8
raster
6
ByLayer
62
256
370
-1
100
AcDbLine
10
8.03
20
3.53
11
15.03
21
3.53
0
LINE
5
222
100
AcDbEntity
8
raster
6
ByLayer
62
256
370
-1
100
AcDbLine
10
8.03
20
3.52
11
15.03
21
3.52
0
LINE
5
223
100
AcDbEntity
8
raster
6
ByLayer
62
256
370
-1
100
AcDbLine
10
8.03
20
3.51
11
15.03
21
3.51
0
LINE
5
224
100
AcDbEntity
8
raster
6
ByLayer
62
256
370
-1
100
AcDbLine
10
8.03
20
3.5
11
15.03
21
3.5
0
LINE
5
225
100
AcDbEntity
8
raster
6
ByLayer
62
256
370
-1
100
AcDbLine
10
8.03
20
3.49
11
15.03
21
3.49
0
LINE
5
226
100
AcDbEntity
8
raster
6
ByLayer
62
256
370
-1
100
AcDbLine
10
8.03
20
3.48
11
15.03
21
3.48
0
LINE
5
227
100
AcDbEntity
8
raster
6
ByLayer
62
256
370
-1
100
AcDbLine
10
8.03
20
3.47
11
15.03
21
3.47
0
LINE
5
228
100
AcDbEntity
8
raster
6
ByLayer
62
256
370
-1
100
AcDbLine
10
8.03
20
3.46
11
15.03
21
3.46
0
LINE
5
229
100
AcDbEntity
8
raster
6
ByLayer
62
256
370
-1
100
AcDbLine
10
8.03
20
3.45
11
15.03
21
3.45
0
LINE
5
22A
100
AcDbEntity
8
raster
6
ByLayer
62
256
370
-1
100
AcDbLine
10
8.03
20
3.44
11
15.03
21
3.44
0
LINE
5
22B
100
AcDbEntity
8
raster
6
ByLayer
62
256
370
-1
100
AcDbLine
10
8.03
20
3.43
11
15.03
21
3.43
0
LINE
5
22C
100
AcDbEntity
8
raster
6
ByLayer
62
256
370
-1
100
AcDbLine
10
8.03
20
3.42
11
15.03
21
3.42
0
LINE
5
22D
100
AcDbEntity
8
raster
6
ByLayer
62
256
370
-1
100
AcDbLine
10
8.03
20
3.41
11
15.03
21
3.41
0
LINE
5
22E
100
AcDbEntity
8
raster
6
ByLayer
62
256
370
-1
100
AcDbLine
10
8.03
20
3.4
11
15.03
21
3.4
0
LINE
5
22F
100
AcDbEntity
8
raster
6
ByLayer
62
256
370
-1
100
AcDbLine
10
8.03
20
3.39
11
15.03
21
3.39
0
LINE
5
230
100
AcDbEntity
8
raster
6
ByLayer
62
256
370
-1
100
AcDbLine
10
8.03
20
3.38
11
15.03
21
3.38
0
LINE
5
231
100
AcDbEntity
8
raster
6
ByLayer
62
256
370
-1
100
AcDbLine
10
8.03
20
3.37
11
15.03
21
3.37
0
LINE
5
232
100
AcDbEntity
8
raster
6
ByLayer
62
256
370
-1
100
AcDbLine
10
8.03
20
3.36
11
15.03
21
3.36
0
LINE
5
233
100
AcDbEntity
8
raster
6
ByLayer
62
256
370
-1
100
AcDbLine
10
8.03
20
3.35
11
15.03
21
3.35
0
LINE
5
234
100
AcDbEntity
8
raster
6
ByLayer
62
256
370
-1
100
AcDbLine
10
8.03
20
3.34
11
15.03
21
3.34
0
LINE
5
235
100
AcDbEntity
8
raster
6
ByLayer
62
256
370
-1
100
AcDbLine
10
8.03
20
3.33
11
15.03
21
3.33
0
LINE
5
236
100
AcDbEntity
8
raster
6
ByLayer
62
256
370
-1
100
AcDbLine
10
8.03
20
3.32
11
15.03
21
3.32
0
LINE
5
237
100
AcDbEntity
8
raster
6
ByLayer
62
256
370
-1
100
AcDbLine
10
8.03
20
3.31
11
15.03
21
3.31
0
LINE
5
238
100
AcDbEntity
8
raster
6
ByLayer
62
256
370
-1
100
AcDbLine
10
8.03
20
3.3
11
15.03
21
3.3
0
LINE
5
239
100
AcDbEntity
8
raster
6
ByLayer
62
256
370
-1
100
AcDbLine
10
8.03
20
3.29
11
15.03
21
3.29
0
LINE
5
23A
100
AcDbEntity
8
raster
6
ByLayer
62
256
370
-1
100
AcDbLine
10
8.03
20
3.28
11
15.03
21
3.28
0
LINE
5
23B
100
AcDbEntity
8
raster
6
ByLayer
62
256
370
-1
100
AcDbLine
10
8.03
20
3.27
11
15.03
21
3.27
0
LINE
5
23C
100
AcDbEntity
8
raster
6
ByLayer
62
256
370
-1
100
AcDbLine
10
8.03
20
3.26
11
15.03
21
3.26
0
LINE
5
23D
100
AcDbEntity
8
raster
6
ByLayer
62
256
370
-1
100
AcDbLine
10
8.03
20
3.25
11
15.03
21
3.25
0
LINE
5
23E
100
AcDbEntity
8
raster
6
ByLayer
62
256
370
-1
100
AcDbLine
10
8.03
20
3.24
11
15.03
21
3.24
0
LINE
5
23F
100
AcDbEntity
8
raster
6
ByLayer
62
256
370
-1
100
AcDbLine
10
8.03
20
3.23
11
15.03
21
3.23
0
LINE
5
240
100
AcDbEntity
8
raster
6
ByLayer
62
256
370
-1
100
AcDbLine
10
8.03
20
3.22
11
15.03
21
3.22
0
LINE
5
241
100
AcDbEntity
8
raster
6
ByLayer
62
256
370
-1
100
AcDbLine
10
8.03
20
3.21
11
15.03
21
3.21
0
LINE
5
242
100
AcDbEntity
8
raster
6
ByLayer
62
256
370
-1
100
AcDbLine
10
8.03
20
3.2
11
15.03
21
3.2
0
LINE
5
243
100
AcDbEntity
8
raster
6
ByLayer
62
256
370
-1
100
AcDbLine
10
8.03
20
3.19
11
15.03
21
3.19
0
LINE
5
244
100
AcDbEntity
8
raster
6
ByLayer
62
256
370
-1
100
AcDbLine
10
8.03
20
3.18
11
15.03
21
3.18
0
LINE
5
245
100
AcDbEntity
8
raster
6
ByLayer
62
256
370
-1
100
AcDbLine
10
8.03
20
3.17
11
15.03
21
3.17
0
LINE
5
246
100
AcDbEntity
8
raster
6
ByLayer
62
256
370
-1
100
AcDbLine
10
8.03
20
3.16
11
15.03
21
3.16
0
LINE
5
247
100
AcDbEntity
8
raster
6
ByLayer
62
256
370
-1
100
AcDbLine
10
8.03
20
3.15
11
15.03
21
3.15
0
LINE
5
248
100
AcDbEntity
8
raster
6
ByLayer
62
256
370
-1
100
AcDbLine
10
8.03
20
3.14
11
15.03
21
3.14
0
LINE
5
249
100
AcDbEntity
8
raster
6
ByLayer
62
256
370
-1
100
AcDbLine
10
8.03
20
3.13
11
15.03
21
3.13
0
LINE
5
24A
100
AcDbEntity
8
raster
6
ByLayer
62
256
370
-1
100
AcDbLine
10
8.03
20
3.12
11
15.03
21
3.12
0
LINE
5
24B
100
AcDbEntity
8
raster
6
ByLayer
62
256
370
-1
100
AcDbLine
10
8.03
20
3.11
11
15.03
21
3.11
0
LINE
5
24C
100
AcDbEntity
8
raster
6
ByLayer
62
256
370
-1
100
AcDbLine
10
8.03
20
3.1
11
15.03
21
3.1
0
LINE
5
24D
100
AcDbEntity
8
raster
6
ByLayer
62
256
370
-1
100
AcDbLine
10
8.03
20
3.09
11
15.03
21
3.09
0
LINE
5
24E
100
AcDbEntity
8
raster
6
ByLayer
62
256
370
-1
100
AcDbLine
10
8.03
20
3.08
11
15.03
21
3.08
0
LINE
5
24F
100
AcDbEntity
8
raster
6
ByLayer
62
256
370
-1
100
AcDbLine
10
8.03
20
3.07
11
15.03
21
3.07
0
LINE
5
250
100
AcDbEntity
8
raster
6
ByLayer
62
256
370
-1
100
AcDbLine
10
8.03
20
3.06
11
15.03
21
3.06
0
LINE
5
251
100
AcDbEntity
8
raster
6
ByLayer
62
256
370
-1
100
AcDbLine
10
8.03
20
3.05
11
15.03
21
3.05
0
LINE
5
252
100
AcDbEntity
8
raster
6
ByLayer
62
256
370
-1
100
AcDbLine
10
8.03
20
3.04
11
15.03
21
3.04
0
LINE
5
253
100
AcDbEntity
8
raster
6
ByLayer
62
256
370
-1
100
AcDbLine
10
8.03
20
3.03
11
15.03
21
3.03
0
LINE
5
254
100
AcDbEntity
8
raster
6
ByLayer
62
256
370
-1
100
AcDbLine
10
8.03
20
3.02
11
15.03
21
3.02
0
LINE
5
255
100
AcDbEntity
8
raster
6
ByLayer
62
256
370
-1
100
AcDbLine
10
8.03
20
3.01
11
15.03
21
3.01
0
LINE
5
256
100
AcDbEntity
8
raster
6
ByLayer
62
256
370
-1
100
AcDbLine
10
8.03
20
3
11
15.03
21
3
0
LINE
5
257
100
AcDbEntity
8
raster
6
ByLayer
62
256
370
-1
100
AcDbLine
10
8.03
20
2.99
11
15.03
21
2.99
0
LINE
5
258
100
AcDbEntity
8
raster
6
ByLayer
62
256
370
-1
100
AcDbLine
10
8.03
20
2.98
11
15.03
21
2.98
0
LINE
5
259
100
AcDbEntity
8
raster
6
ByLayer
62
256
370
-1
100
AcDbLine
10
8.03
20
2.97
11
15.03
21
2.97
0
LINE
5
25A
100
AcDbEntity
8
raster
6
ByLayer
62
256
370
-1
100
AcDbLine
10
8.03
20
2.96
11
15.03
21
2.96
0
LINE
5
25B
100
AcDbEntity
8
raster
6
ByLayer
62
256
370
-1
100
AcDbLine
10
8.03
20
2.95
11
15.03
21
2.95
0
LINE
5
25C
100
AcDbEntity
8
raster
6
ByLayer
62
256
370
-1
100
AcDbLine
10
8.03
20
2.94
11
15.03
21
2.94
0
LINE
5
25D
100
AcDbEntity
8
raster
6
ByLayer
62
256
370
-1
100
AcDbLine
10
8.03
20
2.93
11
15.03
21
2.93
0
LINE
5
25E
100
AcDbEntity
8
raster
6
ByLayer
62
256
370
-1
100
AcDbLine
10
8.03
20
2.92
11
15.03
21
2.92
0
LINE
5
25F
100
AcDbEntity
8
raster
6
ByLayer
62
256
370
-1
100
AcDbLine
10
8.03
20
2.91
11
15.03
21
2.91
0
LINE
5
260
100
AcDbEntity
8
raster
6
ByLayer
62
256
370
-1
100
AcDbLine
10
8.03
20
2.9
11
15.03
21
2.9
0
LINE
5
261
100
AcDbEntity
8
raster
6
ByLayer
62
256
370
-1
100
AcDbLine
10
8.03
20
2.89
11
15.03
21
2.89
0
LINE
5
262
100
AcDbEntity
8
raster
6
ByLayer
62
256
370
-1
100
AcDbLine
10
8.03
20
2.88
11
15.03
21
2.88
0
LINE
5
263
100
AcDbEntity
8
raster
6
ByLayer
62
256
370
-1
100
AcDbLine
10
8.03
20
2.87
11
15.03
21
2.87
0
LINE
5
264
100
AcDbEntity
8
raster
6
ByLayer
62
256
370
-1
100
AcDbLine
10
8.03
20
2.86
11
15.03
21
2.86
0
LINE
5
265
100
AcDbEntity
8
raster
6
ByLayer
62
256
370
-1
100
AcDbLine
10
8.03
20
2.85
11
15.03
21
2.85
0
LINE
5
266
100
AcDbEntity
8
raster
6
ByLayer
62
256
370
-1
100
AcDbLine
10
8.03
20
2.84
11
15.03
21
2.84
0
LINE
5
267
100
AcDbEntity
8
raster
6
ByLayer
62
256
370
-1
100
AcDbLine
10
8.03
20
2.83
11
15.03
21
2.83
0
LINE
5
268
100
AcDbEntity
8
raster
6
ByLayer
62
256
370
-1
100
AcDbLine
10
8.03
20
2.82
11
15.03
21
2.82
0
LINE
5
269
100
AcDbEntity
8
raster
6
ByLayer
62
256
370
-1
100
AcDbLine
10
8.03
20
2.81
11
15.03
21
2.81
0
LINE
5
26A
100
AcDbEntity
8
raster
6
ByLayer
62
256
370
-1
100
AcDbLine
10
8.03
20
2.8
11
15.03
21
2.8
0
LINE
5
26B
100
AcDbEntity
8
raster
6
ByLayer
62
256
370
-1
100
AcDbLine
10
8.03
20
2.79
11
15.03
21
2.79
0
LINE
5
26C
100
AcDbEntity
8
raster
6
ByLayer
62
256
370
-1
100
AcDbLine
10
8.03
20
2.78
11
15.03
21
2.78
0
LINE
5
26D
100
AcDbEntity
8
raster
6
ByLayer
62
256
370
-1
100
AcDbLine
10
8.03
20
2.77
11
15.03
21
2.77
0
LINE
5
26E
100
AcDbEntity
8
raster
6
ByLayer
62
256
370
-1
100
AcDbLine
10
8.03
20
2.76
11
15.03
21
2.76
0
LINE
5
26F
100
AcDbEntity
8
raster
6
ByLayer
62
256
370
-1
100
AcDbLine
10
8.03
20
2.75
11
15.03
21
2.75
0
LINE
5
270
100
AcDbEntity
8
raster
6
ByLayer
62
256
370
-1
100
AcDbLine
10
8.03
20
2.74
11
15.03
21
2.74
0
LINE
5
271
100
AcDbEntity
8
raster
6
ByLayer
62
256
370
-1
100
AcDbLine
10
8.03
20
2.73
11
15.03
21
2.73
0
LINE
5
272
100
AcDbEntity
8
raster
6
ByLayer
62
256
370
-1
100
AcDbLine
10
8.03
20
2.72
11
15.03
21
2.72
0
LINE
5
273
100
AcDbEntity
8
raster
6
ByLayer
62
256
370
-1
100
AcDbLine
10
8.03
20
2.71
11
15.03
21
2.71
0
LINE
5
274
100
AcDbEntity
8
raster
6
ByLayer
62
256
370
-1
100
AcDbLine
10
8.03
20
2.7
11
15.03
21
2.7
0
LINE
5
275
100
AcDbEntity
8
raster
6
ByLayer
62
256
370
-1
100
AcDbLine
10
8.03
20
2.69
11
15.03
21
2.69
0
LINE
5
276
100
AcDbEntity
8
raster
6
ByLayer
62
256
370
-1
100
AcDbLine
10
8.03
20
2.68
11
15.03
21
2.68
0
LINE
5
277
100
AcDbEntity
8
raster
6
ByLayer
62
256
370
-1
100
AcDbLine
10
8.03
20
2.67
11
15.03
21
2.67
0
LINE
5
278
100
AcDbEntity
8
raster
6
ByLayer
62
256
370
-1
100
AcDbLine
10
8.03
20
2.66
11
15.03
21
2.66
0
LINE
5
279
100
AcDbEntity
8
raster
6
ByLayer
62
256
370
-1
100
AcDbLine
10
8.03
20
2.65
11
15.03
21
2.65
0
LINE
5
27A
100
AcDbEntity
8
raster
6
ByLayer
62
256
370
-1
100
AcDbLine
10
8.03
20
2.64
11
15.03
21
2.64
0
LINE
5
27B
100
AcDbEntity
8
raster
6
ByLayer
62
256
370
-1
100
AcDbLine
10
8.03
20
2.63
11
15.03
21
2.63
0
LINE
5
27C
100
AcDbEntity
8
raster
6
ByLayer
62
256
370
-1
100
AcDbLine
10
8.03
20
2.62
11
15.03
21
2.62
0
LINE
5
27D
100
AcDbEntity
8
raster
6
ByLayer
62
256
370
-1
100
AcDbLine
10
8.03
20
2.61
11
15.03
21
2.61
0
LINE
5
27E
100
AcDbEntity
8
raster
6
ByLayer
62
256
370
-1
100
AcDbLine
10
8.03
20
2.6
11
15.03
21
2.6
0
LINE
5
27F
100
AcDbEntity
8
raster
6
ByLayer
62
256
370
-1
100
AcDbLine
10
8.03
20
2.59
11
15.03
21
2.59
0
LINE
5
280
100
AcDbEntity
8
raster
6
ByLayer
62
256
370
-1
100
AcDbLine
10
8.03
20
2.58
11
15.03
21
2.58
0
LINE
5
281
100
AcDbEntity
8
raster
6
ByLayer
62
256
370
-1
100
AcDbLine
10
8.03
20
2.57
11
15.03
21
2.57
0
LINE
5
282
100
AcDbEntity
8
raster
6
ByLayer
62
256
370
-1
100
AcDbLine
10
8.03
20
2.56
11
15.03
21
2.56
0
LINE
5
283
100
AcDbEntity
8
raster
6
ByLayer
62
256
370
-1
100
AcDbLine
10
8.03
20
2.55
11
15.03
21
2.55
0
LINE
5
284
100
AcDbEntity
8
raster
6
ByLayer
62
256
370
-1
100
AcDbLine
10
8.03
20
2.54
11
15.03
21
2.54
0
LINE
5
285
100
AcDbEntity
8
raster
6
ByLayer
62
256
370
-1
100
AcDbLine
10
8.03
20
2.53
11
15.03
21
2.53
0
LINE
5
286
100
AcDbEntity
8
raster
6
ByLayer
62
256
370
-1
100
AcDbLine
10
8.03
20
2.52
11
15.03
21
2.52
0
LINE
5
287
100
AcDbEntity
8
raster
6
ByLayer
62
256
370
-1
100
AcDbLine
10
8.03
20
2.51
11
15.03
21
2.51
0
LINE
5
288
100
AcDbEntity
8
raster
6
ByLayer
62
256
370
-1
100
AcDbLine
10
8.03
20
2.5
11
15.03
21
2.5
0
LINE
5
289
100
AcDbEntity
8
raster
6
ByLayer
62
256
370
-1
100
AcDbLine
10
8.03
20
2.49
11
15.03
21
2.49
0
LINE
5
28A
100
AcDbEntity
8
raster
6
ByLayer
62
256
370
-1
100
AcDbLine
10
8.03
20
2.48
11
15.03
21
2.48
0
LINE
5
28B
100
AcDbEntity
8
raster
6
ByLayer
62
256
370
-1
100
AcDbLine
10
8.03
20
2.47
11
15.03
21
2.47
0
LINE
5
28C
100
AcDbEntity
8
raster
6
ByLayer
62
256
370
-1
100
AcDbLine
10
8.03
20
2.46
11
15.03
21
2.46
0
LINE
5
28D
100
AcDbEntity
8
raster
6
ByLayer
62
256
370
-1
100
AcDbLine
10
8.03
20
2.45
11
15.03
21
2.45
0
LINE
5
28E
100
AcDbEntity
8
raster
6
ByLayer
62
256
370
-1
100
AcDbLine
10
8.03
20
2.44
11
15.03
21
2.44
0
LINE
5
28F
100
AcDbEntity
8
raster
6
ByLayer
62
256
370
-1
100
AcDbLine
10
8.03
20
2.43
11
15.03
21
2.43
0
LINE
5
290
100
AcDbEntity
8
raster
6
ByLayer
62
256
370
-1
100
AcDbLine
10
8.03
20
2.42
11
15.03
21
2.42
0
LINE
5
291
100
AcDbEntity
8
raster
6
ByLayer
62
256
370
-1
100
AcDbLine
10
8.03
20
2.41
11
15.03
21
2.41
0
LINE
5
292
100
AcDbEntity
8
raster
6
ByLayer
62
256
370
-1
100
AcDbLine
10
8.03
20
2.4
11
15.03
21
2.4
0
LINE
5
293
100
AcDbEntity
8
raster
6
ByLayer
62
256
370
-1
100
AcDbLine
10
8.03
20
2.39
11
15.03
21
2.39
0
LINE
5
294
100
AcDbEntity
8
raster
6
ByLayer
62
256
370
-1
100
AcDbLine
10
8.03
20
2.38
11
15.03
21
2.38
0
LINE
5
295
100
AcDbEntity
8
raster
6
ByLayer
62
256
370
-1
100
AcDbLine
10
8.03
20
2.37
11
15.03
21
2.37
0
LINE
5
296
100
AcDbEntity
8
raster
6
ByLayer
62
256
370
-1
100
AcDbLine
10
8.03
20
2.36
11
15.03
21
2.36
0
LINE
5
297
100
AcDbEntity
8
raster
6
ByLayer
62
256
370
-1
100
AcDbLine
10
8.03
20
2.35
11
15.03
21
2.35
0
LINE
5
298
100
AcDbEntity
8
raster
6
ByLayer
62
256
370
-1
100
AcDbLine
10
8.03
20
2.34
11
15.03
21
2.34
0
LINE
5
299
100
AcDbEntity
8
raster
6
ByLayer
62
256
370
-1
100
AcDbLine
10
8.03
20
2.33
11
15.03
21
2.33
0
LINE
5
29A
100
AcDbEntity
8
raster
6
ByLayer
62
256
370
-1
100
AcDbLine
10
8.03
20
2.32
11
15.03
21
2.32
0
LINE
5
29B
100
AcDbEntity
8
raster
6
ByLayer
62
256
370
-1
100
AcDbLine
10
8.03
20
2.31
11
15.03
21
2.31
0
LINE
5
29C
100
AcDbEntity
8
raster
6
ByLayer
62
256
370
-1
100
AcDbLine
10
8.03
20
2.3
11
15.03
21
2.3
0
LINE
5
29D
100
AcDbEntity
8
raster
6
ByLayer
62
256
370
-1
100
AcDbLine
10
8.03
20
2.29
11
15.03
21
2.29
0
LINE
5
29E
100
AcDbEntity
8
raster
6
ByLayer
62
256
370
-1
100
AcDbLine
10
8.03
20
2.28
11
15.03
21
2.28
0
LINE
5
29F
100
AcDbEntity
8
raster
6
ByLayer
62
256
370
-1
100
AcDbLine
10
8.03
20
2.27
11
15.03
21
2.27
0
LINE
5
2A0
100
AcDbEntity
8
raster
6
ByLayer
62
256
370
-1
100
AcDbLine
10
8.03
20
2.26
11
15.03
21
2.26
0
LINE
5
2A1
100
AcDbEntity
8
raster
6
ByLayer
62
256
370
-1
100
AcDbLine
10
8.03
20
2.25
11
15.03
21
2.25
0
LINE
5
2A2
100
AcDbEntity
8
raster
6
ByLayer
62
256
370
-1
100
AcDbLine
10
8.03
20
2.24
11
15.03
21
2.24
0
LINE
5
2A3
100
AcDbEntity
8
raster
6
ByLayer
62
256
370
-1
100
AcDbLine
10
8.03
20
2.23
11
15.03
21
2.23
0
LINE
5
2A4
100
AcDbEntity
8
raster
6
ByLayer
62
256
370
-1
100
AcDbLine
10
8.03
20
2.22
11
15.03
21
2.22
0
LINE
5
2A5
100
AcDbEntity
8
raster
6
ByLayer
62
256
370
-1
100
AcDbLine
10
8.03
20
2.21
11
15.03
21
2.21
0
LINE
5
2A6
100
AcDbEntity
8
raster
6
ByLayer
62
256
370
-1
100
AcDbLine
10
8.03
20
2.2
11
15.03
21
2.2
0
LINE
5
2A7
100
AcDbEntity
8
raster
6
ByLayer
62
256
370
-1
100
AcDbLine
10
8.03
20
2.19
11
15.03
21
2.19
0
LINE
5
2A8
100
AcDbEntity
8
raster
6
ByLayer
62
256
370
-1
100
AcDbLine
10
8.03
20
2.18
11
15.03
21
2.18
0
LINE
5
2A9
100
AcDbEntity
8
raster
6
ByLayer
62
256
370
-1
100
AcDbLine
10
8.03
20
2.17
11
15.03
21
2.17
0
LINE
5
2AA
100
AcDbEntity
8
raster
6
ByLayer
62
256
370
-1
100
AcDbLine
10
8.03
20
2.16
11
15.03
21
2.16
0
LINE
5
2AB
100
AcDbEntity
8
raster
6
ByLayer
62
256
370
-1
100
AcDbLine
10
8.03
20
2.15
11
15.03
21
2.15
0
LINE
5
2AC
100
AcDbEntity
8
raster
6
ByLayer
62
256
370
-1
100
AcDbLine
10
8.03
20
2.14
11
15.03
21
2.14
0
LINE
5
2AD
100
AcDbEntity
8
raster
6
ByLayer
62
256
370
-1
100
AcDbLine
10
8.03
20
2.13
11
15.03
21
2.13
0
LINE
5
2AE
100
AcDbEntity
8
raster
6
ByLayer
62
256
370
-1
100
AcDbLine
10
8.03
20
2.12
11
15.03
21
2.12
0
LINE
5
2AF
100
AcDbEntity
8
raster
6
ByLayer
62
256
370
-1
100
AcDbLine
10
8.03
20
2.11
11
15.03
21
2.11
0
LINE
5
2B0
100
AcDbEntity
8
raster
6
ByLayer
62
256
370
-1
100
AcDbLine
10
8.03
20
2.1
11
15.03
21
2.1
0
LINE
5
2B1
100
AcDbEntity
8
raster
6
ByLayer
62
256
370
-1
100
AcDbLine
10
8.03
20
2.09
11
15.03
21
2.09
0
LINE
5
2B2
100
AcDbEntity
8
raster
6
ByLayer
62
256
370
-1
100
AcDbLine
10
8.03
20
2.08
11
15.03
21
2.08
0
LINE
5
2B3
100
AcDbEntity
8
raster
6
ByLayer
62
256
370
-1
100
AcDbLine
10
8.03
20
2.07
11
15.03
21
2.07
0
LINE
5
2B4
100
AcDbEntity
8
raster
6
ByLayer
62
256
370
-1
100
AcDbLine
10
8.03
20
2.06
11
15.03
21
2.06
0
LINE
5
2B5
100
AcDbEntity
8
raster
6
ByLayer
62
256
370
-1
100
AcDbLine
10
8.03
20
2.05
11
15.03
21
2.05
0
LINE
5
2B6
100
AcDbEntity
8
raster
6
ByLayer
62
256
370
-1
100
AcDbLine
10
8.03
20
2.04
11
15.03
21
2.04
0
LINE
5
2B7
100
AcDbEntity
8
raster
6
ByLayer
62
256
370
-1
100
AcDbLine
10
8.03
20
2.03
11
15.03
21
2.03
0
LINE
5
2B8
100
AcDbEntity
8
raster
6
ByLayer
62
256
370
-1
100
AcDbLine
10
8.03
20
2.02
11
15.03
21
2.02
0
LINE
5
2B9
100
AcDbEntity
8
raster
6
ByLayer
62
256
370
-1
100
AcDbLine
10
8.03
20
2.01
11
15.03
21
2.01
0
LINE
5
2BA
100
AcDbEntity
8
raster
6
ByLayer
62
256
370
-1
100
AcDbLine
10
8.03
20
2
11
15.03
21
2
0
LINE
5
2BB
100
AcDbEntity
8
raster
6
ByLayer
62
256
370
-1
100
AcDbLine
10
8.03
20
1.99
11
15.03
21
1.99
0
LINE
5
2BC
100
AcDbEntity
8
raster
6
ByLayer
62
256
370
-1
100
AcDbLine
10
8.03
20
1.98
11
15.03
21
1.98
0
LINE
5
2BD
100
AcDbEntity
8
raster
6
ByLayer
62
256
370
-1
100
AcDbLine
10
8.03
20
1.97
11
15.03
21
1.97
0
LINE
5
2BE
100
AcDbEntity
8
raster
6
ByLayer
62
256
370
-1
100
AcDbLine
10
8.03
20
1.96
11
15.03
21
1.96
0
LINE
5
2BF
100
AcDbEntity
8
raster
6
ByLayer
62
256
370
-1
100
AcDbLine
10
8.03
20
1.95
11
15.03
21
1.95
0
LINE
5
2C0
100
AcDbEntity
8
raster
6
ByLayer
62
256
370
-1
100
AcDbLine
10
8.03
20
1.94
11
15.03
21
1.94
0
LINE
5
2C1
100
AcDbEntity
8
raster
6
ByLayer
62
256
370
-1
100
AcDbLine
10
8.03
20
1.93
11
15.03
21
1.93
0
LINE
5
2C2
100
AcDbEntity
8
raster
6
ByLayer
62
256
370
-1
100
AcDbLine
10
8.03
20
1.92
11
15.03
21
1.92
0
LINE
5
2C3
100
AcDbEntity
8
raster
6
ByLayer
62
256
370
-1
100
AcDbLine
10
8.03
20
1.91
11
15.03
21
1.91
0
LINE
5
2C4
100
AcDbEntity
8
raster
6
ByLayer
62
256
370
-1
100
AcDbLine
10
8.03
20
1.9
11
15.03
21
1.9
0
LINE
5
2C5
100
AcDbEntity
8
raster
6
ByLayer
62
256
370
-1
100
AcDbLine
10
8.03
20
1.89
11
15.03
21
1.89
0
LINE
5
2C6
100
AcDbEntity
8
raster
6
ByLayer
62
256
370
-1
100
AcDbLine
10
8.03
20
1.88
11
15.03
21
1.88
0
LINE
5
2C7
100
AcDbEntity
8
raster
6
ByLayer
62
256
370
-1
100
AcDbLine
10
8.03
20
1.87
11
15.03
21
1.87
0
LINE
5
2C8
100
AcDbEntity
8
raster
6
ByLayer
62
256
370
-1
100
AcDbLine
10
8.03
20
1.86
11
15.03
21
1.86
0
LINE
5
2C9
100
AcDbEntity
8
raster
6
ByLayer
62
256
370
-1
100
AcDbLine
10
8.03
20
1.85
11
15.03
21
1.85
0
LINE
5
2CA
100
AcDbEntity
8
raster
6
ByLayer
62
256
370
-1
100
AcDbLine
10
8.03
20
1.84
11
15.03
21
1.84
0
LINE
5
2CB
100
AcDbEntity
8
raster
6
ByLayer
62
256
370
-1
100
AcDbLine
10
8.03
20
1.83
11
15.03
21
1.83
0
LINE
5
2CC
100
AcDbEntity
8
raster
6
ByLayer
62
256
370
-1
100
AcDbLine
10
8.03
20
1.82
11
15.03
21
1.82
0
LINE
5
2CD
100
AcDbEntity
8
raster
6
ByLayer
62
256
370
-1
100
AcDbLine
10
8.03
20
1.81
11
15.03
21
1.81
0
LINE
5
2CE
100
AcDbEntity
8
raster
6
ByLayer
62
256
370
-1
100
AcDbLine
10
8.03
20
1.8
11
15.03
21
1.8
0
LINE
5
2CF
100
AcDbEntity
8
raster
6
ByLayer
62
256
370
-1
100
AcDbLine
10
8.03
20
1.79
11
15.03
21
1.79
0
LINE
5
2D0
100
AcDbEntity
8
raster
6
ByLayer
62
256
370
-1
100
AcDbLine
10
8.03
20
1.78
11
15.03
21
1.78
0
LINE
5
2D1
100
AcDbEntity
8
raster
6
ByLayer
62
256
370
-1
100
AcDbLine
10
8.03
20
1.77
11
15.03
21
1.77
0
LINE
5
2D2
100
AcDbEntity
8
raster
6
ByLayer
62
256
370
-1
100
AcDbLine
10
8.03
20
1.76
11
15.03
21
1.76
0
LINE
5
2D3
100
AcDbEntity
8
raster
6
ByLayer
62
256
370
-1
100
AcDbLine
10
8.03
20
1.75
11
15.03
21
1.75
0
LINE
5
2D4
100
AcDbEntity
8
raster
6
ByLayer
62
256
370
-1
100
AcDbLine
10
8.03
20
1.74
11
15.03
21
1.74
0
LINE
5
2D5
100
AcDbEntity
8
raster
6
ByLayer
62
256
370
-1
100
AcDbLine
10
8.03
20
1.73
11
15.03
21
1.73
0
LINE
5
2D6
100
AcDbEntity
8
raster
6
ByLayer
62
256
370
-1
100
AcDbLine
10
8.03
20
1.72
11
15.03
21
1.72
0
LINE
5
2D7
100
AcDbEntity
8
raster
6
ByLayer
62
256
370
-1
100
AcDbLine
10
8.03
20
1.71
11
15.03
21
1.71
0
LINE
5
2D8
100
AcDbEntity
8
raster
6
ByLayer
62
256
370
-1
100
AcDbLine
10
8.03
20
1.7
11
15.03
21
1.7
0
LINE
5
2D9
100
AcDbEntity
8
raster
6
ByLayer
62
256
370
-1
100
AcDbLine
10
8.03
20
1.69
11
15.03
21
1.69
0
LINE
5
2DA
100
AcDbEntity
8
raster
6
ByLayer
62
256
370
-1
100
AcDbLine
10
8.03
20
1.68
11
15.03
21
1.68
0
LINE
5
2DB
100
AcDbEntity
8
raster
6
ByLayer
62
256
370
-1
100
AcDbLine
10
8.03
20
1.67
11
15.03
21
1.67
0
LINE
5
2DC
100
AcDbEntity
8
raster
6
ByLayer
62
256
370
-1
100
AcDbLine
10
8.03
20
1.66
11
15.03
21
1.66
0
LINE
5
2DD
100
AcDbEntity
8
raster
6
ByLayer
62
256
370
-1
100
AcDbLine
10
8.03
20
1.65
11
15.03
21
1.65
0
LINE
5
2DE
100
AcDbEntity
8
raster
6
ByLayer
62
256
370
-1
100
AcDbLine
10
8.03
20
1.64
11
15.03
21
1.64
0
LINE
5
2DF
100
AcDbEntity
8
raster
6
ByLayer
62
256
370
-1
100
AcDbLine
10
8.03
20
1.63
11
15.03
21
1.63
0
LINE
5
2E0
100
AcDbEntity
8
raster
6
ByLayer
62
256
370
-1
100
AcDbLine
10
8.03
20
1.62
11
15.03
21
1.62
0
LINE
5
2E1
100
AcDbEntity
8
raster
6
ByLayer
62
256
370
-1
100
AcDbLine
10
8.03
20
1.61
11
15.03
21
1.61
0
LINE
5
2E2
100
AcDbEntity
8
raster
6
ByLayer
62
256
370
-1
100
AcDbLine
10
8.03
20
1.6
11
15.03
21
1.6
0
LINE
5
2E3
100
AcDbEntity
8
raster
6
ByLayer
62
256
370
-1
100
AcDbLine
10
8.03
20
1.59
11
15.03
21
1.59
0
LINE
5
2E4
100
AcDbEntity
8
raster
6
ByLayer
62
256
370
-1
100
AcDbLine
10
8.03
20
1.58
11
15.03
21
1.58
0
LINE
5
2E5
100
AcDbEntity
8
raster
6
ByLayer
62
256
370
-1
100
AcDbLine
10
8.03
20
1.57
11
15.03
21
1.57
0
LINE
5
2E6
100
AcDbEntity
8
raster
6
ByLayer
62
256
370
-1
100
AcDbLine
10
8.03
20
1.56
11
15.03
21
1.56
0
LINE
5
2E7
100
AcDbEntity
8
raster
6
ByLayer
62
256
370
-1
100
AcDbLine
10
8.03
20
1.55
11
15.03
21
1.55
0
LINE
5
2E8
100
AcDbEntity
8
raster
6
ByLayer
62
256
370
-1
100
AcDbLine
10
8.03
20
1.54
11
15.03
21
1.54
0
LINE
5
2E9
100
AcDbEntity
8
raster
6
ByLayer
62
256
370
-1
100
AcDbLine
10
8.03
20
1.53
11
15.03
21
1.53
0
LINE
5
2EA
100
AcDbEntity
8
raster
6
ByLayer
62
256
370
-1
100
AcDbLine
10
8.03
20
1.52
11
15.03
21
1.52
0
LINE
5
2EB
100
AcDbEntity
8
raster
6
ByLayer
62
256
370
-1
100
AcDbLine
10
8.03
20
1.51
11
15.03
21
1.51
0
LINE
5
2EC
100
AcDbEntity
8
raster
6
ByLayer
62
256
370
-1
100
AcDbLine
10
8.03
20
1.5
11
15.03
21
1.5
0
LINE
5
2ED
100
AcDbEntity
8
raster
6
ByLayer
62
256
370
-1
100
AcDbLine
10
8.03
20
1.49
11
15.03
21
1.49
0
LINE
5
2EE
100
AcDbEntity
8
raster
6
ByLayer
62
256
370
-1
100
AcDbLine
10
8.03
20
1.48
11
15.03
21
1.48
0
LINE
5
2EF
100
AcDbEntity
8
raster
6
ByLayer
62
256
370
-1
100
AcDbLine
10
8.03
20
1.47
11
15.03
21
1.47
0
LINE
5
2F0
100
AcDbEntity
8
raster
6
ByLayer
62
256
370
-1
100
AcDbLine
10
8.03
20
1.46
11
15.03
21
1.46
0
LINE
5
2F1
100
AcDbEntity
8
raster
6
ByLayer
62
256
370
-1
100
AcDbLine
10
8.03
20
1.45
11
15.03
21
1.45
0
LINE
5
2F2
100
AcDbEntity
8
raster
6
ByLayer
62
256
370
-1
100
AcDbLine
10
8.03
20
1.44
11
15.03
21
1.44
0
LINE
5
2F3
100
AcDbEntity
8
raster
6
ByLayer
62
256
370
-1
100
AcDbLine
10
8.03
20
1.43
11
15.03
21
1.43
0
LINE
5
2F4
100
AcDbEntity
8
raster
6
ByLayer
62
256
370
-1
100
AcDbLine
10
8.03
20
1.42
11
15.03
21
1.42
0
LINE
5
2F5
100
AcDbEntity
8
raster
6
ByLayer
62
256
370
-1
100
AcDbLine
10
8.03
20
1.41
11
15.03
21
1.41
0
LINE
5
2F6
100
AcDbEntity
8
raster
6
ByLayer
62
256
370
-1
100
AcDbLine
10
8.03
20
1.4
11
15.03
21
1.4
0
LINE
5
2F7
100
AcDbEntity
8
raster
6
ByLayer
62
256
370
-1
100
AcDbLine
10
8.03
20
1.39
11
15.03
21
1.39
0
LINE
5
2F8
100
AcDbEntity
8
raster
6
ByLayer
62
256
370
-1
100
AcDbLine
10
8.03
20
1.38
11
15.03
21
1.38
0
LINE
5
2F9
100
AcDbEntity
8
raster
6
ByLayer
62
256
370
-1
100
AcDbLine
10
8.03
20
1.37
11
15.03
21
1.37
0
LINE
5
2FA
100
AcDbEntity
8
raster
6
ByLayer
62
256
370
-1
100
AcDbLine
10
8.03
20
1.36
11
15.03
21
1.36
0
LINE
5
2FB
100
AcDbEntity
8
raster
6
ByLayer
62
256
370
-1
100
AcDbLine
10
8.03
20
1.35
11
15.03
21
1.35
0
LINE
5
2FC
100
AcDbEntity
8
raster
6
ByLayer
62
256
370
-1
100
AcDbLine
10
8.03
20
1.34
11
15.03
21
1.34
0
LINE
5
2FD
100
AcDbEntity
8
raster
6
ByLayer
62
256
370
-1
100
AcDbLine
10
8.03
20
1.33
11
15.03
21
1.33
0
LINE
5
2FE
100
AcDbEntity
8
raster
6
ByLayer
62
256
370
-1
100
AcDbLine
10
8.03
20
1.32
11
15.03
21
1.32
0
LINE
5
2FF
100
AcDbEntity
8
raster
6
ByLayer
62
256
370
-1
100
AcDbLine
10
8.03
20
1.31
11
15.03
21
1.31
0
LINE
5
300
100
AcDbEntity
8
raster
6
ByLayer
62
256
370
-1
100
AcDbLine
10
8.03
20
1.3
11
15.03
21
1.3
0
LINE
5
301
100
AcDbEntity
8
raster
6
ByLayer
62
256
370
-1
100
AcDbLine
10
8.03
20
1.29
11
15.03
21
1.29
0
LINE
5
302
100
AcDbEntity
8
raster
6
ByLayer
62
256
370
-1
100
AcDbLine
10
8.03
20
1.28
11
15.03
21
1.28
0
LINE
5
303
100
AcDbEntity
8
raster
6
ByLayer
62
256
370
-1
100
AcDbLine
10
8.03
20
1.27
11
15.03
21
1.27
0
LINE
5
304
100
AcDbEntity
8
raster
6
ByLayer
62
256
370
-1
100
AcDbLine
10
8.03
20
1.26
11
15.03
21
1.26
0
LINE
5
305
100
AcDbEntity
8
raster
6
ByLayer
62
256
370
-1
100
AcDbLine
10
8.03
20
1.25
11
15.03
21
1.25
0
LINE
5
306
100
AcDbEntity
8
raster
6
ByLayer
62
256
370
-1
100
AcDbLine
10
8.03
20
1.24
11
15.03
21
1.24
0
LINE
5
307
100
AcDbEntity
8
raster
6
ByLayer
62
256
370
-1
100
AcDbLine
10
8.03
20
1.23
11
15.03
21
1.23
0
LINE
5
308
100
AcDbEntity
8
raster
6
ByLayer
62
256
370
-1
100
AcDbLine
10
8.03
20
1.22
11
15.03
21
1.22
0
LINE
5
309
100
AcDbEntity
8
raster
6
ByLayer
62
256
370
-1
100
AcDbLine
10
8.03
20
1.21
11
15.03
21
1.21
0
LINE
5
30A
100
AcDbEntity
8
raster
6
ByLayer
62
256
370
-1
100
AcDbLine
10
8.03
20
1.2
11
15.03
21
1.2
0
LINE
5
30B
100
AcDbEntity
8
raster
6
ByLayer
62
256
370
-1
100
AcDbLine
10
8.03
20
1.19
11
15.03
21
1.19
0
LINE
5
30C
100
AcDbEntity
8
raster
6
ByLayer
62
256
370
-1
100
AcDbLine
10
8.03
20
1.18
11
15.03
21
1.18
0
LINE
5
30D
100
AcDbEntity
8
raster
6
ByLayer
62
256
370
-1
100
AcDbLine
10
8.03
20
1.17
11
15.03
21
1.17
0
LINE
5
30E
100
AcDbEntity
8
raster
6
ByLayer
62
256
370
-1
100
AcDbLine
10
8.03
20
1.16
11
15.03
21
1.16
0
LINE
5
30F
100
AcDbEntity
8
raster
6
ByLayer
62
256
370
-1
100
AcDbLine
10
8.03
20
1.15
11
15.03
21
1.15
0
LINE
5
310
100
AcDbEntity
8
raster
6
ByLayer
62
256
370
-1
100
AcDbLine
10
8.03
20
1.14
11
15.03
21
1.14
0
LINE
5
311
100
AcDbEntity
8
raster
6
ByLayer
62
256
370
-1
100
AcDbLine
10
8.03
20
1.13
11
15.03
21
1.13
0
LINE
5
312
100
AcDbEntity
8
vector
6
ByLayer
62
256
370
-1
100
AcDbLine
10
7.6
20
8.86
11
15.46
21
8.86
0
ARC
5
313
100
AcDbEntity
8
vector
6
ByLayer
62
256
370
-1
100
AcDbCircle
10
15.46
20
8.56
40
0.3
100
AcDbArc
50
6.78514190698e-13
51
90
0
LINE
5
314
100
AcDbEntity
8
vector
6
ByLayer
62
256
370
-1
100
AcDbLine
10
15.76
20
8.56
11
15.76
21
0.7
0
ARC
5
315
100
AcDbEntity
8
vector
6
ByLayer
62
256
370
-1
100
AcDbCircle
10
15.46
20
0.7
40
0.3
100
AcDbArc
50
270
51
2.96847628923e-13
0
LINE
5
316
100
AcDbEntity
8
vector
6
ByLayer
62
256
370
-1
100
AcDbLine
10
15.46
20
0.4
11
7.6
21
0.4
0
ARC
5
317
100
AcDbEntity
8
vector
6
ByLayer
62
256
370
-1
100
AcDbCircle
10
7.6
20
0.7
40
0.3
100
AcDbArc
50
180
51
270
0
LINE
5
318
100
AcDbEntity
8
vector
6
ByLayer
62
256
370
-1
100
AcDbLine
10
7.3
20
0.7
11
7.3
21
8.56
0
ARC
5
319
100
AcDbEntity
8
vector
6
ByLayer
62
256
370
-1
100
AcDbCircle
10
7.6
20
8.56
40
0.3
100
AcDbArc
50
90
51
180
0
ENDSEC
0
SECTION
2
OBJECTS
0
DICTIONARY
5
C
330
0
100
AcDbDictionary
281
1
3
ACAD_GROUP
350
D
0
DICTIONARY
5
D
330
C
100
AcDbDictionary
281
1
0
ENDSEC
0
EOF
